<svg xmlns="http://www.w3.org/2000/svg" width="29.175" height="38.597" viewBox="0 0 29.175 38.597"><g transform="translate(-46.799)"><path d="M70.809,0H51.964A5.171,5.171,0,0,0,46.8,5.165V33.433A5.171,5.171,0,0,0,51.964,38.6H70.809a5.171,5.171,0,0,0,5.165-5.165V5.165A5.17,5.17,0,0,0,70.809,0Zm3.534,33.433a3.538,3.538,0,0,1-3.534,3.534H51.964a3.538,3.538,0,0,1-3.534-3.534V5.165a3.538,3.538,0,0,1,3.534-3.534H70.809a3.538,3.538,0,0,1,3.534,3.534Z" fill="#00344d"/><path d="M112.533,43.194H94.411a.815.815,0,0,0-.815.816v5.927a.815.815,0,0,0,.815.815h18.121a.815.815,0,0,0,.815-.815V44.01A.815.815,0,0,0,112.533,43.194Zm-.815,5.927H95.227v-4.3h16.491Z" transform="translate(-42.086 -38.846)" fill="#00344d"/><path d="M164.987,144a2.99,2.99,0,1,0,2.99,2.99A2.993,2.993,0,0,0,164.987,144Zm0,4.893a1.9,1.9,0,1,1,1.9-1.9A1.9,1.9,0,0,1,164.987,148.895Z" transform="translate(-103.601 -129.505)" fill="#00344d"/><path d="M99.286,144a2.99,2.99,0,1,0,2.99,2.99A2.993,2.993,0,0,0,99.286,144Zm0,4.893a1.9,1.9,0,1,1,1.9-1.9A1.9,1.9,0,0,1,99.286,148.895Z" transform="translate(-44.514 -129.505)" fill="#00344d"/><path d="M230.689,144a2.99,2.99,0,1,0,2.99,2.99A2.993,2.993,0,0,0,230.689,144Zm0,4.893a1.9,1.9,0,1,1,1.9-1.9A1.9,1.9,0,0,1,230.689,148.895Z" transform="translate(-162.688 -129.505)" fill="#00344d"/><path d="M164.987,208.8a2.99,2.99,0,1,0,2.99,2.99A2.993,2.993,0,0,0,164.987,208.8Zm0,4.893a1.9,1.9,0,1,1,1.9-1.9A1.9,1.9,0,0,1,164.987,213.695Z" transform="translate(-103.601 -187.781)" fill="#00344d"/><path d="M99.286,208.8a2.99,2.99,0,1,0,2.99,2.99A2.993,2.993,0,0,0,99.286,208.8Zm0,4.893a1.9,1.9,0,1,1,1.9-1.9A1.9,1.9,0,0,1,99.286,213.695Z" transform="translate(-44.514 -187.781)" fill="#00344d"/><path d="M230.689,208.8a2.99,2.99,0,1,0,2.99,2.99A2.993,2.993,0,0,0,230.689,208.8Zm0,4.893a1.9,1.9,0,1,1,1.9-1.9A1.9,1.9,0,0,1,230.689,213.695Z" transform="translate(-162.688 -187.781)" fill="#00344d"/><path d="M164.987,273.6a2.99,2.99,0,1,0,2.99,2.99A2.993,2.993,0,0,0,164.987,273.6Zm0,4.893a1.9,1.9,0,1,1,1.9-1.9A1.9,1.9,0,0,1,164.987,278.495Z" transform="translate(-103.601 -246.058)" fill="#00344d"/><path d="M99.286,273.6a2.99,2.99,0,1,0,2.99,2.99A2.993,2.993,0,0,0,99.286,273.6Zm0,4.893a1.9,1.9,0,1,1,1.9-1.9A1.9,1.9,0,0,1,99.286,278.495Z" transform="translate(-44.514 -246.058)" fill="#00344d"/><path d="M230.689,273.6a2.99,2.99,0,1,0,2.99,2.99A2.993,2.993,0,0,0,230.689,273.6Zm0,4.893a1.9,1.9,0,1,1,1.9-1.9A1.9,1.9,0,0,1,230.689,278.495Z" transform="translate(-162.688 -246.058)" fill="#00344d"/></g></svg>