<svg xmlns="http://www.w3.org/2000/svg" width="42.278" height="42.278" viewBox="0 0 42.278 42.278"><g transform="translate(16.911 19.025)"><path d="M196.228,216a4.228,4.228,0,1,0,4.228,4.228A4.232,4.232,0,0,0,196.228,216Zm0,7.046a2.819,2.819,0,1,1,2.818-2.819A2.822,2.822,0,0,1,196.228,223.046Z" transform="translate(-192 -216)" fill="#00344d"/></g><path d="M21.139,0A21.139,21.139,0,1,0,42.278,21.139,21.163,21.163,0,0,0,21.139,0Zm0,40.868a19.73,19.73,0,1,1,19.73-19.73A19.752,19.752,0,0,1,21.139,40.868Z" fill="#00344d"/><g transform="translate(4.228 4.228)"><path d="M64.911,48A16.911,16.911,0,1,0,81.822,64.911,16.93,16.93,0,0,0,64.911,48Zm0,1.409a15.524,15.524,0,0,1,14.465,9.937L74.1,61.106a7.613,7.613,0,0,1-5.514-.267,9.05,9.05,0,0,0-7.343,0l-.267.118a7.651,7.651,0,0,1-5.066.4l-5.646-1.506A15.526,15.526,0,0,1,64.911,49.409Zm-15.5,15.5c0-.144.007-.285.011-.428l.489.163a18.787,18.787,0,0,1,12.734,15.6A15.525,15.525,0,0,1,49.409,64.911Zm15.5,15.5c-.28,0-.558-.008-.834-.023A20.191,20.191,0,0,0,50.355,63.31l-.828-.276a15.411,15.411,0,0,1,.334-1.83l5.683,1.516a9.063,9.063,0,0,0,6-.473l.267-.118a7.638,7.638,0,0,1,6.2,0,9.022,9.022,0,0,0,6.53.314l5.279-1.76a15.384,15.384,0,0,1,.473,2.351l-.828.276A20.191,20.191,0,0,0,65.745,80.39C65.469,80.4,65.191,80.413,64.911,80.413Zm2.267-.167a18.787,18.787,0,0,1,12.734-15.6l.489-.163c0,.143.011.284.011.428A15.525,15.525,0,0,1,67.178,80.245Z" transform="translate(-48 -48)" fill="#00344d"/></g></svg>