<?xml version="1.0" encoding="UTF-8"?>
<svg xmlns="http://www.w3.org/2000/svg" xmlns:xlink="http://www.w3.org/1999/xlink" width="172pt" height="86pt" viewBox="0 0 172 86" version="1.1">
<g id="surface1">
<path style=" stroke:none;fill-rule:nonzero;fill:rgb(89.803922%,0%,9.803922%);fill-opacity:1;" d="M 43.511719 31.777344 C 44.207031 31.976562 44.917969 32.121094 45.636719 32.210938 C 45.945312 32.242188 46.253906 32.164062 46.511719 31.992188 C 46.699219 31.824219 46.84375 31.613281 46.933594 31.378906 L 47.640625 31.378906 L 46.375 38.761719 L 45.769531 38.671875 C 45.710938 37.445312 45.398438 36.246094 44.859375 35.144531 C 43.972656 33.492188 42.507812 32.664062 40.464844 32.664062 C 37.320312 32.664062 34.730469 34.355469 32.699219 37.730469 C 30.941406 40.601562 30.019531 43.902344 30.039062 47.265625 C 30.039062 49.8125 30.578125 51.738281 31.65625 53.039062 C 32.660156 54.308594 34.199219 55.03125 35.816406 54.996094 C 37.519531 55.007812 39.195312 54.53125 40.632812 53.617188 C 41.867188 52.746094 43 51.746094 44.019531 50.632812 L 44.574219 51.15625 C 43.425781 52.769531 41.976562 54.140625 40.304688 55.203125 C 38.730469 56.179688 36.910156 56.691406 35.058594 56.675781 C 32.183594 56.675781 29.976562 55.699219 28.4375 53.746094 C 26.902344 51.800781 26.085938 49.382812 26.132812 46.90625 C 26.132812 43.164062 27.417969 39.714844 29.988281 36.554688 C 32.808594 33.078125 36.230469 31.34375 40.261719 31.34375 C 41.359375 31.355469 42.453125 31.5 43.511719 31.777344 Z M 43.511719 31.777344 "/>
<path style=" stroke:none;fill-rule:nonzero;fill:rgb(89.803922%,0%,9.803922%);fill-opacity:1;" d="M 50.734375 43.410156 C 52.957031 40.902344 55.253906 39.648438 57.621094 39.648438 C 58.375 39.609375 59.117188 39.839844 59.710938 40.296875 C 60.253906 40.789062 60.539062 41.503906 60.484375 42.230469 C 60.484375 43.964844 59.539062 45.449219 57.648438 46.683594 C 55.855469 47.878906 53.8125 48.65625 51.675781 48.949219 L 50.71875 49.078125 C 50.570312 49.570312 50.46875 49.964844 50.414062 50.261719 C 50.351562 50.628906 50.324219 51 50.328125 51.375 C 50.277344 52.300781 50.628906 53.207031 51.296875 53.855469 C 51.921875 54.4375 52.746094 54.753906 53.597656 54.742188 C 54.558594 54.703125 55.488281 54.386719 56.277344 53.835938 C 57.097656 53.261719 57.878906 52.632812 58.617188 51.953125 L 59.054688 52.371094 C 58.433594 53.175781 57.699219 53.886719 56.882812 54.488281 C 55.207031 55.777344 53.527344 56.421875 51.84375 56.421875 C 50.65625 56.425781 49.523438 55.933594 48.710938 55.066406 C 47.8125 54.164062 47.363281 52.867188 47.363281 51.179688 C 47.363281 48.507812 48.488281 45.914062 50.734375 43.410156 Z M 56.191406 45.832031 C 57.539062 44.550781 58.210938 43.28125 58.210938 42.015625 C 58.234375 41.628906 58.125 41.246094 57.910156 40.921875 C 57.699219 40.648438 57.363281 40.496094 57.015625 40.515625 C 56.199219 40.554688 55.425781 40.917969 54.867188 41.519531 C 54.15625 42.199219 53.519531 42.960938 52.972656 43.785156 C 52.421875 44.6875 51.949219 45.636719 51.558594 46.621094 C 51.367188 47.101562 51.167969 47.648438 50.953125 48.261719 C 53.097656 47.925781 54.84375 47.117188 56.191406 45.832031 Z M 56.191406 45.832031 "/>
<path style=" stroke:none;fill-rule:nonzero;fill:rgb(89.803922%,0%,9.803922%);fill-opacity:1;" d="M 68.480469 39.621094 C 68.519531 39.691406 68.542969 39.769531 68.539062 39.847656 C 68.527344 39.96875 68.519531 40.0625 68.507812 40.121094 L 66.792969 47.183594 L 67.183594 46.34375 C 67.960938 44.695312 68.910156 43.132812 70.019531 41.683594 C 71.101562 40.277344 72.132812 39.574219 73.109375 39.574219 C 73.585938 39.550781 74.039062 39.761719 74.332031 40.136719 C 74.613281 40.503906 74.765625 40.957031 74.761719 41.421875 C 74.777344 41.90625 74.625 42.382812 74.332031 42.769531 C 74.042969 43.125 73.605469 43.324219 73.144531 43.304688 C 72.867188 43.324219 72.585938 43.246094 72.355469 43.085938 C 72.183594 42.949219 72.039062 42.777344 71.9375 42.578125 L 71.734375 42.179688 C 71.691406 42.113281 71.640625 42.054688 71.574219 42.007812 C 71.507812 41.964844 71.425781 41.941406 71.347656 41.945312 C 70.910156 41.945312 70.277344 42.601562 69.449219 43.917969 C 68.597656 45.28125 67.859375 46.707031 67.234375 48.1875 C 66.839844 49.117188 66.402344 50.347656 65.917969 51.878906 C 65.613281 52.847656 65.203125 54.214844 64.695312 55.988281 L 62.109375 55.988281 L 64.917969 45.09375 C 65.074219 44.46875 65.199219 43.90625 65.296875 43.410156 C 65.378906 43.011719 65.429688 42.605469 65.4375 42.199219 C 65.460938 41.898438 65.371094 41.605469 65.1875 41.367188 C 64.949219 41.148438 64.628906 41.042969 64.308594 41.078125 C 64.140625 41.078125 63.972656 41.089844 63.804688 41.113281 C 63.605469 41.136719 63.363281 41.167969 63.082031 41.203125 L 63.082031 40.605469 L 63.757812 40.460938 C 64.632812 40.269531 65.589844 40.0625 66.628906 39.847656 C 67.667969 39.628906 68.21875 39.519531 68.273438 39.519531 C 68.355469 39.511719 68.433594 39.550781 68.480469 39.621094 Z M 68.480469 39.621094 "/>
<path style=" stroke:none;fill-rule:nonzero;fill:rgb(89.803922%,0%,9.803922%);fill-opacity:1;" d="M 75.964844 54.460938 C 75.976562 54.328125 75.996094 54.199219 76.03125 54.070312 L 79.285156 41.441406 L 76.726562 41.441406 C 76.710938 41.234375 76.734375 41.023438 76.792969 40.824219 C 76.878906 40.707031 76.996094 40.621094 77.132812 40.570312 C 78.070312 40.167969 78.960938 39.660156 79.785156 39.0625 C 80.742188 38.226562 81.601562 37.289062 82.351562 36.265625 L 82.621094 35.917969 C 82.652344 35.871094 82.695312 35.832031 82.746094 35.800781 C 82.792969 35.773438 82.851562 35.757812 82.90625 35.757812 C 82.988281 35.769531 83.066406 35.792969 83.140625 35.828125 C 83.171875 35.902344 83.191406 35.976562 83.199219 36.054688 C 83.207031 36.125 83.203125 36.195312 83.191406 36.261719 L 82.203125 40.207031 L 84.980469 40.207031 L 84.777344 41.441406 L 81.875 41.441406 L 78.769531 53.601562 C 78.710938 53.808594 78.730469 54.03125 78.820312 54.226562 C 78.890625 54.414062 79.074219 54.535156 79.273438 54.523438 C 79.566406 54.523438 79.976562 54.210938 80.503906 53.582031 C 80.808594 53.246094 81.320312 52.578125 82.039062 51.574219 L 82.476562 51.847656 L 82.238281 52.226562 C 81.273438 53.78125 80.421875 54.867188 79.683594 55.476562 C 78.945312 56.082031 78.246094 56.386719 77.582031 56.390625 C 77.113281 56.429688 76.652344 56.25 76.335938 55.898438 C 76.082031 55.589844 75.945312 55.199219 75.945312 54.796875 C 75.945312 54.699219 75.953125 54.585938 75.964844 54.460938 Z M 75.964844 54.460938 "/>
<path style=" stroke:none;fill-rule:nonzero;fill:rgb(89.803922%,0%,9.803922%);fill-opacity:1;" d="M 92.070312 39.585938 C 92.125 39.617188 92.152344 39.679688 92.144531 39.738281 L 88.742188 52.660156 C 88.636719 53.066406 88.558594 53.476562 88.507812 53.890625 C 88.503906 54.054688 88.539062 54.214844 88.609375 54.363281 C 88.664062 54.507812 88.804688 54.578125 89.027344 54.578125 C 89.410156 54.578125 89.917969 54.222656 90.546875 53.511719 C 91.035156 52.933594 91.488281 52.328125 91.910156 51.703125 L 92.347656 52.101562 L 92.179688 52.351562 C 91.566406 53.324219 90.867188 54.238281 90.089844 55.085938 C 89.226562 55.953125 88.382812 56.390625 87.566406 56.390625 C 87.078125 56.386719 86.628906 56.144531 86.359375 55.738281 C 86.035156 55.292969 85.867188 54.75 85.878906 54.199219 C 85.878906 53.894531 85.898438 53.585938 85.949219 53.285156 C 85.992188 53.027344 86.078125 52.644531 86.199219 52.136719 L 88.597656 42.835938 C 88.632812 42.691406 88.660156 42.558594 88.683594 42.4375 C 88.703125 42.316406 88.714844 42.195312 88.714844 42.074219 C 88.714844 41.640625 88.566406 41.371094 88.269531 41.269531 C 87.695312 41.136719 87.101562 41.085938 86.511719 41.113281 L 86.511719 40.515625 C 87.4375 40.398438 88.101562 40.304688 88.507812 40.238281 C 88.917969 40.171875 89.324219 40.101562 89.738281 40.03125 C 90.273438 39.933594 90.78125 39.824219 91.257812 39.703125 C 91.515625 39.605469 91.792969 39.566406 92.070312 39.585938 Z M 90.476562 35.050781 C 90.152344 34.660156 89.976562 34.167969 89.988281 33.65625 C 89.976562 33.144531 90.148438 32.640625 90.476562 32.246094 C 90.761719 31.882812 91.195312 31.667969 91.65625 31.667969 C 92.121094 31.667969 92.558594 31.882812 92.84375 32.246094 C 93.179688 32.640625 93.355469 33.140625 93.339844 33.65625 C 93.355469 34.171875 93.179688 34.671875 92.84375 35.058594 C 92.554688 35.421875 92.117188 35.632812 91.65625 35.632812 C 91.195312 35.632812 90.757812 35.417969 90.476562 35.050781 Z M 90.476562 35.050781 "/>
<path style=" stroke:none;fill-rule:nonzero;fill:rgb(89.803922%,0%,9.803922%);fill-opacity:1;" d="M 108.050781 34.253906 C 107.8125 34.585938 107.425781 34.777344 107.019531 34.761719 C 106.664062 34.773438 106.320312 34.628906 106.078125 34.371094 C 105.835938 34.125 105.703125 33.792969 105.707031 33.453125 C 105.753906 33.019531 105.859375 32.597656 106.027344 32.195312 C 106.023438 32.03125 105.941406 31.875 105.808594 31.777344 C 105.679688 31.667969 105.515625 31.609375 105.347656 31.613281 C 104.503906 31.613281 102.707031 32.585938 102.136719 34.53125 C 101.820312 35.65625 101.097656 37.550781 100.703125 40.210938 L 104.460938 40.210938 L 104.222656 41.421875 L 100.390625 41.421875 L 94.617188 66 C 93.933594 69.125 93.019531 71.652344 91.875 73.578125 C 90.726562 75.507812 89.257812 76.472656 87.472656 76.472656 C 86.734375 76.5 86.011719 76.25 85.457031 75.765625 C 84.972656 75.382812 84.683594 74.808594 84.667969 74.191406 C 84.667969 73.828125 84.78125 73.472656 84.996094 73.175781 C 85.222656 72.859375 85.59375 72.683594 85.980469 72.707031 C 86.347656 72.699219 86.699219 72.847656 86.949219 73.113281 C 87.210938 73.382812 87.355469 73.746094 87.34375 74.117188 C 87.34375 74.351562 87.28125 74.578125 87.167969 74.78125 C 87.078125 74.921875 87.019531 75.078125 86.992188 75.242188 C 87 75.359375 87.074219 75.464844 87.1875 75.511719 C 87.339844 75.589844 87.511719 75.628906 87.683594 75.621094 C 88.640625 75.621094 89.449219 74.8125 90.113281 73.195312 C 90.542969 72.0625 90.863281 70.894531 91.074219 69.703125 L 97.628906 41.421875 L 94.511719 41.421875 L 94.746094 40.207031 L 98.007812 40.207031 C 98.496094 38.015625 99.316406 35.910156 100.441406 33.964844 C 101.578125 31.890625 104.074219 30.851562 105.746094 30.851562 C 106.449219 30.828125 107.136719 31.082031 107.65625 31.558594 C 108.132812 31.960938 108.410156 32.546875 108.417969 33.167969 C 108.417969 33.5625 108.285156 33.941406 108.050781 34.253906 Z M 108.050781 34.253906 "/>
<path style=" stroke:none;fill-rule:nonzero;fill:rgb(89.803922%,0%,9.803922%);fill-opacity:1;" d="M 111.976562 39.585938 C 112.03125 39.617188 112.0625 39.675781 112.050781 39.738281 L 108.652344 52.660156 C 108.542969 53.0625 108.464844 53.472656 108.414062 53.890625 C 108.410156 54.050781 108.445312 54.214844 108.515625 54.359375 C 108.570312 54.503906 108.710938 54.578125 108.9375 54.578125 C 109.316406 54.578125 109.824219 54.222656 110.453125 53.511719 C 110.941406 52.933594 111.398438 52.328125 111.816406 51.699219 L 112.253906 52.097656 L 112.085938 52.351562 C 111.472656 53.324219 110.773438 54.238281 110 55.085938 C 109.132812 55.953125 108.289062 56.386719 107.472656 56.386719 C 106.984375 56.386719 106.535156 56.140625 106.265625 55.738281 C 105.941406 55.289062 105.773438 54.75 105.785156 54.199219 C 105.78125 53.890625 105.804688 53.585938 105.855469 53.285156 C 105.898438 53.023438 105.984375 52.640625 106.105469 52.136719 L 108.503906 42.832031 C 108.539062 42.6875 108.566406 42.554688 108.589844 42.433594 C 108.613281 42.316406 108.625 42.195312 108.625 42.074219 C 108.625 41.640625 108.476562 41.371094 108.175781 41.265625 C 107.601562 41.136719 107.011719 41.082031 106.417969 41.113281 L 106.417969 40.515625 C 107.34375 40.394531 108.007812 40.300781 108.417969 40.234375 C 108.824219 40.167969 109.234375 40.101562 109.644531 40.027344 C 110.179688 39.929688 110.6875 39.824219 111.167969 39.703125 C 111.425781 39.605469 111.699219 39.5625 111.976562 39.585938 Z M 110.386719 35.050781 C 110.058594 34.660156 109.882812 34.167969 109.898438 33.65625 C 109.882812 33.144531 110.058594 32.640625 110.386719 32.246094 C 110.667969 31.882812 111.101562 31.667969 111.566406 31.667969 C 112.027344 31.667969 112.464844 31.882812 112.753906 32.246094 C 113.085938 32.640625 113.261719 33.144531 113.25 33.65625 C 113.261719 34.171875 113.085938 34.671875 112.753906 35.058594 C 112.464844 35.421875 112.027344 35.628906 111.566406 35.632812 C 111.101562 35.632812 110.667969 35.417969 110.386719 35.050781 Z M 110.386719 35.050781 "/>
<path style=" stroke:none;fill-rule:nonzero;fill:rgb(89.803922%,0%,9.803922%);fill-opacity:1;" d="M 117.8125 43.410156 C 120.039062 40.902344 122.335938 39.648438 124.703125 39.648438 C 125.457031 39.609375 126.195312 39.839844 126.792969 40.296875 C 127.335938 40.789062 127.621094 41.503906 127.566406 42.230469 C 127.566406 43.964844 126.621094 45.449219 124.730469 46.683594 C 122.9375 47.878906 120.894531 48.65625 118.757812 48.949219 L 117.796875 49.078125 C 117.652344 49.570312 117.550781 49.964844 117.496094 50.261719 C 117.433594 50.628906 117.40625 51 117.410156 51.375 C 117.359375 52.300781 117.710938 53.207031 118.378906 53.855469 C 119.003906 54.4375 119.828125 54.753906 120.679688 54.742188 C 121.640625 54.703125 122.570312 54.386719 123.359375 53.835938 C 124.179688 53.261719 124.960938 52.632812 125.699219 51.953125 L 126.136719 52.371094 C 125.515625 53.175781 124.78125 53.886719 123.964844 54.488281 C 122.289062 55.777344 120.613281 56.421875 118.925781 56.421875 C 117.742188 56.425781 116.605469 55.933594 115.792969 55.066406 C 114.894531 54.164062 114.445312 52.867188 114.445312 51.179688 C 114.445312 48.507812 115.566406 45.914062 117.8125 43.410156 Z M 123.273438 45.832031 C 124.621094 44.550781 125.292969 43.28125 125.292969 42.015625 C 125.3125 41.628906 125.207031 41.246094 124.992188 40.921875 C 124.78125 40.648438 124.445312 40.496094 124.097656 40.515625 C 123.277344 40.554688 122.507812 40.917969 121.949219 41.519531 C 121.238281 42.199219 120.601562 42.960938 120.054688 43.785156 C 119.503906 44.6875 119.027344 45.636719 118.640625 46.621094 C 118.449219 47.101562 118.25 47.648438 118.035156 48.261719 C 119.992188 48.011719 121.820312 47.164062 123.273438 45.832031 Z M 123.273438 45.832031 "/>
<path style=" stroke:none;fill-rule:nonzero;fill:rgb(89.803922%,0%,9.803922%);fill-opacity:1;" d="M 140.308594 40.261719 C 140.582031 40.671875 140.753906 41.132812 140.816406 41.621094 L 142.796875 34.203125 C 142.847656 34.019531 142.886719 33.835938 142.90625 33.648438 C 142.925781 33.484375 142.933594 33.34375 142.933594 33.222656 C 142.933594 32.753906 142.851562 32.457031 142.6875 32.335938 C 142.480469 32.203125 142.234375 32.140625 141.988281 32.15625 C 141.796875 32.15625 141.621094 32.164062 141.457031 32.175781 C 141.296875 32.1875 141.078125 32.203125 140.808594 32.230469 L 140.808594 31.632812 C 142.085938 31.449219 143.851562 31.136719 146.109375 30.691406 L 146.261719 30.871094 L 146.226562 31.070312 L 142.902344 44.078125 L 140.636719 52.679688 C 140.59375 52.875 140.558594 53.054688 140.53125 53.214844 C 140.503906 53.363281 140.488281 53.511719 140.488281 53.664062 C 140.488281 53.992188 140.5625 54.207031 140.714844 54.300781 C 140.828125 54.386719 140.964844 54.4375 141.109375 54.449219 C 141.441406 54.449219 141.90625 54.136719 142.507812 53.519531 C 142.859375 53.144531 143.34375 52.5625 143.957031 51.773438 L 144.34375 52.171875 L 144.105469 52.550781 C 143.636719 53.28125 143.097656 53.964844 142.492188 54.585938 C 141.328125 55.808594 140.285156 56.421875 139.359375 56.421875 C 139.066406 56.425781 138.777344 56.347656 138.527344 56.203125 C 138.0625 55.914062 137.832031 55.394531 137.832031 54.648438 C 137.84375 54.242188 137.878906 53.835938 137.933594 53.433594 C 138 52.878906 138.105469 52.273438 138.242188 51.609375 C 137.484375 52.890625 136.539062 54.050781 135.433594 55.046875 C 134.53125 55.894531 133.34375 56.371094 132.105469 56.382812 C 131.132812 56.386719 130.203125 55.980469 129.542969 55.265625 C 128.8125 54.519531 128.449219 53.367188 128.445312 51.8125 C 128.445312 49.183594 129.578125 46.484375 131.835938 43.714844 C 134.085938 40.957031 136.277344 39.578125 138.410156 39.578125 C 139.304688 39.578125 139.9375 39.804688 140.308594 40.261719 Z M 131.917969 53.699219 C 132.25 54.257812 132.875 54.578125 133.519531 54.523438 C 135.128906 54.523438 136.671875 53.136719 138.15625 50.367188 C 139.585938 47.761719 140.300781 45.296875 140.300781 42.976562 C 140.320312 42.347656 140.203125 41.726562 139.960938 41.148438 C 139.734375 40.667969 139.277344 40.425781 138.585938 40.425781 C 136.867188 40.425781 135.207031 41.910156 133.601562 44.871094 C 132.164062 47.523438 131.445312 49.824219 131.445312 51.777344 C 131.429688 52.449219 131.59375 53.113281 131.917969 53.699219 Z M 131.917969 53.699219 "/>
<path style=" stroke:none;fill-rule:nonzero;fill:rgb(0%,29.019608%,61.176471%);fill-opacity:1;" d="M 104.265625 11.175781 L 104.265625 8.351562 L 89.417969 8.351562 L 89.417969 11.585938 L 96.902344 11.585938 L 89.328125 18.558594 L 89.328125 21.378906 L 104.398438 21.378906 L 104.398438 18.144531 L 96.785156 18.144531 Z M 104.265625 11.175781 "/>
<path style=" stroke:none;fill-rule:nonzero;fill:rgb(0%,29.019608%,61.176471%);fill-opacity:1;" d="M 138.113281 8.351562 L 143.078125 8.351562 L 143.078125 21.378906 L 138.113281 21.378906 Z M 138.113281 8.351562 "/>
<path style=" stroke:none;fill-rule:nonzero;fill:rgb(0%,29.019608%,61.176471%);fill-opacity:1;" d="M 131.433594 8.351562 L 126.195312 12.855469 L 126.195312 8.351562 L 121.230469 8.351562 L 121.230469 21.378906 L 126.195312 21.378906 L 126.195312 16.773438 L 131.21875 21.378906 L 137.753906 21.378906 L 130.496094 14.730469 L 137.902344 8.351562 Z M 131.433594 8.351562 "/>
<path style=" stroke:none;fill-rule:nonzero;fill:rgb(0%,29.019608%,61.176471%);fill-opacity:1;" d="M 115.523438 16.03125 C 115.523438 17.109375 115.351562 18.46875 112.777344 18.46875 C 110.207031 18.46875 110.03125 17.109375 110.03125 16.03125 L 110.03125 8.351562 L 105.214844 8.351562 L 105.214844 16.410156 C 105.214844 20.242188 106.492188 21.800781 112.777344 21.800781 C 119.066406 21.800781 120.335938 20.242188 120.335938 16.410156 L 120.335938 8.351562 L 115.523438 8.351562 Z M 115.523438 16.03125 "/>
<path style=" stroke:none;fill-rule:nonzero;fill:rgb(0%,29.019608%,61.176471%);fill-opacity:1;" d="M 83.753906 16.03125 C 83.753906 17.109375 83.582031 18.46875 81.011719 18.46875 C 78.4375 18.46875 78.265625 17.109375 78.265625 16.03125 L 78.265625 8.351562 L 73.449219 8.351562 L 73.449219 16.410156 C 73.449219 20.242188 74.71875 21.800781 81.011719 21.800781 C 87.300781 21.800781 88.570312 20.242188 88.570312 16.410156 L 88.570312 8.351562 L 83.753906 8.351562 Z M 83.753906 16.03125 "/>
<path style=" stroke:none;fill-rule:nonzero;fill:rgb(0%,29.019608%,61.176471%);fill-opacity:1;" d="M 67.230469 13.289062 C 62.542969 12.578125 62.140625 12.632812 62.140625 11.761719 C 62.140625 11.316406 62.738281 10.949219 63.953125 10.949219 C 65.390625 10.949219 66.261719 11.574219 66.394531 12.222656 L 72.03125 12.222656 C 72.03125 9.136719 68.117188 8.015625 64.488281 8.015625 C 62.507812 8.015625 56.71875 8.128906 56.71875 12.136719 C 56.71875 12.605469 56.5625 15.582031 61.402344 16.210938 C 66.277344 16.839844 66.996094 16.835938 66.996094 17.84375 C 66.996094 18.289062 66.421875 18.761719 65.207031 18.761719 C 63.613281 18.761719 63.035156 18.222656 62.796875 17.320312 L 56.628906 17.320312 C 56.757812 20.742188 59.832031 21.78125 64.625 21.78125 C 66.636719 21.78125 72.546875 21.742188 72.546875 17.574219 C 72.550781 16.285156 72.015625 14.007812 67.230469 13.289062 Z M 67.230469 13.289062 "/>
<path style=" stroke:none;fill-rule:nonzero;fill:rgb(89.803922%,0%,9.803922%);fill-opacity:1;" d="M 55.714844 9.511719 C 54.023438 10.882812 48.9375 12.816406 45.769531 10.863281 L 38.613281 5.949219 L 37.519531 6.683594 L 55.757812 19.148438 C 51.214844 20.878906 45.832031 24.429688 42.089844 27.578125 L 28.460938 18.089844 C 30.464844 16.609375 35.125 14.878906 38.292969 16.851562 L 45.609375 21.847656 L 46.589844 21.191406 L 28.277344 8.546875 C 32.148438 7.226562 39.222656 2.84375 41.925781 0 L 55.714844 9.511719 "/>
<path style=" stroke:none;fill-rule:nonzero;fill:rgb(0%,29.019608%,61.176471%);fill-opacity:1;" d="M 57.882812 70.691406 C 57.125 71.429688 56.046875 71.800781 54.644531 71.800781 C 53.214844 71.800781 52.09375 71.449219 51.292969 70.738281 C 50.488281 70.03125 50.085938 68.90625 50.085938 67.359375 L 50.085938 59.964844 L 51.5625 59.964844 L 51.5625 67.359375 C 51.5625 68.398438 51.828125 69.183594 52.355469 69.71875 C 52.886719 70.253906 53.648438 70.519531 54.644531 70.523438 C 55.589844 70.523438 56.308594 70.253906 56.800781 69.71875 C 57.292969 69.183594 57.539062 68.398438 57.539062 67.359375 L 57.539062 59.964844 L 59.015625 59.964844 L 59.015625 67.359375 C 59.019531 68.839844 58.640625 69.949219 57.882812 70.691406 Z M 57.882812 70.691406 "/>
<path style=" stroke:none;fill-rule:nonzero;fill:rgb(0%,29.019608%,61.176471%);fill-opacity:1;" d="M 66.945312 61.546875 C 66.394531 61.15625 65.730469 60.960938 65.054688 60.988281 C 64.746094 60.988281 64.441406 61.019531 64.136719 61.085938 C 63.855469 61.144531 63.582031 61.253906 63.335938 61.410156 C 63.101562 61.5625 62.910156 61.769531 62.777344 62.015625 C 62.628906 62.308594 62.554688 62.636719 62.566406 62.964844 C 62.550781 63.28125 62.660156 63.59375 62.867188 63.832031 C 63.09375 64.070312 63.371094 64.257812 63.675781 64.375 C 64.046875 64.527344 64.429688 64.644531 64.820312 64.726562 C 65.246094 64.816406 65.679688 64.917969 66.121094 65.023438 C 66.5625 65.132812 66.996094 65.261719 67.421875 65.40625 C 67.828125 65.542969 68.214844 65.742188 68.5625 65.996094 C 68.902344 66.246094 69.175781 66.570312 69.375 66.9375 C 69.808594 67.902344 69.773438 69.011719 69.28125 69.945312 C 69.023438 70.375 68.675781 70.742188 68.261719 71.015625 C 67.835938 71.296875 67.363281 71.5 66.867188 71.617188 C 66.367188 71.738281 65.851562 71.800781 65.335938 71.804688 C 64.738281 71.804688 64.140625 71.722656 63.570312 71.558594 C 63.039062 71.410156 62.542969 71.160156 62.105469 70.824219 C 61.679688 70.484375 61.335938 70.050781 61.109375 69.558594 C 60.851562 68.984375 60.726562 68.363281 60.742188 67.734375 L 62.144531 67.734375 C 62.132812 68.167969 62.226562 68.597656 62.417969 68.988281 C 62.585938 69.328125 62.832031 69.625 63.132812 69.855469 C 63.441406 70.089844 63.792969 70.261719 64.167969 70.359375 C 64.5625 70.46875 64.972656 70.523438 65.382812 70.523438 C 65.71875 70.523438 66.054688 70.488281 66.386719 70.425781 C 66.707031 70.367188 67.011719 70.253906 67.296875 70.09375 C 67.5625 69.9375 67.789062 69.71875 67.949219 69.453125 C 68.125 69.136719 68.214844 68.777344 68.199219 68.414062 C 68.214844 68.066406 68.109375 67.71875 67.894531 67.441406 C 67.675781 67.179688 67.398438 66.972656 67.085938 66.832031 C 66.71875 66.667969 66.335938 66.539062 65.945312 66.453125 C 65.519531 66.355469 65.085938 66.253906 64.644531 66.152344 C 64.203125 66.046875 63.769531 65.929688 63.347656 65.796875 C 62.941406 65.671875 62.554688 65.492188 62.203125 65.261719 C 61.867188 65.042969 61.589844 64.746094 61.390625 64.402344 C 61.175781 63.996094 61.074219 63.539062 61.089844 63.078125 C 61.078125 62.554688 61.195312 62.03125 61.433594 61.5625 C 61.652344 61.148438 61.964844 60.789062 62.34375 60.511719 C 62.734375 60.230469 63.171875 60.019531 63.632812 59.894531 C 64.117188 59.757812 64.617188 59.691406 65.121094 59.691406 C 65.65625 59.6875 66.191406 59.757812 66.707031 59.902344 C 67.175781 60.035156 67.613281 60.261719 67.992188 60.566406 C 68.367188 60.878906 68.664062 61.269531 68.863281 61.710938 C 69.089844 62.230469 69.210938 62.789062 69.214844 63.355469 L 67.8125 63.355469 C 67.796875 62.65625 67.480469 62 66.945312 61.546875 Z M 66.945312 61.546875 "/>
<path style=" stroke:none;fill-rule:nonzero;fill:rgb(0%,29.019608%,61.176471%);fill-opacity:1;" d="M 78.777344 59.964844 L 78.777344 61.261719 L 72.582031 61.261719 L 72.582031 64.945312 L 78.355469 64.945312 L 78.355469 66.242188 L 72.582031 66.242188 L 72.582031 70.246094 L 78.824219 70.246094 L 78.824219 71.542969 L 71.105469 71.542969 L 71.105469 59.964844 Z M 78.777344 59.964844 "/>
<path style=" stroke:none;fill-rule:nonzero;fill:rgb(0%,29.019608%,61.176471%);fill-opacity:1;" d="M 84.425781 59.964844 C 86.136719 59.964844 87.453125 60.421875 88.378906 61.328125 C 89.300781 62.238281 89.761719 63.621094 89.761719 65.480469 C 89.777344 66.351562 89.671875 67.222656 89.453125 68.066406 C 89.273438 68.761719 88.945312 69.40625 88.488281 69.960938 C 88.039062 70.484375 87.464844 70.890625 86.820312 71.136719 C 86.054688 71.421875 85.242188 71.5625 84.425781 71.542969 L 80.613281 71.542969 L 80.613281 59.964844 Z M 84.550781 70.246094 C 84.757812 70.242188 84.964844 70.230469 85.171875 70.207031 C 85.445312 70.171875 85.710938 70.109375 85.964844 70.011719 C 86.261719 69.902344 86.542969 69.75 86.800781 69.566406 C 87.09375 69.351562 87.34375 69.082031 87.539062 68.769531 C 87.78125 68.382812 87.960938 67.957031 88.074219 67.515625 C 88.226562 66.917969 88.296875 66.304688 88.285156 65.691406 C 88.292969 65.066406 88.226562 64.441406 88.089844 63.835938 C 87.980469 63.328125 87.761719 62.855469 87.453125 62.441406 C 87.152344 62.054688 86.761719 61.75 86.308594 61.5625 C 85.757812 61.347656 85.171875 61.246094 84.582031 61.265625 L 82.089844 61.265625 L 82.089844 70.246094 Z M 84.550781 70.246094 "/>
<path style=" stroke:none;fill-rule:nonzero;fill:rgb(0%,29.019608%,61.176471%);fill-opacity:1;" d="M 103.703125 61.605469 C 103.117188 61.1875 102.410156 60.96875 101.6875 60.988281 C 101.097656 60.972656 100.507812 61.105469 99.984375 61.378906 C 99.519531 61.628906 99.121094 61.988281 98.816406 62.421875 C 98.503906 62.878906 98.273438 63.386719 98.140625 63.921875 C 97.992188 64.496094 97.921875 65.082031 97.921875 65.671875 C 97.917969 66.304688 97.992188 66.933594 98.140625 67.546875 C 98.269531 68.097656 98.496094 68.621094 98.816406 69.085938 C 99.121094 69.523438 99.523438 69.882812 99.992188 70.132812 C 100.523438 70.40625 101.113281 70.539062 101.707031 70.523438 C 102.152344 70.53125 102.59375 70.445312 103.003906 70.273438 C 103.375 70.109375 103.710938 69.871094 103.984375 69.574219 C 104.265625 69.265625 104.488281 68.90625 104.632812 68.511719 C 104.789062 68.085938 104.886719 67.636719 104.910156 67.183594 L 106.390625 67.183594 C 106.246094 68.640625 105.761719 69.777344 104.941406 70.585938 C 104.121094 71.398438 103 71.804688 101.578125 71.800781 C 100.800781 71.820312 100.027344 71.660156 99.320312 71.339844 C 98.695312 71.046875 98.148438 70.609375 97.71875 70.066406 C 97.277344 69.496094 96.953125 68.847656 96.761719 68.15625 C 96.542969 67.382812 96.4375 66.585938 96.441406 65.785156 C 96.4375 64.984375 96.550781 64.183594 96.785156 63.414062 C 96.992188 62.707031 97.332031 62.050781 97.789062 61.472656 C 98.234375 60.921875 98.796875 60.472656 99.4375 60.167969 C 100.148438 59.839844 100.921875 59.675781 101.703125 59.691406 C 102.261719 59.6875 102.816406 59.769531 103.351562 59.933594 C 103.851562 60.085938 104.320312 60.328125 104.738281 60.648438 C 105.148438 60.96875 105.492188 61.367188 105.75 61.824219 C 106.03125 62.328125 106.210938 62.878906 106.277344 63.453125 L 104.800781 63.453125 C 104.6875 62.71875 104.292969 62.054688 103.703125 61.605469 Z M 103.703125 61.605469 "/>
<path style=" stroke:none;fill-rule:nonzero;fill:rgb(0%,29.019608%,61.176471%);fill-opacity:1;" d="M 112.148438 59.964844 L 116.492188 71.542969 L 114.855469 71.542969 L 113.644531 68.054688 L 108.941406 68.054688 L 107.699219 71.542969 L 106.1875 71.542969 L 110.515625 59.964844 Z M 113.175781 66.757812 L 111.324219 61.359375 L 111.292969 61.359375 L 109.410156 66.757812 Z M 113.175781 66.757812 "/>
<path style=" stroke:none;fill-rule:nonzero;fill:rgb(0%,29.019608%,61.176471%);fill-opacity:1;" d="M 122.808594 59.964844 C 123.710938 59.914062 124.597656 60.203125 125.292969 60.777344 C 125.902344 61.351562 126.230469 62.164062 126.1875 63 C 126.199219 63.644531 126.042969 64.28125 125.726562 64.847656 C 125.402344 65.390625 124.871094 65.78125 124.257812 65.933594 L 124.257812 65.964844 C 124.539062 66.015625 124.808594 66.125 125.042969 66.289062 C 125.238281 66.4375 125.402344 66.621094 125.523438 66.832031 C 125.648438 67.054688 125.738281 67.292969 125.789062 67.539062 C 125.847656 67.804688 125.890625 68.078125 125.921875 68.347656 C 125.941406 68.628906 125.957031 68.917969 125.96875 69.207031 C 125.976562 69.496094 126.003906 69.785156 126.046875 70.070312 C 126.085938 70.339844 126.144531 70.609375 126.226562 70.871094 C 126.296875 71.113281 126.417969 71.34375 126.574219 71.542969 L 124.925781 71.542969 C 124.8125 71.402344 124.738281 71.234375 124.714844 71.054688 C 124.675781 70.828125 124.652344 70.597656 124.644531 70.367188 C 124.636719 70.113281 124.625 69.839844 124.613281 69.550781 C 124.605469 69.261719 124.574219 68.972656 124.519531 68.691406 C 124.480469 68.410156 124.429688 68.140625 124.367188 67.886719 C 124.308594 67.648438 124.210938 67.421875 124.070312 67.222656 C 123.933594 67.03125 123.75 66.875 123.539062 66.769531 C 123.265625 66.644531 122.96875 66.585938 122.667969 66.597656 L 119.058594 66.597656 L 119.058594 71.542969 L 117.582031 71.542969 L 117.582031 59.964844 Z M 123.121094 65.21875 C 123.410156 65.171875 123.691406 65.066406 123.9375 64.902344 C 124.175781 64.742188 124.367188 64.527344 124.496094 64.269531 C 124.648438 63.949219 124.722656 63.597656 124.707031 63.242188 C 124.730469 62.726562 124.5625 62.21875 124.242188 61.816406 C 123.929688 61.449219 123.425781 61.265625 122.730469 61.261719 L 119.058594 61.261719 L 119.058594 65.300781 L 122.140625 65.300781 C 122.46875 65.300781 122.796875 65.273438 123.121094 65.21875 Z M 123.121094 65.21875 "/>
<path style=" stroke:none;fill-rule:nonzero;fill:rgb(0%,29.019608%,61.176471%);fill-opacity:1;" d="M 133.804688 61.546875 C 133.253906 61.15625 132.589844 60.960938 131.914062 60.988281 C 131.605469 60.988281 131.296875 61.019531 130.996094 61.085938 C 130.710938 61.144531 130.4375 61.253906 130.195312 61.410156 C 129.960938 61.5625 129.765625 61.769531 129.632812 62.015625 C 129.484375 62.308594 129.414062 62.636719 129.421875 62.964844 C 129.410156 63.28125 129.515625 63.59375 129.726562 63.832031 C 129.953125 64.070312 130.230469 64.257812 130.535156 64.375 C 130.90625 64.527344 131.289062 64.644531 131.679688 64.726562 C 132.101562 64.816406 132.535156 64.917969 132.976562 65.023438 C 133.417969 65.132812 133.851562 65.261719 134.277344 65.40625 C 134.6875 65.542969 135.074219 65.742188 135.421875 65.996094 C 135.761719 66.246094 136.035156 66.566406 136.230469 66.9375 C 136.667969 67.902344 136.632812 69.011719 136.140625 69.945312 C 135.882812 70.375 135.535156 70.738281 135.121094 71.015625 C 134.695312 71.296875 134.222656 71.5 133.726562 71.617188 C 133.226562 71.738281 132.710938 71.800781 132.195312 71.800781 C 131.597656 71.804688 131 71.722656 130.425781 71.558594 C 129.898438 71.410156 129.398438 71.160156 128.964844 70.820312 C 128.539062 70.484375 128.195312 70.050781 127.96875 69.558594 C 127.710938 68.984375 127.585938 68.359375 127.601562 67.734375 L 129.003906 67.734375 C 128.992188 68.167969 129.085938 68.597656 129.277344 68.988281 C 129.445312 69.328125 129.691406 69.625 129.992188 69.855469 C 130.300781 70.089844 130.652344 70.261719 131.027344 70.359375 C 131.421875 70.46875 131.832031 70.523438 132.238281 70.523438 C 132.578125 70.523438 132.914062 70.488281 133.242188 70.425781 C 133.5625 70.367188 133.871094 70.253906 134.152344 70.09375 C 134.421875 69.9375 134.648438 69.71875 134.808594 69.453125 C 134.984375 69.136719 135.070312 68.777344 135.058594 68.414062 C 135.074219 68.0625 134.96875 67.71875 134.753906 67.441406 C 134.535156 67.179688 134.257812 66.96875 133.945312 66.832031 C 133.578125 66.664062 133.195312 66.539062 132.800781 66.449219 C 132.375 66.355469 131.941406 66.253906 131.503906 66.152344 C 131.0625 66.046875 130.628906 65.929688 130.203125 65.792969 C 129.800781 65.667969 129.414062 65.488281 129.058594 65.257812 C 128.726562 65.042969 128.449219 64.746094 128.25 64.398438 C 128.035156 63.992188 127.929688 63.539062 127.949219 63.078125 C 127.933594 62.554688 128.050781 62.03125 128.289062 61.5625 C 128.507812 61.148438 128.820312 60.785156 129.199219 60.507812 C 129.589844 60.226562 130.027344 60.019531 130.492188 59.894531 C 130.976562 59.757812 131.476562 59.691406 131.980469 59.691406 C 132.515625 59.6875 133.050781 59.757812 133.566406 59.902344 C 134.035156 60.035156 134.472656 60.257812 134.851562 60.566406 C 135.222656 60.875 135.523438 61.265625 135.722656 61.710938 C 135.949219 62.230469 136.066406 62.789062 136.070312 63.355469 L 134.671875 63.355469 C 134.652344 62.65625 134.339844 62 133.804688 61.546875 Z M 133.804688 61.546875 "/>
<path style=" stroke:none;fill-rule:nonzero;fill:rgb(20%,64.313725%,21.568627%);fill-opacity:1;" d="M 47.777344 68.585938 L 22.941406 68.585938 C 17.132812 68.585938 12.402344 64.457031 12.402344 59.382812 L 12.402344 32.714844 C 12.402344 27.640625 17.128906 23.515625 22.941406 23.515625 L 32.109375 23.515625 L 36.117188 26.246094 L 22.941406 26.246094 C 18.636719 26.246094 15.132812 29.148438 15.132812 32.714844 L 15.132812 59.382812 C 15.132812 62.949219 18.636719 65.851562 22.941406 65.851562 L 47.777344 65.851562 Z M 47.777344 68.585938 "/>
<path style=" stroke:none;fill-rule:nonzero;fill:rgb(20%,64.313725%,21.568627%);fill-opacity:1;" d="M 148.777344 68.585938 L 138.882812 68.585938 L 138.882812 65.851562 L 148.777344 65.851562 C 153.082031 65.851562 156.585938 62.949219 156.585938 59.382812 L 156.585938 32.714844 C 156.585938 29.148438 153.082031 26.246094 148.777344 26.246094 L 48.023438 26.246094 L 52.03125 23.515625 L 148.777344 23.515625 C 154.589844 23.515625 159.320312 27.640625 159.320312 32.714844 L 159.320312 59.382812 C 159.320312 64.457031 154.589844 68.585938 148.777344 68.585938 Z M 148.777344 68.585938 "/>
<path style=" stroke:none;fill-rule:nonzero;fill:rgb(10.196078%,9.411765%,9.411765%);fill-opacity:1;" d="M 58.761719 77.75 L 57.503906 85.988281 L 55.316406 85.988281 L 54.300781 79.535156 L 53.257812 85.988281 L 51.117188 85.988281 L 49.859375 77.75 L 51.597656 77.75 L 52.332031 84.25 L 53.304688 77.75 L 55.421875 77.75 L 56.382812 84.226562 L 57.230469 77.75 Z M 58.761719 77.75 "/>
<path style=" stroke:none;fill-rule:nonzero;fill:rgb(10.196078%,9.411765%,9.411765%);fill-opacity:1;" d="M 61.679688 77.75 L 61.679688 85.988281 L 59.964844 85.988281 L 59.964844 77.75 Z M 61.679688 77.75 "/>
<path style=" stroke:none;fill-rule:nonzero;fill:rgb(10.196078%,9.411765%,9.411765%);fill-opacity:1;" d="M 68.589844 79.101562 L 66.554688 79.101562 L 66.554688 85.988281 L 64.839844 85.988281 L 64.839844 79.101562 L 62.824219 79.101562 L 62.824219 77.75 L 68.589844 77.75 Z M 68.589844 79.101562 "/>
<path style=" stroke:none;fill-rule:nonzero;fill:rgb(10.196078%,9.411765%,9.411765%);fill-opacity:1;" d="M 75.398438 77.75 L 75.398438 85.988281 L 73.683594 85.988281 L 73.683594 82.441406 L 71.453125 82.441406 L 71.453125 85.988281 L 69.734375 85.988281 L 69.734375 77.75 L 71.453125 77.75 L 71.453125 81.207031 L 73.683594 81.207031 L 73.683594 77.75 Z M 75.398438 77.75 "/>
<path style=" stroke:none;fill-rule:nonzero;fill:rgb(10.196078%,9.411765%,9.411765%);fill-opacity:1;" d="M 88.820312 77.75 L 87.5625 85.988281 L 85.378906 85.988281 L 84.359375 79.535156 L 83.316406 85.988281 L 81.175781 85.988281 L 79.917969 77.75 L 81.660156 77.75 L 82.390625 84.25 L 83.363281 77.75 L 85.480469 77.75 L 86.441406 84.226562 L 87.289062 77.75 Z M 88.820312 77.75 "/>
<path style=" stroke:none;fill-rule:nonzero;fill:rgb(10.196078%,9.411765%,9.411765%);fill-opacity:1;" d="M 94.109375 85.988281 L 93.605469 84.078125 L 91.0625 84.078125 L 90.558594 85.988281 L 88.878906 85.988281 L 91.40625 77.75 L 93.363281 77.75 L 95.925781 85.988281 Z M 91.382812 82.910156 L 93.296875 82.910156 L 92.347656 79.308594 Z M 91.382812 82.910156 "/>
<path style=" stroke:none;fill-rule:nonzero;fill:rgb(10.196078%,9.411765%,9.411765%);fill-opacity:1;" d="M 100.777344 85.988281 L 99.167969 82.933594 L 98.617188 82.933594 L 98.617188 85.988281 L 96.902344 85.988281 L 96.902344 77.75 L 99.167969 77.75 C 99.574219 77.746094 99.980469 77.792969 100.378906 77.882812 C 100.730469 77.960938 101.0625 78.109375 101.351562 78.316406 C 101.632812 78.523438 101.855469 78.796875 102 79.113281 C 102.167969 79.5 102.246094 79.917969 102.234375 80.335938 C 102.238281 80.617188 102.203125 80.894531 102.125 81.167969 C 102.0625 81.390625 101.960938 81.601562 101.828125 81.796875 C 101.703125 81.972656 101.550781 82.128906 101.375 82.253906 C 101.199219 82.382812 101.007812 82.488281 100.804688 82.578125 L 102.773438 85.988281 Z M 98.617188 78.984375 L 98.617188 81.710938 L 99.257812 81.710938 C 99.398438 81.710938 99.539062 81.6875 99.675781 81.640625 C 99.816406 81.597656 99.949219 81.519531 100.058594 81.417969 C 100.179688 81.300781 100.277344 81.160156 100.339844 81 C 100.417969 80.789062 100.453125 80.5625 100.445312 80.335938 C 100.453125 80.101562 100.417969 79.867188 100.34375 79.644531 C 100.289062 79.484375 100.191406 79.34375 100.0625 79.234375 C 99.945312 79.136719 99.804688 79.070312 99.65625 79.039062 C 99.503906 79.003906 99.34375 78.988281 99.1875 78.988281 Z M 98.617188 78.984375 "/>
<path style=" stroke:none;fill-rule:nonzero;fill:rgb(10.196078%,9.411765%,9.411765%);fill-opacity:1;" d="M 107.679688 85.988281 L 106.066406 82.933594 L 105.515625 82.933594 L 105.515625 85.988281 L 103.800781 85.988281 L 103.800781 77.75 L 106.066406 77.75 C 106.472656 77.746094 106.878906 77.792969 107.277344 77.882812 C 107.628906 77.960938 107.960938 78.109375 108.25 78.316406 C 108.53125 78.523438 108.753906 78.796875 108.898438 79.113281 C 109.160156 79.765625 109.203125 80.484375 109.023438 81.167969 C 108.957031 81.390625 108.859375 81.601562 108.726562 81.796875 C 108.601562 81.972656 108.449219 82.128906 108.273438 82.253906 C 108.09375 82.382812 107.902344 82.488281 107.703125 82.578125 L 109.671875 85.988281 Z M 105.515625 78.984375 L 105.515625 81.710938 L 106.15625 81.710938 C 106.296875 81.710938 106.441406 81.6875 106.574219 81.640625 C 106.714844 81.59375 106.847656 81.519531 106.957031 81.417969 C 107.082031 81.300781 107.175781 81.15625 107.238281 81 C 107.316406 80.785156 107.351562 80.5625 107.34375 80.335938 C 107.351562 80.101562 107.316406 79.867188 107.242188 79.644531 C 107.1875 79.484375 107.089844 79.34375 106.964844 79.234375 C 106.84375 79.136719 106.707031 79.070312 106.558594 79.039062 C 106.402344 79.003906 106.246094 78.988281 106.085938 78.988281 Z M 105.515625 78.984375 "/>
<path style=" stroke:none;fill-rule:nonzero;fill:rgb(10.196078%,9.411765%,9.411765%);fill-opacity:1;" d="M 115.070312 85.988281 L 114.566406 84.078125 L 112.027344 84.078125 L 111.523438 85.988281 L 109.839844 85.988281 L 112.367188 77.75 L 114.324219 77.75 L 116.886719 85.988281 Z M 112.347656 82.910156 L 114.257812 82.910156 L 113.308594 79.308594 Z M 112.347656 82.910156 "/>
<path style=" stroke:none;fill-rule:nonzero;fill:rgb(10.196078%,9.411765%,9.411765%);fill-opacity:1;" d="M 123.675781 77.75 L 123.675781 85.988281 L 121.640625 85.988281 L 119.304688 80.007812 L 119.304688 85.992188 L 117.863281 85.992188 L 117.863281 77.75 L 120.046875 77.75 L 122.246094 83.65625 L 122.246094 77.75 Z M 123.675781 77.75 "/>
<path style=" stroke:none;fill-rule:nonzero;fill:rgb(10.196078%,9.411765%,9.411765%);fill-opacity:1;" d="M 130.585938 79.101562 L 128.550781 79.101562 L 128.550781 85.988281 L 126.832031 85.988281 L 126.832031 79.101562 L 124.816406 79.101562 L 124.816406 77.75 L 130.582031 77.75 Z M 130.585938 79.101562 "/>
<path style=" stroke:none;fill-rule:nonzero;fill:rgb(10.196078%,9.411765%,9.411765%);fill-opacity:1;" d="M 137.191406 77.75 L 134.855469 82.695312 L 134.855469 85.988281 L 133.253906 85.988281 L 133.253906 82.695312 L 130.875 77.75 L 132.726562 77.75 L 134.097656 81.058594 L 135.585938 77.75 Z M 137.191406 77.75 "/>
</g>
</svg>
