<svg id="Layer_1" data-name="Layer 1" xmlns="http://www.w3.org/2000/svg" xmlns:xlink="http://www.w3.org/1999/xlink" viewBox="0 0 229 115"><defs><style>.cls-1{fill:none;}.cls-2{clip-path:url(#clip-path);}.cls-3{isolation:isolate;}.cls-4{fill:#025ba9;}.cls-5{fill:#f92524;}.cls-6{fill:url(#linear-gradient);}</style><clipPath id="clip-path"><rect class="cls-1" width="229" height="115"/></clipPath><linearGradient id="linear-gradient" x1="-187.69" y1="449.49" x2="-187.69" y2="448.49" gradientTransform="matrix(68, 0, 0, -75, 12837, 33734)" gradientUnits="userSpaceOnUse"><stop offset="0" stop-color="#f92524"/><stop offset="1" stop-color="#025ba9"/></linearGradient></defs><title>Artboard 1</title><g class="cls-2"><g id="CS"><g id="Group_3157" data-name="Group 3157"><g id="Cu_tomer" data-name="Cu tomer" class="cls-3"><g class="cls-3"><path class="cls-4" d="M13.44,47.91a2.91,2.91,0,0,0,2.47-1.16,5.33,5.33,0,0,0,1-3l4.94.53a11.41,11.41,0,0,1-.7,2.5,7.62,7.62,0,0,1-1.56,2.4A8.42,8.42,0,0,1,17,51a8.91,8.91,0,0,1-3.76.72,10.66,10.66,0,0,1-3.33-.55,6.76,6.76,0,0,1-2.94-2,11.16,11.16,0,0,1-2.1-4,22.53,22.53,0,0,1-.8-6.55,21.41,21.41,0,0,1,.82-6.47,10.87,10.87,0,0,1,2.16-4,7.12,7.12,0,0,1,3.06-2.05,11.12,11.12,0,0,1,3.51-.57,8,8,0,0,1,3.35.64,7.87,7.87,0,0,1,2.4,1.67,7.48,7.48,0,0,1,1.52,2.27,11.11,11.11,0,0,1,.75,2.48l-4.86.6a12,12,0,0,0-.37-1.54,4.36,4.36,0,0,0-.61-1.22,2.9,2.9,0,0,0-.95-.83,2.78,2.78,0,0,0-1.33-.3,3,3,0,0,0-1.51.42,3.78,3.78,0,0,0-1.25,1.48A9.39,9.39,0,0,0,9.91,34,27.63,27.63,0,0,0,9.6,38.6a29,29,0,0,0,.29,4.6,10.79,10.79,0,0,0,.81,2.86,3.32,3.32,0,0,0,1.2,1.45A3,3,0,0,0,13.44,47.91Z"/><path class="cls-4" d="M31.33,32.3V44.76a4.73,4.73,0,0,0,.49,2.4,2.21,2.21,0,0,0,2.06.82,3.19,3.19,0,0,0,1.58-.39,5.46,5.46,0,0,0,1.29-1V32.3h4.9V51.2H38.33l-1.08-2.28a5.91,5.91,0,0,1-2,1.93,6.06,6.06,0,0,1-3,.7A5.46,5.46,0,0,1,28,49.87c-1-1.12-1.57-2.89-1.57-5.32V32.3Z"/><path class="cls-4" d="M123,51a15.33,15.33,0,0,1-1.52.29,12.21,12.21,0,0,1-1.67.13,7.11,7.11,0,0,1-2.17-.32,4.45,4.45,0,0,1-1.69-1,4.39,4.39,0,0,1-1.12-1.71,7,7,0,0,1-.41-2.52V35.8h-2.8V32.3h2.84l.31-4.55h4.55V32.3H123v3.5h-3.64V46.09a1.87,1.87,0,0,0,.18.89,1.36,1.36,0,0,0,.44.53,1.5,1.5,0,0,0,.59.26,2.94,2.94,0,0,0,.65.07,6.54,6.54,0,0,0,.91-.07l.91-.14Z"/><path class="cls-4" d="M126.46,41.75a13.64,13.64,0,0,1,.73-4.83,8.29,8.29,0,0,1,1.93-3.06,6.72,6.72,0,0,1,2.69-1.61,10,10,0,0,1,3.05-.47,10.56,10.56,0,0,1,3,.45,6.41,6.41,0,0,1,2.68,1.59,8.39,8.39,0,0,1,1.91,3.06,13.84,13.84,0,0,1,.73,4.87,13.49,13.49,0,0,1-.73,4.83,8,8,0,0,1-1.91,3,6.4,6.4,0,0,1-2.68,1.54,10.76,10.76,0,0,1-6.09,0,6.59,6.59,0,0,1-2.69-1.55,8.11,8.11,0,0,1-1.93-3A13.3,13.3,0,0,1,126.46,41.75Zm5,0a17.84,17.84,0,0,0,.23,3.24,5.59,5.59,0,0,0,.68,2,2.26,2.26,0,0,0,1.07,1,3.82,3.82,0,0,0,1.41.25,3.88,3.88,0,0,0,1.4-.25,2.12,2.12,0,0,0,1.05-.95A5.77,5.77,0,0,0,138,45a19,19,0,0,0,.23-3.27,19.7,19.7,0,0,0-.23-3.31,6.06,6.06,0,0,0-.66-2,2.37,2.37,0,0,0-1.07-1,3.71,3.71,0,0,0-1.4-.26,3.33,3.33,0,0,0-1.42.28,2.47,2.47,0,0,0-1.05,1,6.21,6.21,0,0,0-.66,2A18.36,18.36,0,0,0,131.5,41.75Z"/><path class="cls-4" d="M148.4,51.2V32.3h3.33l1.05,2.28a6.24,6.24,0,0,1,2.05-2.07,5.64,5.64,0,0,1,3-.73,5.92,5.92,0,0,1,2.92.68,4.55,4.55,0,0,1,1.94,2.15,6.69,6.69,0,0,1,2.23-2.08,6.1,6.1,0,0,1,3.09-.75,5.39,5.39,0,0,1,4.1,1.59q1.5,1.59,1.5,5.23V51.2h-4.9V38.46a5,5,0,0,0-.42-2.34c-.28-.52-.94-.78-2-.78a2.86,2.86,0,0,0-1.58.49,8.58,8.58,0,0,0-1.4,1.2,11.05,11.05,0,0,1,.11,1.57V51.2h-4.9V38.46a5,5,0,0,0-.42-2.34c-.28-.52-.95-.78-2-.78a2.87,2.87,0,0,0-1.5.43,5.46,5.46,0,0,0-1.3,1.08V51.2Z"/><path class="cls-4" d="M187,48a2.6,2.6,0,0,0,1.88-.67,3.19,3.19,0,0,0,.89-1.68l4.44.7a7.38,7.38,0,0,1-.84,1.87,6.25,6.25,0,0,1-1.47,1.67,7.2,7.2,0,0,1-2.18,1.18,9.56,9.56,0,0,1-6-.06,6.45,6.45,0,0,1-2.52-1.69,7.94,7.94,0,0,1-1.72-3,14.45,14.45,0,0,1-.63-4.57,15.7,15.7,0,0,1,.61-4.67,8.19,8.19,0,0,1,1.7-3.08,6.51,6.51,0,0,1,2.52-1.7,8.93,8.93,0,0,1,3.08-.52,8.11,8.11,0,0,1,3.71.75,5.88,5.88,0,0,1,2.37,2.22A10.47,10.47,0,0,1,194,38.34a29.18,29.18,0,0,1,.36,4.85h-10.6a10.65,10.65,0,0,0,.4,2.41,4.81,4.81,0,0,0,.72,1.49,2.14,2.14,0,0,0,.94.73A3.22,3.22,0,0,0,187,48Zm-.14-13.1a3.46,3.46,0,0,0-1.12.18,2,2,0,0,0-.94.72,4.34,4.34,0,0,0-.7,1.54,11.18,11.18,0,0,0-.35,2.6h6.09a12.14,12.14,0,0,0-.27-2.44,4.56,4.56,0,0,0-.62-1.56,2.21,2.21,0,0,0-.93-.81A2.93,2.93,0,0,0,186.83,34.92Z"/><path class="cls-4" d="M199.36,51.2V32.3h3.33l1.05,2.7a6.08,6.08,0,0,1,1.71-2.26,3.56,3.56,0,0,1,2.24-.79,4.26,4.26,0,0,1,1.19.14v4.76a4.54,4.54,0,0,0-.66-.16,6.78,6.78,0,0,0-.84,0,2.78,2.78,0,0,0-1.74.61,6.17,6.17,0,0,0-1.38,1.56V51.2Z"/></g></g><path id="Path_13044" data-name="Path 13044" class="cls-5" d="M73.9,88.76,48.09,68.71s11-9,20.13-2.1L80.49,76l1.5-1.1L48.18,48.56a95.49,95.49,0,0,0,15.47-9.07A122.17,122.17,0,0,0,74.2,30.65L100.42,51s-11.78,8.77-20,2.34-12.68-9.69-12.68-9.69l-1.43,1.07,33.92,26.41s-4.87,1.57-14.3,8C77.47,84.89,73.9,88.76,73.9,88.76Z"/><g id="ervices" class="cls-3"><g class="cls-3"><path class="cls-5" d="M113.82,84.28a2.65,2.65,0,0,0,1.92-.68,3.24,3.24,0,0,0,.92-1.73l4.57.72a8.41,8.41,0,0,1-.86,1.93,6.73,6.73,0,0,1-1.51,1.71,7.8,7.8,0,0,1-2.25,1.22,9.28,9.28,0,0,1-3.08.47,9,9,0,0,1-3.13-.54,6.71,6.71,0,0,1-2.6-1.73A8.4,8.4,0,0,1,106,82.54a14.93,14.93,0,0,1-.65-4.7A15.9,15.9,0,0,1,106,73a8.31,8.31,0,0,1,1.75-3.17,6.6,6.6,0,0,1,2.59-1.74,9.14,9.14,0,0,1,3.17-.54,8.39,8.39,0,0,1,3.81.77,6.1,6.1,0,0,1,2.44,2.29,10.56,10.56,0,0,1,1.29,3.69,29.51,29.51,0,0,1,.38,5H110.54A10.67,10.67,0,0,0,111,81.8a4.74,4.74,0,0,0,.73,1.53,2.16,2.16,0,0,0,1,.75A3.09,3.09,0,0,0,113.82,84.28Zm-.15-13.46a3.6,3.6,0,0,0-1.15.18,2,2,0,0,0-1,.74,4.57,4.57,0,0,0-.72,1.58,12.41,12.41,0,0,0-.36,2.68h6.26a12.13,12.13,0,0,0-.27-2.52,4.68,4.68,0,0,0-.64-1.6,2.33,2.33,0,0,0-1-.83A3.08,3.08,0,0,0,113.67,70.82Z"/><path class="cls-5" d="M126.56,87.56V68.12H130l1.08,2.77a6.23,6.23,0,0,1,1.77-2.32,3.65,3.65,0,0,1,2.3-.81,4.49,4.49,0,0,1,1.22.14v4.9a3.56,3.56,0,0,0-.68-.16,5.39,5.39,0,0,0-.87-.06,2.85,2.85,0,0,0-1.78.63,6.31,6.31,0,0,0-1.42,1.6V87.56Z"/><path class="cls-5" d="M156,68.12l-5.75,19.44h-6.56L138,68.12h5.44l3.81,15.37,3.71-15.37Z"/><path class="cls-5" d="M159.43,65.6V61.1h5.47v4.5Zm.21,22V68.12h5V87.56Z"/><path class="cls-5" d="M178.18,71.11a2.82,2.82,0,0,0-1.06.21,2.18,2.18,0,0,0-1,.92,6.13,6.13,0,0,0-.69,2,20.13,20.13,0,0,0-.25,3.51,17,17,0,0,0,.29,3.49,6.61,6.61,0,0,0,.72,2,2.13,2.13,0,0,0,1,.91,2.71,2.71,0,0,0,1,.22,2.31,2.31,0,0,0,1.17-.29,2.46,2.46,0,0,0,.79-.75,3.93,3.93,0,0,0,.47-1.1,10.67,10.67,0,0,0,.23-1.32l5,.58a11,11,0,0,1-.72,2.29,6.93,6.93,0,0,1-1.42,2,7.15,7.15,0,0,1-2.29,1.49,8.29,8.29,0,0,1-3.28.58,10.19,10.19,0,0,1-3.09-.47,6.12,6.12,0,0,1-2.61-1.64,8.11,8.11,0,0,1-1.8-3.15,15.74,15.74,0,0,1-.67-5,15.91,15.91,0,0,1,.61-4.7,8.2,8.2,0,0,1,1.71-3.11,6.47,6.47,0,0,1,2.6-1.73,9.38,9.38,0,0,1,3.22-.54,8.88,8.88,0,0,1,3.44.59,6.29,6.29,0,0,1,3.54,3.58,8.33,8.33,0,0,1,.54,2.13l-4.79.72Q180.75,71.1,178.18,71.11Z"/><path class="cls-5" d="M198.34,84.28a2.67,2.67,0,0,0,1.93-.68,3.31,3.31,0,0,0,.92-1.73l4.57.72a8.41,8.41,0,0,1-.86,1.93,6.78,6.78,0,0,1-1.52,1.71,7.55,7.55,0,0,1-2.25,1.22,9.81,9.81,0,0,1-6.21-.07,6.75,6.75,0,0,1-2.59-1.73,8.4,8.4,0,0,1-1.76-3.11,14.93,14.93,0,0,1-.65-4.7,15.9,15.9,0,0,1,.63-4.81,8.31,8.31,0,0,1,1.75-3.17,6.52,6.52,0,0,1,2.59-1.74,9.14,9.14,0,0,1,3.17-.54,8.42,8.42,0,0,1,3.81.77,6,6,0,0,1,2.43,2.29,10.56,10.56,0,0,1,1.3,3.69,29.51,29.51,0,0,1,.38,5H195.07a11.29,11.29,0,0,0,.41,2.49,5,5,0,0,0,.74,1.53,2.19,2.19,0,0,0,1,.75A3.16,3.16,0,0,0,198.34,84.28Zm-.14-13.46a3.6,3.6,0,0,0-1.15.18,2,2,0,0,0-1,.74,4.57,4.57,0,0,0-.72,1.58A11.27,11.27,0,0,0,195,76h6.26a12.13,12.13,0,0,0-.27-2.52,4.68,4.68,0,0,0-.65-1.6,2.25,2.25,0,0,0-1-.83A3.08,3.08,0,0,0,198.2,70.82Z"/><path class="cls-5" d="M217.6,87.92a9.61,9.61,0,0,1-3-.45,7.88,7.88,0,0,1-2.3-1.17,6.24,6.24,0,0,1-1.55-1.66,5.31,5.31,0,0,1-.77-1.87l4.86-1a3,3,0,0,0,.95,1.87,2.79,2.79,0,0,0,1.93.68,3.12,3.12,0,0,0,1.83-.48,1.71,1.71,0,0,0,.69-1.5,1.65,1.65,0,0,0-.24-.91,2.08,2.08,0,0,0-.72-.69,6.15,6.15,0,0,0-1.2-.56c-.48-.16-1.06-.36-1.73-.57a20,20,0,0,1-2.4-.88,6.74,6.74,0,0,1-1.81-1.21,4.81,4.81,0,0,1-1.16-1.71,6.54,6.54,0,0,1-.39-2.39,5.77,5.77,0,0,1,.54-2.58A5.06,5.06,0,0,1,212.6,69a6.48,6.48,0,0,1,2.32-1.1,11.51,11.51,0,0,1,3-.36,9.08,9.08,0,0,1,3,.45A6.94,6.94,0,0,1,223,69.2a6.14,6.14,0,0,1,1.39,1.6,6.66,6.66,0,0,1,.73,1.75l-4.71.93a3.5,3.5,0,0,0-.76-1.69,2.24,2.24,0,0,0-1.83-.68,2.62,2.62,0,0,0-1.64.48,1.74,1.74,0,0,0-.63,1.46,1.66,1.66,0,0,0,.27,1,2.22,2.22,0,0,0,.72.63,5.22,5.22,0,0,0,1.1.45l1.4.45c.82.26,1.6.54,2.36.83a8.14,8.14,0,0,1,2,1.08,4.82,4.82,0,0,1,1.35,1.64,5.64,5.64,0,0,1,.5,2.53,6.43,6.43,0,0,1-.57,2.81,5.28,5.28,0,0,1-1.61,2,7.17,7.17,0,0,1-2.43,1.13A11.76,11.76,0,0,1,217.6,87.92Z"/></g></g><path id="Subtraction_25" data-name="Subtraction 25" class="cls-6" d="M108,97H40V54.88h2.27V94.94h63.46V90.83H108Zm-2.27-32.88V24.05H42.27v4.11H40V22h68V64.12Z"/></g></g></g></svg>