<?xml version="1.0" encoding="UTF-8"?>
<svg xmlns="http://www.w3.org/2000/svg" xmlns:xlink="http://www.w3.org/1999/xlink" width="172pt" height="86pt" viewBox="0 0 172 86" version="1.1">
<g id="surface1">
<path style=" stroke:none;fill-rule:nonzero;fill:rgb(0%,29.019608%,61.176471%);fill-opacity:1;" d="M 32.003906 43.347656 L 23.554688 55.808594 L 17.878906 54.765625 L 24.097656 43.09375 L 17.523438 29.570312 L 23.125 28.421875 L 32.007812 43.347656 Z M 32.003906 43.347656 "/>
<path style=" stroke:none;fill-rule:nonzero;fill:rgb(64.313725%,76.862745%,13.333333%);fill-opacity:1;" d="M 29.355469 38.902344 L 37.832031 53.140625 L 43.535156 52.269531 L 37.261719 38.886719 L 43.027344 27.253906 L 37.457031 25.9375 Z M 29.355469 38.902344 "/>
<path style=" stroke:none;fill-rule:nonzero;fill:rgb(10.196078%,9.411765%,9.411765%);fill-opacity:1;" d="M 0.640625 52.085938 L 0.640625 30.6875 L 16.945312 30.6875 L 16.945312 34.835938 L 6.570312 34.835938 L 6.570312 39.253906 L 16.113281 39.253906 L 16.113281 43.402344 L 6.570312 43.402344 L 6.570312 47.9375 L 16.945312 47.9375 L 16.945312 52.085938 Z M 0.640625 52.085938 "/>
<path style=" stroke:none;fill-rule:nonzero;fill:rgb(10.196078%,9.411765%,9.411765%);fill-opacity:1;" d="M 57.242188 37.683594 C 57.28125 36.753906 56.875 35.863281 56.144531 35.285156 C 55.410156 34.710938 54.433594 34.421875 53.207031 34.421875 C 51.808594 34.339844 50.523438 35.1875 50.050781 36.507812 C 49.425781 38.132812 49.128906 39.867188 49.175781 41.609375 C 49.175781 43.539062 49.46875 45.152344 50.050781 46.445312 C 50.632812 47.734375 51.683594 48.382812 53.207031 48.382812 C 54.453125 48.382812 55.4375 48.109375 56.15625 47.566406 C 56.882812 47.019531 57.289062 46.148438 57.242188 45.238281 L 63.464844 45.238281 C 63.464844 47.75 62.480469 49.589844 60.515625 50.765625 C 58.550781 51.945312 56.113281 52.53125 53.207031 52.53125 C 49.890625 52.53125 47.351562 51.574219 45.589844 49.660156 C 43.832031 47.746094 42.953125 44.984375 42.953125 41.371094 C 42.953125 37.78125 43.828125 35.035156 45.574219 33.128906 C 47.324219 31.226562 49.867188 30.273438 53.207031 30.273438 C 56.171875 30.273438 58.625 30.855469 60.558594 32.019531 C 62.496094 33.183594 63.464844 35.070312 63.464844 37.683594 Z M 57.242188 37.683594 "/>
<path style=" stroke:none;fill-rule:nonzero;fill:rgb(10.196078%,9.411765%,9.411765%);fill-opacity:1;" d="M 64.886719 52.085938 L 64.886719 30.6875 L 70.816406 30.6875 L 70.816406 39.164062 L 78.105469 39.164062 L 78.105469 30.6875 L 84.03125 30.6875 L 84.03125 52.085938 L 78.105469 52.085938 L 78.105469 43.3125 L 70.816406 43.3125 L 70.816406 52.085938 Z M 64.886719 52.085938 "/>
<path style=" stroke:none;fill-rule:nonzero;fill:rgb(10.196078%,9.411765%,9.411765%);fill-opacity:1;" d="M 84.511719 52.085938 L 92.957031 30.6875 L 100.191406 30.6875 L 108.636719 52.085938 L 101.9375 52.085938 L 100.511719 47.90625 L 91.832031 47.90625 L 90.4375 52.085938 Z M 99.0625 43.761719 L 96.335938 34.839844 L 93.339844 43.761719 Z M 99.0625 43.761719 "/>
<path style=" stroke:none;fill-rule:nonzero;fill:rgb(10.196078%,9.411765%,9.411765%);fill-opacity:1;" d="M 109.046875 30.6875 L 117.351562 30.6875 L 124.523438 46.632812 L 124.578125 46.632812 L 124.578125 30.6875 L 129.917969 30.6875 L 129.917969 52.085938 L 121.703125 52.085938 L 114.445312 35.699219 L 114.386719 52.085938 L 109.046875 52.085938 Z M 109.046875 30.6875 "/>
<path style=" stroke:none;fill-rule:nonzero;fill:rgb(10.196078%,9.411765%,9.411765%);fill-opacity:1;" d="M 146.871094 44.054688 L 142.515625 44.054688 L 142.515625 39.90625 L 152.796875 39.90625 L 152.796875 51.371094 C 151.019531 51.648438 149.296875 51.914062 147.628906 52.160156 C 145.738281 52.421875 143.832031 52.546875 141.921875 52.53125 C 138.621094 52.53125 136.007812 51.519531 134.082031 49.496094 C 132.160156 47.472656 131.195312 44.773438 131.1875 41.402344 C 131.1875 38.007812 132.148438 35.304688 134.066406 33.292969 C 135.980469 31.28125 138.601562 30.273438 141.921875 30.273438 C 146.128906 30.273438 148.96875 30.867188 150.441406 32.050781 C 151.914062 33.234375 152.648438 34.90625 152.648438 37.0625 L 146.722656 37.0625 C 146.585938 36.09375 146.179688 35.414062 145.507812 35.015625 C 144.6875 34.585938 143.765625 34.378906 142.839844 34.421875 C 140.984375 34.421875 139.617188 35.097656 138.734375 36.449219 C 137.820312 37.933594 137.359375 39.65625 137.417969 41.402344 C 137.417969 43.570312 137.953125 45.277344 139.03125 46.519531 C 140.109375 47.761719 141.695312 48.382812 143.789062 48.382812 C 144.261719 48.386719 144.738281 48.367188 145.210938 48.320312 C 145.546875 48.28125 146.101562 48.183594 146.871094 48.023438 Z M 146.871094 44.054688 "/>
<path style=" stroke:none;fill-rule:nonzero;fill:rgb(10.196078%,9.411765%,9.411765%);fill-opacity:1;" d="M 154.992188 52.085938 L 154.992188 30.6875 L 171.292969 30.6875 L 171.292969 34.835938 L 160.917969 34.835938 L 160.917969 39.253906 L 170.460938 39.253906 L 170.460938 43.402344 L 160.917969 43.402344 L 160.917969 47.9375 L 171.292969 47.9375 L 171.292969 52.085938 Z M 154.992188 52.085938 "/>
<path style=" stroke:none;fill-rule:nonzero;fill:rgb(0%,29.019608%,61.176471%);fill-opacity:1;" d="M 51.738281 23.753906 C 51.695312 23.507812 51.519531 23.304688 51.28125 23.222656 C 50.992188 23.117188 50.683594 23.0625 50.378906 23.070312 C 49.660156 23.070312 49.300781 23.21875 49.300781 23.519531 C 49.300781 23.816406 49.921875 24.085938 51.167969 24.335938 C 52.179688 24.511719 53.175781 24.789062 54.132812 25.164062 C 54.839844 25.417969 55.292969 26.109375 55.238281 26.859375 C 55.238281 27.746094 54.796875 28.425781 53.917969 28.898438 C 53.039062 29.359375 51.867188 29.589844 50.40625 29.589844 C 49.257812 29.640625 48.117188 29.371094 47.105469 28.820312 C 46.253906 28.304688 45.832031 27.679688 45.832031 26.9375 L 49.070312 26.9375 C 49.140625 27.21875 49.335938 27.449219 49.601562 27.5625 C 49.914062 27.699219 50.25 27.765625 50.589844 27.761719 C 50.941406 27.777344 51.289062 27.726562 51.625 27.617188 C 51.871094 27.515625 51.996094 27.371094 51.996094 27.179688 C 51.996094 26.886719 51.378906 26.621094 50.148438 26.386719 C 49.132812 26.210938 48.136719 25.933594 47.179688 25.558594 C 46.453125 25.277344 46 24.550781 46.058594 23.773438 C 46.058594 22.960938 46.46875 22.335938 47.292969 21.902344 C 48.304688 21.421875 49.414062 21.195312 50.535156 21.242188 C 51.890625 21.242188 52.933594 21.472656 53.660156 21.9375 C 54.335938 22.324219 54.804688 22.988281 54.949219 23.753906 Z M 51.738281 23.753906 "/>
<path style=" stroke:none;fill-rule:nonzero;fill:rgb(0%,29.019608%,61.176471%);fill-opacity:1;" d="M 55.605469 21.453125 L 58.992188 21.453125 L 58.992188 26.195312 C 58.96875 26.582031 59.078125 26.964844 59.308594 27.277344 C 59.519531 27.527344 59.941406 27.648438 60.582031 27.648438 C 61.164062 27.648438 61.570312 27.527344 61.800781 27.277344 C 62.058594 26.976562 62.1875 26.589844 62.160156 26.195312 L 62.160156 21.453125 L 65.546875 21.453125 L 65.546875 25.933594 C 65.546875 27.195312 65.148438 28.121094 64.355469 28.707031 C 63.5625 29.296875 62.304688 29.589844 60.582031 29.589844 C 58.921875 29.589844 57.671875 29.3125 56.839844 28.753906 C 56.019531 28.1875 55.605469 27.242188 55.605469 25.921875 Z M 55.605469 21.453125 "/>
<path style=" stroke:none;fill-rule:nonzero;fill:rgb(0%,29.019608%,61.176471%);fill-opacity:1;" d="M 65.957031 29.378906 L 65.957031 27.496094 L 70.90625 23.300781 L 66.15625 23.300781 L 66.15625 21.453125 L 75.0625 21.453125 L 75.0625 23.289062 L 70.046875 27.53125 L 75.265625 27.53125 L 75.265625 29.378906 Z M 65.957031 29.378906 "/>
<path style=" stroke:none;fill-rule:nonzero;fill:rgb(0%,29.019608%,61.176471%);fill-opacity:1;" d="M 75.691406 21.453125 L 79.074219 21.453125 L 79.074219 26.195312 C 79.050781 26.582031 79.164062 26.964844 79.390625 27.277344 C 79.601562 27.527344 80.027344 27.648438 80.667969 27.648438 C 81.25 27.648438 81.65625 27.527344 81.886719 27.277344 C 82.140625 26.976562 82.269531 26.589844 82.246094 26.195312 L 82.246094 21.453125 L 85.628906 21.453125 L 85.628906 25.933594 C 85.628906 27.195312 85.230469 28.121094 84.4375 28.707031 C 83.644531 29.296875 82.386719 29.589844 80.667969 29.589844 C 79.003906 29.589844 77.753906 29.3125 76.925781 28.753906 C 76.101562 28.1875 75.691406 27.242188 75.691406 25.921875 Z M 75.691406 21.453125 "/>
<path style=" stroke:none;fill-rule:nonzero;fill:rgb(0%,29.019608%,61.176471%);fill-opacity:1;" d="M 86.125 21.453125 L 89.507812 21.453125 L 89.507812 23.757812 L 91.867188 21.453125 L 95.761719 21.453125 L 91.867188 25.476562 L 95.574219 29.378906 L 91.675781 29.386719 L 89.492188 26.871094 L 89.492188 29.378906 L 86.125 29.378906 Z M 86.125 21.453125 "/>
<path style=" stroke:none;fill-rule:nonzero;fill:rgb(0%,29.019608%,61.176471%);fill-opacity:1;" d="M 96.5 29.378906 L 96.5 21.453125 L 99.886719 21.453125 L 99.886719 29.378906 Z M 96.5 29.378906 "/>
<path style=" stroke:none;fill-rule:nonzero;fill:rgb(10.196078%,9.411765%,9.411765%);fill-opacity:1;" d="M 2.890625 63.390625 C 3.179688 63.40625 3.460938 63.289062 3.652344 63.066406 C 3.84375 62.828125 3.957031 62.535156 3.972656 62.230469 L 5.496094 62.378906 C 5.453125 62.621094 5.382812 62.859375 5.28125 63.082031 C 5.167969 63.335938 5.003906 63.566406 4.800781 63.757812 C 4.566406 63.972656 4.292969 64.144531 3.996094 64.261719 C 3.628906 64.40625 3.230469 64.472656 2.835938 64.464844 C 2.488281 64.464844 2.140625 64.414062 1.808594 64.3125 C 1.460938 64.207031 1.148438 64.011719 0.898438 63.746094 C 0.601562 63.421875 0.378906 63.035156 0.25 62.613281 C 0.0664062 62.019531 -0.0195312 61.398438 0 60.777344 C -0.0195312 60.160156 0.0703125 59.542969 0.253906 58.957031 C 0.390625 58.535156 0.617188 58.148438 0.917969 57.824219 C 1.183594 57.554688 1.507812 57.359375 1.867188 57.25 C 2.21875 57.140625 2.585938 57.085938 2.953125 57.085938 C 3.304688 57.078125 3.65625 57.140625 3.988281 57.269531 C 4.261719 57.378906 4.511719 57.535156 4.726562 57.734375 C 4.925781 57.917969 5.082031 58.132812 5.199219 58.375 C 5.304688 58.597656 5.382812 58.832031 5.429688 59.070312 L 3.925781 59.238281 C 3.902344 59.09375 3.863281 58.949219 3.8125 58.808594 C 3.769531 58.683594 3.707031 58.566406 3.625 58.464844 C 3.546875 58.363281 3.445312 58.285156 3.332031 58.230469 C 3.203125 58.171875 3.0625 58.144531 2.921875 58.148438 C 2.757812 58.148438 2.597656 58.1875 2.457031 58.265625 C 2.292969 58.367188 2.15625 58.511719 2.070312 58.679688 C 1.933594 58.933594 1.84375 59.203125 1.800781 59.488281 C 1.726562 59.914062 1.695312 60.34375 1.703125 60.777344 C 1.695312 61.207031 1.726562 61.640625 1.792969 62.070312 C 1.835938 62.347656 1.921875 62.617188 2.042969 62.871094 C 2.125 63.042969 2.253906 63.183594 2.417969 63.277344 C 2.5625 63.355469 2.726562 63.394531 2.890625 63.390625 Z M 2.890625 63.390625 "/>
<path style=" stroke:none;fill-rule:nonzero;fill:rgb(10.196078%,9.411765%,9.411765%);fill-opacity:1;" d="M 13.578125 64.316406 L 13.105469 62.675781 L 10.703125 62.675781 L 10.226562 64.316406 L 8.632812 64.316406 L 11.027344 57.234375 L 12.875 57.234375 L 15.300781 64.316406 Z M 11.003906 61.671875 L 12.8125 61.671875 L 11.914062 58.570312 Z M 11.003906 61.671875 "/>
<path style=" stroke:none;fill-rule:nonzero;fill:rgb(10.196078%,9.411765%,9.411765%);fill-opacity:1;" d="M 22.59375 64.316406 L 21.066406 61.691406 L 20.546875 61.691406 L 20.546875 64.316406 L 18.925781 64.316406 L 18.925781 57.234375 L 21.066406 57.234375 C 21.453125 57.230469 21.835938 57.269531 22.214844 57.347656 C 22.542969 57.414062 22.855469 57.539062 23.132812 57.722656 C 23.390625 57.894531 23.601562 58.128906 23.746094 58.40625 C 23.992188 58.960938 24.035156 59.585938 23.863281 60.171875 C 23.800781 60.367188 23.707031 60.550781 23.582031 60.710938 C 23.464844 60.867188 23.320312 61 23.15625 61.105469 C 22.984375 61.214844 22.804688 61.308594 22.613281 61.386719 L 24.476562 64.316406 Z M 20.546875 58.296875 L 20.546875 60.636719 L 21.152344 60.636719 C 21.285156 60.636719 21.417969 60.617188 21.546875 60.578125 C 21.679688 60.539062 21.804688 60.476562 21.910156 60.386719 C 22.023438 60.289062 22.117188 60.167969 22.175781 60.027344 C 22.25 59.847656 22.285156 59.652344 22.277344 59.457031 C 22.285156 59.253906 22.25 59.050781 22.179688 58.863281 C 22.125 58.722656 22.035156 58.597656 21.914062 58.507812 C 21.800781 58.425781 21.667969 58.367188 21.53125 58.339844 C 21.386719 58.308594 21.234375 58.296875 21.085938 58.296875 Z M 20.546875 58.296875 "/>
<path style=" stroke:none;fill-rule:nonzero;fill:rgb(10.196078%,9.411765%,9.411765%);fill-opacity:1;" d="M 38.800781 58.394531 L 36.875 58.394531 L 36.875 64.316406 L 35.253906 64.316406 L 35.253906 58.394531 L 33.347656 58.394531 L 33.347656 57.234375 L 38.800781 57.234375 Z M 38.800781 58.394531 "/>
<path style=" stroke:none;fill-rule:nonzero;fill:rgb(10.196078%,9.411765%,9.411765%);fill-opacity:1;" d="M 46.257812 64.316406 L 44.730469 61.691406 L 44.210938 61.691406 L 44.210938 64.316406 L 42.589844 64.316406 L 42.589844 57.234375 L 44.730469 57.234375 C 45.117188 57.230469 45.5 57.269531 45.878906 57.347656 C 46.207031 57.414062 46.515625 57.539062 46.796875 57.722656 C 47.054688 57.894531 47.265625 58.128906 47.410156 58.40625 C 47.65625 58.960938 47.699219 59.585938 47.527344 60.171875 C 47.464844 60.367188 47.371094 60.550781 47.246094 60.710938 C 47.125 60.867188 46.980469 61 46.820312 61.105469 C 46.648438 61.214844 46.464844 61.308594 46.277344 61.386719 L 48.140625 64.316406 Z M 44.210938 58.296875 L 44.210938 60.636719 L 44.816406 60.636719 C 44.949219 60.636719 45.082031 60.617188 45.210938 60.578125 C 45.34375 60.539062 45.46875 60.476562 45.574219 60.386719 C 45.6875 60.289062 45.777344 60.167969 45.839844 60.027344 C 45.914062 59.847656 45.949219 59.652344 45.941406 59.457031 C 45.949219 59.253906 45.914062 59.050781 45.84375 58.863281 C 45.789062 58.722656 45.699219 58.597656 45.578125 58.507812 C 45.464844 58.425781 45.332031 58.367188 45.195312 58.339844 C 45.050781 58.308594 44.898438 58.296875 44.75 58.296875 Z M 44.210938 58.296875 "/>
<path style=" stroke:none;fill-rule:nonzero;fill:rgb(10.196078%,9.411765%,9.411765%);fill-opacity:1;" d="M 55.953125 64.316406 L 55.476562 62.675781 L 53.074219 62.675781 L 52.597656 64.316406 L 51.007812 64.316406 L 53.398438 57.234375 L 55.246094 57.234375 L 57.671875 64.316406 Z M 53.375 61.671875 L 55.183594 61.671875 L 54.285156 58.570312 Z M 53.375 61.671875 "/>
<path style=" stroke:none;fill-rule:nonzero;fill:rgb(10.196078%,9.411765%,9.411765%);fill-opacity:1;" d="M 63.320312 57.234375 C 63.765625 57.234375 64.207031 57.285156 64.640625 57.386719 C 65.042969 57.480469 65.421875 57.671875 65.738281 57.9375 C 66.070312 58.234375 66.332031 58.605469 66.488281 59.019531 C 66.863281 60.160156 66.863281 61.390625 66.488281 62.53125 C 66.332031 62.949219 66.070312 63.320312 65.738281 63.613281 C 65.421875 63.882812 65.046875 64.070312 64.644531 64.164062 C 64.21875 64.269531 63.78125 64.320312 63.339844 64.316406 L 61.296875 64.316406 L 61.296875 57.234375 Z M 62.917969 58.296875 L 62.917969 63.246094 L 63.339844 63.246094 C 63.558594 63.246094 63.777344 63.214844 63.984375 63.152344 C 64.203125 63.085938 64.402344 62.960938 64.558594 62.792969 C 64.75 62.578125 64.890625 62.320312 64.96875 62.046875 C 65.085938 61.632812 65.140625 61.203125 65.125 60.777344 C 65.140625 60.347656 65.085938 59.921875 64.964844 59.511719 C 64.882812 59.234375 64.738281 58.972656 64.546875 58.753906 C 64.390625 58.582031 64.191406 58.457031 63.96875 58.390625 C 63.757812 58.328125 63.539062 58.296875 63.320312 58.296875 Z M 62.917969 58.296875 "/>
<path style=" stroke:none;fill-rule:nonzero;fill:rgb(10.196078%,9.411765%,9.411765%);fill-opacity:1;" d="M 74.832031 61.277344 L 72.617188 61.277344 L 72.617188 63.207031 L 75.15625 63.207031 L 75.15625 64.316406 L 70.992188 64.316406 L 70.992188 57.234375 L 75.15625 57.234375 L 75.15625 58.367188 L 72.613281 58.367188 L 72.613281 60.214844 L 74.832031 60.214844 Z M 74.832031 61.277344 "/>
<path style=" stroke:none;fill-rule:nonzero;fill:rgb(10.196078%,9.411765%,9.411765%);fill-opacity:1;" d="M 78.945312 62.085938 L 78.945312 60.894531 L 82.246094 60.894531 L 82.246094 62.085938 Z M 78.945312 62.085938 "/>
<path style=" stroke:none;fill-rule:nonzero;fill:rgb(10.196078%,9.411765%,9.411765%);fill-opacity:1;" d="M 87.980469 57.234375 L 87.980469 64.316406 L 86.355469 64.316406 L 86.355469 57.234375 Z M 87.980469 57.234375 "/>
<path style=" stroke:none;fill-rule:nonzero;fill:rgb(10.196078%,9.411765%,9.411765%);fill-opacity:1;" d="M 97.910156 57.234375 L 97.910156 64.316406 L 95.984375 64.316406 L 93.777344 59.171875 L 93.777344 64.316406 L 92.414062 64.316406 L 92.414062 57.234375 L 94.480469 57.234375 L 96.558594 62.308594 L 96.558594 57.234375 Z M 97.910156 57.234375 "/>
<path style=" stroke:none;fill-rule:nonzero;fill:rgb(10.196078%,9.411765%,9.411765%);fill-opacity:1;" d="M 110.277344 57.234375 C 110.664062 57.234375 111.046875 57.265625 111.425781 57.328125 C 111.761719 57.382812 112.082031 57.5 112.371094 57.675781 C 112.648438 57.851562 112.871094 58.097656 113.015625 58.390625 C 113.1875 58.761719 113.269531 59.167969 113.253906 59.574219 C 113.273438 59.984375 113.1875 60.390625 113.011719 60.761719 C 112.863281 61.050781 112.640625 61.296875 112.367188 61.472656 C 112.085938 61.652344 111.769531 61.769531 111.4375 61.824219 C 111.078125 61.886719 110.710938 61.917969 110.34375 61.917969 L 109.816406 61.917969 L 109.816406 64.316406 L 108.191406 64.316406 L 108.191406 57.234375 Z M 109.8125 58.289062 L 109.8125 60.863281 L 110.367188 60.863281 C 110.507812 60.863281 110.648438 60.847656 110.789062 60.816406 C 110.929688 60.78125 111.0625 60.71875 111.175781 60.628906 C 111.300781 60.523438 111.398438 60.390625 111.460938 60.238281 C 111.539062 60.027344 111.574219 59.800781 111.566406 59.574219 C 111.574219 59.351562 111.539062 59.125 111.464844 58.910156 C 111.40625 58.757812 111.308594 58.625 111.183594 58.523438 C 111.0625 58.429688 110.925781 58.367188 110.777344 58.335938 C 110.621094 58.304688 110.460938 58.285156 110.300781 58.289062 Z M 109.8125 58.289062 "/>
<path style=" stroke:none;fill-rule:nonzero;fill:rgb(10.196078%,9.411765%,9.411765%);fill-opacity:1;" d="M 120.816406 64.316406 L 119.292969 61.691406 L 118.773438 61.691406 L 118.773438 64.316406 L 117.148438 64.316406 L 117.148438 57.234375 L 119.292969 57.234375 C 119.679688 57.230469 120.0625 57.269531 120.441406 57.347656 C 120.765625 57.414062 121.078125 57.539062 121.359375 57.722656 C 121.617188 57.894531 121.828125 58.128906 121.972656 58.40625 C 122.21875 58.960938 122.257812 59.585938 122.089844 60.171875 C 122.027344 60.367188 121.933594 60.550781 121.808594 60.710938 C 121.6875 60.867188 121.542969 61 121.378906 61.105469 C 121.210938 61.214844 121.027344 61.308594 120.839844 61.386719 L 122.699219 64.316406 Z M 118.773438 58.296875 L 118.773438 60.636719 L 119.378906 60.636719 C 119.511719 60.636719 119.644531 60.617188 119.773438 60.578125 C 119.90625 60.539062 120.027344 60.476562 120.136719 60.386719 C 120.25 60.289062 120.339844 60.167969 120.398438 60.027344 C 120.472656 59.847656 120.507812 59.652344 120.503906 59.457031 C 120.511719 59.253906 120.476562 59.050781 120.40625 58.863281 C 120.351562 58.722656 120.257812 58.597656 120.140625 58.507812 C 120.027344 58.425781 119.894531 58.367188 119.757812 58.339844 C 119.609375 58.3125 119.460938 58.296875 119.3125 58.296875 Z M 118.773438 58.296875 "/>
<path style=" stroke:none;fill-rule:nonzero;fill:rgb(10.196078%,9.411765%,9.411765%);fill-opacity:1;" d="M 126.054688 60.777344 C 126.039062 60.1875 126.121094 59.601562 126.289062 59.039062 C 126.414062 58.617188 126.632812 58.230469 126.925781 57.902344 C 127.191406 57.617188 127.523438 57.40625 127.890625 57.277344 C 128.671875 57.023438 129.519531 57.023438 130.300781 57.277344 C 130.671875 57.40625 131.003906 57.621094 131.269531 57.902344 C 131.566406 58.230469 131.785156 58.617188 131.914062 59.039062 C 132.222656 60.175781 132.222656 61.375 131.914062 62.511719 C 131.785156 62.933594 131.570312 63.320312 131.277344 63.648438 C 131.011719 63.933594 130.679688 64.148438 130.3125 64.273438 C 129.523438 64.527344 128.671875 64.527344 127.878906 64.273438 C 127.511719 64.148438 127.179688 63.933594 126.914062 63.648438 C 126.625 63.320312 126.40625 62.933594 126.28125 62.511719 C 126.117188 61.949219 126.042969 61.363281 126.054688 60.777344 Z M 127.710938 60.777344 C 127.703125 61.195312 127.734375 61.613281 127.808594 62.023438 C 127.855469 62.304688 127.945312 62.578125 128.082031 62.828125 C 128.183594 63.007812 128.335938 63.160156 128.523438 63.253906 C 128.886719 63.425781 129.304688 63.425781 129.667969 63.253906 C 129.855469 63.15625 130.007812 63.007812 130.113281 62.820312 C 130.25 62.570312 130.347656 62.296875 130.394531 62.015625 C 130.464844 61.605469 130.496094 61.191406 130.492188 60.777344 C 130.5 60.359375 130.460938 59.945312 130.382812 59.535156 C 130.328125 59.253906 130.230469 58.980469 130.089844 58.730469 C 129.988281 58.546875 129.832031 58.394531 129.648438 58.292969 C 129.300781 58.117188 128.894531 58.117188 128.550781 58.289062 C 128.363281 58.390625 128.210938 58.539062 128.105469 58.722656 C 127.960938 58.972656 127.863281 59.242188 127.8125 59.527344 C 127.738281 59.9375 127.703125 60.359375 127.710938 60.777344 Z M 127.710938 60.777344 "/>
<path style=" stroke:none;fill-rule:nonzero;fill:rgb(10.196078%,9.411765%,9.411765%);fill-opacity:1;" d="M 141.472656 64.316406 L 140.664062 64.316406 L 140.347656 63.796875 C 140.160156 63.984375 139.941406 64.140625 139.699219 64.257812 C 139.402344 64.402344 139.078125 64.472656 138.746094 64.464844 C 138.433594 64.464844 138.121094 64.410156 137.824219 64.3125 C 137.5 64.199219 137.210938 64.003906 136.988281 63.746094 C 136.710938 63.414062 136.503906 63.03125 136.382812 62.613281 C 136.214844 62.015625 136.132812 61.398438 136.152344 60.773438 C 136.132812 60.160156 136.21875 59.542969 136.40625 58.957031 C 136.542969 58.535156 136.769531 58.148438 137.070312 57.824219 C 137.332031 57.554688 137.660156 57.359375 138.019531 57.25 C 138.375 57.140625 138.746094 57.085938 139.117188 57.085938 C 139.425781 57.082031 139.734375 57.128906 140.03125 57.21875 C 140.285156 57.300781 140.523438 57.421875 140.738281 57.578125 C 140.9375 57.726562 141.109375 57.910156 141.246094 58.117188 C 141.382812 58.320312 141.492188 58.542969 141.574219 58.777344 L 140.089844 58.945312 C 140.023438 58.734375 139.910156 58.539062 139.761719 58.375 C 139.582031 58.207031 139.339844 58.121094 139.09375 58.140625 C 138.925781 58.140625 138.761719 58.179688 138.613281 58.257812 C 138.445312 58.359375 138.308594 58.503906 138.21875 58.675781 C 138.085938 58.929688 137.992188 59.207031 137.949219 59.488281 C 137.878906 59.914062 137.84375 60.34375 137.851562 60.777344 C 137.847656 61.210938 137.871094 61.640625 137.929688 62.070312 C 137.960938 62.347656 138.039062 62.621094 138.160156 62.871094 C 138.242188 63.046875 138.375 63.1875 138.542969 63.28125 C 138.707031 63.359375 138.882812 63.398438 139.0625 63.394531 C 139.273438 63.398438 139.480469 63.351562 139.667969 63.257812 C 139.828125 63.175781 139.96875 63.0625 140.078125 62.921875 L 140.078125 61.230469 L 139.148438 61.230469 L 139.148438 60.207031 L 141.476562 60.207031 Z M 141.472656 64.316406 "/>
<path style=" stroke:none;fill-rule:nonzero;fill:rgb(10.196078%,9.411765%,9.411765%);fill-opacity:1;" d="M 149.511719 64.316406 L 147.988281 61.691406 L 147.46875 61.691406 L 147.46875 64.316406 L 145.84375 64.316406 L 145.84375 57.234375 L 147.988281 57.234375 C 148.371094 57.230469 148.757812 57.269531 149.132812 57.347656 C 149.460938 57.414062 149.773438 57.539062 150.054688 57.722656 C 150.3125 57.894531 150.523438 58.128906 150.664062 58.40625 C 150.914062 58.960938 150.953125 59.585938 150.785156 60.171875 C 150.722656 60.367188 150.625 60.550781 150.503906 60.710938 C 150.382812 60.867188 150.238281 61 150.074219 61.105469 C 149.902344 61.214844 149.722656 61.308594 149.535156 61.386719 L 151.394531 64.316406 Z M 147.46875 58.296875 L 147.46875 60.636719 L 148.074219 60.636719 C 148.207031 60.636719 148.339844 60.617188 148.46875 60.578125 C 148.601562 60.539062 148.722656 60.472656 148.832031 60.386719 C 148.945312 60.289062 149.035156 60.167969 149.09375 60.027344 C 149.167969 59.847656 149.203125 59.652344 149.199219 59.457031 C 149.203125 59.253906 149.171875 59.050781 149.101562 58.863281 C 149.046875 58.722656 148.953125 58.597656 148.835938 58.507812 C 148.722656 58.425781 148.589844 58.367188 148.453125 58.339844 C 148.304688 58.308594 148.15625 58.296875 148.007812 58.296875 Z M 147.46875 58.296875 "/>
<path style=" stroke:none;fill-rule:nonzero;fill:rgb(10.196078%,9.411765%,9.411765%);fill-opacity:1;" d="M 159.207031 64.316406 L 158.730469 62.675781 L 156.328125 62.675781 L 155.851562 64.316406 L 154.261719 64.316406 L 156.652344 57.234375 L 158.503906 57.234375 L 160.925781 64.316406 Z M 156.632812 61.671875 L 158.4375 61.671875 L 157.542969 58.570312 Z M 156.632812 61.671875 "/>
<path style=" stroke:none;fill-rule:nonzero;fill:rgb(10.196078%,9.411765%,9.411765%);fill-opacity:1;" d="M 167.496094 64.316406 L 165.925781 59.3125 L 165.925781 64.316406 L 164.554688 64.316406 L 164.554688 57.234375 L 166.566406 57.234375 L 168.144531 62.378906 L 169.660156 57.234375 L 171.714844 57.234375 L 171.714844 64.316406 L 170.234375 64.316406 L 170.234375 59.3125 L 168.707031 64.316406 Z M 167.496094 64.316406 "/>
</g>
</svg>
