<?xml version="1.0" encoding="UTF-8"?>
<svg xmlns="http://www.w3.org/2000/svg" xmlns:xlink="http://www.w3.org/1999/xlink" width="172pt" height="86pt" viewBox="0 0 172 86" version="1.1">
<defs>
<linearGradient id="linear0" gradientUnits="userSpaceOnUse" x1="-0.006" y1="0.533" x2="0.992" y2="0.448" gradientTransform="matrix(64.75,0,0,52.976562,107.214844,2.171875)">
<stop offset="0" style="stop-color:rgb(0%,29.019608%,61.176471%);stop-opacity:1;"/>
<stop offset="0.162" style="stop-color:rgb(1.176471%,28.235294%,60.392157%);stop-opacity:1;"/>
<stop offset="0.298" style="stop-color:rgb(5.098039%,27.058824%,58.039216%);stop-opacity:1;"/>
<stop offset="0.424" style="stop-color:rgb(12.156863%,24.705882%,54.117647%);stop-opacity:1;"/>
<stop offset="0.544" style="stop-color:rgb(21.568627%,21.960784%,48.627451%);stop-opacity:1;"/>
<stop offset="0.66" style="stop-color:rgb(34.117647%,17.647059%,41.568627%);stop-opacity:1;"/>
<stop offset="0.774" style="stop-color:rgb(49.411765%,12.941176%,32.54902%);stop-opacity:1;"/>
<stop offset="0.884" style="stop-color:rgb(67.45098%,7.058824%,22.352941%);stop-opacity:1;"/>
<stop offset="0.991" style="stop-color:rgb(87.843137%,0.392157%,10.588235%);stop-opacity:1;"/>
<stop offset="1" style="stop-color:rgb(89.803922%,0%,9.803922%);stop-opacity:1;"/>
</linearGradient>
</defs>
<g id="surface1">
<path style=" stroke:none;fill-rule:nonzero;fill:rgb(0%,29.019608%,61.176471%);fill-opacity:1;" d="M 43.617188 46.746094 L 43.617188 45.082031 L 34.867188 45.082031 L 34.867188 46.988281 L 39.277344 46.988281 L 34.8125 51.097656 L 34.8125 52.761719 L 43.695312 52.761719 L 43.695312 50.855469 L 39.207031 50.855469 Z M 64.429688 45.082031 L 64.429688 52.761719 L 67.355469 52.761719 L 67.355469 45.082031 Z M 60.0625 45.082031 L 56.972656 47.738281 L 56.972656 45.082031 L 54.046875 45.082031 L 54.046875 52.761719 L 56.972656 52.761719 L 56.972656 50.042969 L 59.933594 52.761719 L 63.785156 52.761719 L 59.507812 48.839844 L 63.871094 45.082031 Z M 50.46875 49.609375 C 50.46875 50.246094 50.367188 51.042969 48.851562 51.042969 C 47.335938 51.042969 47.234375 50.246094 47.234375 49.609375 L 47.234375 45.082031 L 44.394531 45.082031 L 44.394531 49.832031 C 44.394531 52.089844 45.144531 53.007812 48.851562 53.007812 C 52.558594 53.007812 53.308594 52.089844 53.308594 49.832031 L 53.308594 45.082031 L 50.46875 45.082031 Z M 31.3125 49.609375 C 31.3125 50.246094 31.214844 51.042969 29.695312 51.042969 C 28.179688 51.042969 28.078125 50.246094 28.078125 49.609375 L 28.078125 45.082031 L 25.238281 45.082031 L 25.238281 49.832031 C 25.238281 52.089844 25.988281 53.007812 29.695312 53.007812 C 33.402344 53.007812 34.152344 52.089844 34.152344 49.832031 L 34.152344 45.082031 L 31.3125 45.082031 Z M 21.574219 47.992188 C 18.8125 47.574219 18.574219 47.605469 18.574219 47.09375 C 18.574219 46.828125 18.925781 46.613281 19.644531 46.613281 C 20.488281 46.613281 21.003906 46.984375 21.082031 47.363281 L 24.40625 47.363281 C 24.40625 45.542969 22.097656 44.882812 19.960938 44.882812 C 18.789062 44.882812 15.378906 44.949219 15.378906 47.3125 C 15.378906 47.589844 15.285156 49.34375 18.140625 49.714844 C 21.011719 50.082031 21.4375 50.082031 21.4375 50.675781 C 21.4375 50.941406 21.097656 51.21875 20.382812 51.21875 C 19.445312 51.21875 19.101562 50.898438 18.960938 50.367188 L 15.324219 50.367188 C 15.398438 52.386719 17.214844 53 20.039062 53 C 21.226562 53 24.707031 52.976562 24.707031 50.515625 C 24.707031 49.757812 24.394531 48.417969 21.574219 47.992188 Z M 21.574219 47.992188 "/>
<path style=" stroke:none;fill-rule:nonzero;fill:rgb(89.803922%,0%,9.803922%);fill-opacity:1;" d="M 13.152344 46.804688 C 12.355469 47.453125 9.949219 48.363281 8.453125 47.441406 L 5.070312 45.121094 L 4.554688 45.464844 L 13.175781 51.359375 C 11.027344 52.171875 8.484375 53.851562 6.714844 55.339844 L 0.277344 50.855469 C 1.222656 50.15625 3.421875 49.339844 4.917969 50.269531 L 8.378906 52.628906 L 8.84375 52.324219 L 0.1875 46.34375 C 2.015625 45.722656 5.359375 43.648438 6.640625 42.304688 L 13.152344 46.804688 "/>
<path style=" stroke:none;fill-rule:nonzero;fill:rgb(89.803922%,0%,9.803922%);fill-opacity:1;" d="M 0.1875 71.023438 L 0.1875 57.71875 L 12.933594 57.71875 L 12.933594 58.714844 L 4.007812 58.714844 L 4.007812 63.582031 L 12.300781 63.582031 L 12.300781 64.585938 L 4.007812 64.585938 L 4.007812 70.03125 L 12.933594 70.03125 L 12.933594 71.023438 Z M 0.1875 71.023438 "/>
<path style=" stroke:none;fill-rule:nonzero;fill:rgb(89.803922%,0%,9.803922%);fill-opacity:1;" d="M 14.769531 71.023438 L 21.660156 64.726562 L 14.800781 57.71875 L 19.132812 57.71875 L 24.050781 62.726562 L 29.492188 57.71875 L 31.667969 57.71875 L 25.066406 63.691406 L 32.421875 71.023438 L 28.058594 71.023438 L 22.753906 65.664062 L 16.941406 71.027344 Z M 14.769531 71.023438 "/>
<path style=" stroke:none;fill-rule:nonzero;fill:rgb(89.803922%,0%,9.803922%);fill-opacity:1;" d="M 37.785156 71.023438 L 37.785156 58.714844 L 32.390625 58.714844 L 32.390625 57.71875 L 46.972656 57.71875 L 46.972656 58.714844 L 41.578125 58.714844 L 41.578125 71.023438 Z M 37.785156 71.023438 "/>
<path style=" stroke:none;fill-rule:nonzero;fill:rgb(89.803922%,0%,9.803922%);fill-opacity:1;" d="M 48.976562 71.023438 L 48.976562 57.71875 L 61.726562 57.71875 L 61.726562 58.714844 L 52.800781 58.714844 L 52.800781 63.582031 L 61.09375 63.582031 L 61.09375 64.585938 L 52.800781 64.585938 L 52.800781 70.03125 L 61.726562 70.03125 L 61.726562 71.023438 Z M 48.976562 71.023438 "/>
<path style=" stroke:none;fill-rule:nonzero;fill:rgb(89.803922%,0%,9.803922%);fill-opacity:1;" d="M 64.019531 71.023438 L 64.019531 57.71875 L 67.519531 57.71875 L 78.1875 66.90625 L 78.1875 57.71875 L 80.019531 57.71875 L 80.019531 71.023438 L 78.1875 71.023438 L 65.855469 60.429688 L 65.855469 71.027344 Z M 64.019531 71.023438 "/>
<path style=" stroke:none;fill-rule:nonzero;fill:rgb(89.803922%,0%,9.803922%);fill-opacity:1;" d="M 81.597656 71.023438 L 81.597656 57.71875 L 86.652344 57.71875 C 90.671875 57.71875 93.8125 58.335938 96.074219 59.566406 C 98.332031 60.800781 99.464844 62.5 99.464844 64.667969 C 99.464844 66.578125 98.542969 68.117188 96.695312 69.28125 C 94.851562 70.445312 92.417969 71.027344 89.398438 71.027344 Z M 85.390625 58.714844 L 85.390625 70.03125 L 87.65625 70.03125 C 88.683594 70.046875 89.714844 69.976562 90.730469 69.816406 C 91.433594 69.710938 92.113281 69.484375 92.742188 69.15625 C 93.5625 68.699219 94.234375 68.023438 94.683594 67.199219 C 95.148438 66.320312 95.382812 65.335938 95.363281 64.339844 C 95.429688 62.65625 94.59375 61.066406 93.167969 60.167969 C 91.703125 59.199219 89.59375 58.714844 86.839844 58.714844 Z M 85.390625 58.714844 "/>
<path style=" stroke:none;fill-rule:nonzero;fill:rgb(89.803922%,0%,9.803922%);fill-opacity:1;" d="M 101.21875 71.023438 L 101.21875 57.71875 L 113.96875 57.71875 L 113.96875 58.714844 L 105.042969 58.714844 L 105.042969 63.582031 L 113.335938 63.582031 L 113.335938 64.585938 L 105.042969 64.585938 L 105.042969 70.03125 L 113.96875 70.03125 L 113.96875 71.023438 Z M 101.21875 71.023438 "/>
<path style=" stroke:none;fill-rule:nonzero;fill:rgb(89.803922%,0%,9.803922%);fill-opacity:1;" d="M 116.324219 71.023438 L 116.324219 57.71875 L 121.382812 57.71875 C 125.398438 57.71875 128.539062 58.335938 130.800781 59.566406 C 133.0625 60.800781 134.191406 62.5 134.191406 64.667969 C 134.191406 66.578125 133.269531 68.117188 131.425781 69.28125 C 129.582031 70.445312 127.148438 71.027344 124.128906 71.027344 Z M 120.117188 58.714844 L 120.117188 70.03125 L 122.382812 70.03125 C 123.414062 70.046875 124.441406 69.976562 125.457031 69.816406 C 126.160156 69.710938 126.839844 69.484375 127.46875 69.15625 C 128.289062 68.699219 128.964844 68.023438 129.414062 67.199219 C 129.878906 66.320312 130.113281 65.335938 130.089844 64.339844 C 130.160156 62.65625 129.320312 61.066406 127.894531 60.167969 C 126.429688 59.199219 124.320312 58.714844 121.566406 58.714844 Z M 120.117188 58.714844 "/>
<path style=" stroke:none;fill-rule:nonzero;fill:rgb(0%,29.019608%,61.176471%);fill-opacity:1;" d="M 31.691406 84.476562 L 28.0625 78.855469 L 24.578125 84.476562 L 17.46875 73.707031 L 20.824219 73.707031 L 25.460938 80.996094 L 27.382812 77.90625 L 24.578125 73.707031 L 27.910156 73.707031 L 32.496094 80.871094 L 36.828125 73.707031 L 38.484375 73.707031 Z M 31.691406 84.476562 "/>
<path style=" stroke:none;fill-rule:nonzero;fill:rgb(0%,29.019608%,61.176471%);fill-opacity:1;" d="M 34.507812 84.21875 L 41.542969 73.492188 L 48.859375 84.21875 L 45.480469 84.21875 L 43.699219 81.417969 L 37.789062 81.417969 L 36.019531 84.21875 Z M 38.238281 80.757812 L 43.222656 80.757812 L 40.722656 76.921875 Z M 38.238281 80.757812 "/>
<path style=" stroke:none;fill-rule:nonzero;fill:rgb(0%,29.019608%,61.176471%);fill-opacity:1;" d="M 49.742188 84.21875 L 49.742188 73.707031 L 55.355469 73.707031 C 57.480469 73.707031 59.089844 73.964844 60.179688 74.484375 C 61.269531 75.003906 61.8125 75.769531 61.8125 76.78125 C 61.8125 77.535156 61.425781 78.128906 60.652344 78.566406 C 59.878906 79 58.78125 79.242188 57.351562 79.289062 L 61.886719 84.21875 L 58.328125 84.21875 L 53.726562 78.886719 C 55.527344 78.816406 56.800781 78.609375 57.542969 78.269531 C 58.285156 77.929688 58.660156 77.40625 58.660156 76.703125 C 58.679688 75.949219 58.242188 75.261719 57.558594 74.957031 C 56.820312 74.574219 55.710938 74.382812 54.226562 74.382812 L 52.917969 74.382812 L 52.917969 84.21875 Z M 49.742188 84.21875 "/>
<path style=" stroke:none;fill-rule:nonzero;fill:rgb(0%,29.019608%,61.176471%);fill-opacity:1;" d="M 63.414062 84.21875 L 63.414062 73.707031 L 69.027344 73.707031 C 71.152344 73.707031 72.761719 73.964844 73.851562 74.484375 C 74.941406 75.003906 75.484375 75.769531 75.484375 76.78125 C 75.484375 77.535156 75.097656 78.128906 74.324219 78.566406 C 73.550781 79 72.453125 79.242188 71.023438 79.289062 L 75.5625 84.21875 L 72 84.21875 L 67.398438 78.886719 C 69.199219 78.816406 70.472656 78.609375 71.214844 78.269531 C 71.960938 77.929688 72.332031 77.40625 72.332031 76.703125 C 72.351562 75.949219 71.914062 75.261719 71.230469 74.957031 C 70.496094 74.574219 69.386719 74.382812 67.898438 74.382812 L 66.589844 74.382812 L 66.589844 84.21875 Z M 63.414062 84.21875 "/>
<path style=" stroke:none;fill-rule:nonzero;fill:rgb(0%,29.019608%,61.176471%);fill-opacity:1;" d="M 76.355469 84.21875 L 83.390625 73.492188 L 90.707031 84.21875 L 87.324219 84.21875 L 85.542969 81.417969 L 79.636719 81.417969 L 77.867188 84.21875 Z M 80.085938 80.757812 L 85.070312 80.757812 L 82.570312 76.921875 Z M 80.085938 80.757812 "/>
<path style=" stroke:none;fill-rule:nonzero;fill:rgb(0%,29.019608%,61.176471%);fill-opacity:1;" d="M 91.535156 84.21875 L 91.535156 73.707031 L 94.449219 73.707031 L 103.3125 80.960938 L 103.3125 73.707031 L 104.839844 73.707031 L 104.839844 84.21875 L 103.3125 84.21875 L 93.0625 75.84375 L 93.0625 84.21875 Z M 91.535156 84.21875 "/>
<path style=" stroke:none;fill-rule:nonzero;fill:rgb(0%,29.019608%,61.176471%);fill-opacity:1;" d="M 111.199219 84.21875 L 111.199219 74.492188 L 106.710938 74.492188 L 106.710938 73.707031 L 118.835938 73.707031 L 118.835938 74.492188 L 114.351562 74.492188 L 114.351562 84.21875 Z M 111.199219 84.21875 "/>
<path style=" stroke:none;fill-rule:nonzero;fill:rgb(0%,29.019608%,61.176471%);fill-opacity:1;" d="M 125.285156 84.21875 L 125.285156 79.132812 L 119.542969 73.707031 L 123.296875 73.707031 L 127.628906 78.023438 L 132.269531 73.707031 L 134.191406 73.707031 L 128.464844 78.855469 L 128.464844 84.21875 Z M 125.285156 84.21875 "/>
<path style=" stroke:none;fill-rule:nonzero;fill:rgb(89.803922%,0%,9.803922%);fill-opacity:1;" d="M 125.355469 31.792969 C 125.210938 31.339844 125.710938 30.34375 126.023438 29.9375 C 126.519531 29.28125 127.402344 28.636719 128.007812 28.667969 C 128.609375 28.699219 138.417969 37.070312 138.417969 37.070312 C 138.417969 37.070312 150.089844 25.300781 150.496094 25.09375 C 151.351562 24.800781 152.300781 25.003906 152.960938 25.617188 C 153.683594 26.277344 154 27.269531 153.785156 28.222656 C 153.621094 28.6875 140.058594 43.65625 138.261719 43.617188 C 136.464844 43.578125 125.503906 32.242188 125.355469 31.792969 Z M 125.355469 31.792969 "/>
<path style=" stroke:none;fill-rule:nonzero;fill:url(#linear0);" d="M 114.917969 55.148438 C 104.789062 43.226562 104.632812 25.769531 114.542969 13.667969 C 124.453125 1.566406 141.597656 -1.71875 155.28125 5.855469 C 168.964844 13.433594 175.277344 29.710938 170.277344 44.53125 L 163.714844 42.324219 C 167.652344 30.671875 162.695312 17.871094 151.9375 11.910156 C 141.183594 5.949219 127.699219 8.527344 119.90625 18.042969 C 112.109375 27.554688 112.234375 41.28125 120.195312 50.65625 C 121.652344 52.289062 123.25 53.792969 124.96875 55.148438 "/>
<path style=" stroke:none;fill-rule:nonzero;fill:rgb(89.803922%,0%,9.803922%);fill-opacity:1;" d="M 155.746094 62.347656 L 151.984375 56.535156 C 153.511719 55.667969 154.941406 54.644531 156.257812 53.488281 C 156.757812 53.042969 157.273438 52.582031 157.753906 52.117188 L 162.558594 57.117188 C 161.972656 57.683594 161.351562 58.226562 160.738281 58.765625 C 159.1875 60.109375 157.519531 61.308594 155.746094 62.347656 Z M 155.746094 62.347656 "/>
<path style=" stroke:none;fill-rule:nonzero;fill:rgb(89.803922%,0%,9.803922%);fill-opacity:1;" d="M 164.949219 54.421875 L 159.570312 49.976562 C 160.789062 48.433594 161.824219 46.75 162.648438 44.964844 L 168.921875 47.992188 C 167.839844 50.273438 166.507812 52.429688 164.949219 54.421875 Z M 164.949219 54.421875 "/>
<path style=" stroke:none;fill-rule:nonzero;fill:rgb(89.803922%,0%,9.803922%);fill-opacity:1;" d="M 152.476562 63.980469 L 149.414062 57.753906 C 147.253906 58.6875 144.960938 59.289062 142.621094 59.535156 L 142.222656 56.984375 L 136.28125 63.949219 L 143.949219 68.796875 L 143.585938 66.40625 C 146.644531 66.003906 149.636719 65.1875 152.476562 63.980469 Z M 152.476562 63.980469 "/>
</g>
</svg>
