<svg xmlns="http://www.w3.org/2000/svg" xmlns:xlink="http://www.w3.org/1999/xlink" width="128" height="128" viewBox="0 0 128 128">
  <defs>
    <clipPath id="clip-facility">
      <rect width="128" height="128"/>
    </clipPath>
  </defs>
  <g id="facility" clip-path="url(#clip-facility)">
    <g id="car-service_1_" data-name="car-service (1)" transform="translate(4.023 0)">
      <circle id="Ellipse_3" data-name="Ellipse 3" cx="1.873" cy="1.873" r="1.873" transform="translate(43.725 6.73)" fill="#fff"/>
      <path id="Path_13" data-name="Path 13" d="M264,135.678l-3.876-6.713a3.216,3.216,0,0,0-5.57,0l-3.876,6.713a3.216,3.216,0,0,0,2.785,4.824h7.752A3.215,3.215,0,0,0,264,135.678Zm-9.62,1.078,2.959-5.125,2.959,5.125Z" transform="translate(-192.202 -95.559)" fill="#fff"/>
      <path id="Path_14" data-name="Path 14" d="M110.588,275.874h-8.2a1.873,1.873,0,0,0-1.873,1.873v8.195a1.873,1.873,0,0,0,1.873,1.873h8.195a1.872,1.872,0,0,0,1.873-1.873v-8.195A1.872,1.872,0,0,0,110.588,275.874Zm-1.873,8.2h-4.45v-4.45h4.45v4.45Z" transform="translate(-79.861 -224.978)" fill="#fff"/>
      <path id="Path_15" data-name="Path 15" d="M110.588,333.7h-8.2a1.872,1.872,0,0,0-1.873,1.873v8.2a1.872,1.872,0,0,0,1.873,1.873h8.195a1.872,1.872,0,0,0,1.873-1.873v-8.2A1.872,1.872,0,0,0,110.588,333.7Zm-1.873,8.195h-4.45v-4.45h4.45v4.45Z" transform="translate(-79.861 -268.363)" fill="#fff"/>
      <path id="Path_12312" data-name="Path 12312" d="M110.588,333.7h-8.2a1.872,1.872,0,0,0-1.873,1.873v8.2a1.872,1.872,0,0,0,1.873,1.873h8.195a1.872,1.872,0,0,0,1.873-1.873v-8.2A1.872,1.872,0,0,0,110.588,333.7Zm-1.873,8.195h-4.45v-4.45h4.45v4.45Z" transform="translate(-79.861 -254.363)" fill="#fff"/>
      <path id="Path_12315" data-name="Path 12315" d="M110.588,333.7h-8.2a1.872,1.872,0,0,0-1.873,1.873v8.2a1.872,1.872,0,0,0,1.873,1.873h8.195a1.872,1.872,0,0,0,1.873-1.873v-8.2A1.872,1.872,0,0,0,110.588,333.7Zm-1.873,8.195h-4.45v-4.45h4.45v4.45Z" transform="translate(-79.861 -240.363)" fill="#fff"/>
      <path id="Path_17" data-name="Path 17" d="M191.911,275.874h-31.7a1.873,1.873,0,1,0,0,3.745h31.7a1.873,1.873,0,0,0,0-3.745Z" transform="translate(-123.247 -224.978)" fill="#fff"/>
      <path id="Path_18" data-name="Path 18" d="M160.216,304.619H182.3a1.873,1.873,0,1,0,0-3.745h-22.08a1.873,1.873,0,1,0,0,3.745Z" transform="translate(-123.247 -243.736)" fill="#fff"/>
      <path id="Path_19" data-name="Path 19" d="M191.911,333.7h-31.7a1.873,1.873,0,1,0,0,3.745h31.7a1.873,1.873,0,0,0,0-3.745Z" transform="translate(-123.247 -268.363)" fill="#fff"/>
      <path id="Path_12310" data-name="Path 12310" d="M191.911,333.7h-31.7a1.873,1.873,0,1,0,0,3.745h31.7a1.873,1.873,0,0,0,0-3.745Z" transform="translate(-123.247 -254.363)" fill="#fff"/>
      <path id="Path_12313" data-name="Path 12313" d="M186.8,333.7H159.93a1.9,1.9,0,0,0,0,3.745H186.8a1.9,1.9,0,0,0,0-3.745Z" transform="translate(-123.247 -240.363)" fill="#fff"/>
      <path id="Path_20" data-name="Path 20" d="M170.938,358.7H160.216a1.873,1.873,0,1,0,0,3.745h10.722a1.873,1.873,0,1,0,0-3.745Z" transform="translate(-123.247 -287.121)" fill="#fff"/>
      <path id="Path_12311" data-name="Path 12311" d="M170.938,358.7H160.216a1.873,1.873,0,1,0,0,3.745h10.722a1.873,1.873,0,1,0,0-3.745Z" transform="translate(-123.247 -273.121)" fill="#fff"/>
      <path id="Path_12314" data-name="Path 12314" d="M170.938,358.7H160.216a1.873,1.873,0,1,0,0,3.745h10.722a1.873,1.873,0,1,0,0-3.745Z" transform="translate(-123.247 -259.121)" fill="#fff"/>
      <path id="Path_21" data-name="Path 21" d="M135.005,50.865a5.9,5.9,0,0,0-8.351,0L121.96,55.56a2.443,2.443,0,0,0-3.185.232l-9.8,9.8V15.948a3.849,3.849,0,0,0-3.844-3.845H87.635v-.66a4.345,4.345,0,0,0-4.34-4.34H72.157A8.979,8.979,0,0,0,54.6,7.1H43.457a4.345,4.345,0,0,0-4.34,4.34v.66H21.623a3.849,3.849,0,0,0-3.845,3.845V123.991a3.849,3.849,0,0,0,3.845,3.845h83.507a3.849,3.849,0,0,0,3.844-3.845V88.2l2.973-2.973A1.873,1.873,0,0,0,109.3,82.58L98.263,93.615l-6.007-6.007,21.252-21.252,6.007,6.007L115.682,76.2a1.873,1.873,0,0,0,2.648,2.648l6.948-6.948,1.762,1.762L112.2,88.5a1.873,1.873,0,0,0,2.648,2.648l16.167-16.167a1.872,1.872,0,0,0,0-2.648l-3.086-3.086,2.152-2.152a2.446,2.446,0,0,0,.232-3.184L135,59.217a5.9,5.9,0,0,0,0-8.352Zm-14.5,8.5,6.007,6.007-4.345,4.345-6.007-6.007ZM105.129,15.849a.1.1,0,0,1,.1.1v53.39l-3.872,3.872V21.594a1.872,1.872,0,0,0-1.873-1.873H87.635V15.849Zm-62.267-4.4a.6.6,0,0,1,.595-.595h11.6A3.191,3.191,0,0,0,58.2,8.176a5.233,5.233,0,0,1,10.342,0,3.19,3.19,0,0,0,3.146,2.674h11.6a.6.6,0,0,1,.6.595V17.9c.263-.035-.17,1.875,0,3.745v3.914H42.862V21.642c4.607,0,4.607-3.745,0-3.745V11.445ZM89.608,90.256l6.007,6.007L82.24,109.638l-6.007-6.007ZM71.035,110.645a9.623,9.623,0,0,1,2.486-4.3l.063-.063,6.007,6.007-.063.063a9.624,9.624,0,0,1-4.3,2.486L69.5,116.375ZM82.176,115,97.611,99.563v16.91H80.422A13.36,13.36,0,0,0,82.176,115Zm6.107-28.714,0,0L76.814,97.754c-1.554,1.587-1.782,1.511-3.745,3.745-2.333,2.333-2.284,2.28-2.487,2.5a12.517,12.517,0,0,0-2.48,3.745,13.379,13.379,0,0,0-.683,1.933l-1.644,6.119a3.6,3.6,0,0,0-.115.68H29.141v-5.485a1.873,1.873,0,0,0-3.745,0v7.357a1.872,1.872,0,0,0,1.873,1.873H99.484a1.872,1.872,0,0,0,1.873-1.873V95.818l3.872-3.872v32.045a.1.1,0,0,1-.1.1H21.623a.1.1,0,0,1-.1-.1V15.948a.1.1,0,0,1,.1-.1H39.117v3.872H27.268A1.872,1.872,0,0,0,25.4,21.594v80.655a1.873,1.873,0,0,0,3.745,0V23.467h9.976V26.49A2.815,2.815,0,0,0,41.929,29.3H84.823a2.815,2.815,0,0,0,2.812-2.812V23.467h9.976V76.956Zm44.073-29.715-4.676,4.676-3.055-3.055,4.676-4.676a2.16,2.16,0,0,1,3.055,3.055Z" transform="translate(-17.778 0)" fill="#fff"/>
      <path id="Path_22" data-name="Path 22" d="M269.006,388.612a1.873,1.873,0,0,0,2.648,0l7.368-7.367a1.873,1.873,0,0,0-2.648-2.648l-7.368,7.367A1.873,1.873,0,0,0,269.006,388.612Z" transform="translate(-205.868 -283.658)" fill="#fff"/>
    </g>
  </g>
</svg>
