<svg xmlns="http://www.w3.org/2000/svg" xmlns:xlink="http://www.w3.org/1999/xlink" width="256" height="256" viewBox="0 0 256 256">
  <defs>
    <clipPath id="clip-financial">
      <rect width="256" height="256"/>
    </clipPath>
  </defs>
  <g id="financial" clip-path="url(#clip-financial)">
    <g id="Analysis-report-document-develop-infromation" transform="translate(-1.995 -2)">
      <path id="Path_12580" data-name="Path 12580" d="M256.733,50.171,209.8,3.237A4.407,4.407,0,0,0,206.771,2H100.1A12.838,12.838,0,0,0,87.3,14.8V40.613a89.485,89.485,0,0,0,0,178.773V245.2A12.838,12.838,0,0,0,100.1,258H245.171a12.838,12.838,0,0,0,12.8-12.8V53.2a4.408,4.408,0,0,0-1.237-3.029Zm-45.7-33.621,32.384,32.384H215.3a4.267,4.267,0,0,1-4.267-4.267ZM10.5,130A81.165,81.165,0,0,1,87.3,49.061v79.189L31.411,184.144A80.55,80.55,0,0,1,10.5,130Zm26.923,60.16L93.32,134.267H172.51A80.909,80.909,0,0,1,37.427,190.16ZM249.437,245.2a4.267,4.267,0,0,1-4.267,4.267H100.1a4.267,4.267,0,0,1-4.267-4.267V219.387A89.66,89.66,0,0,0,181.171,130a4.267,4.267,0,0,0-4.267-4.267H95.837V14.8a4.267,4.267,0,0,1,4.267-4.267H202.5V44.667a12.838,12.838,0,0,0,12.8,12.8h34.133Z" transform="translate(0 0)" fill="#f92524"/>
      <path id="Path_12581" data-name="Path 12581" d="M30.267,7A4.267,4.267,0,0,0,26,11.267V96.6a4.267,4.267,0,0,0,4.267,4.267H115.6a4.267,4.267,0,0,0,4.267-4.267A89.7,89.7,0,0,0,30.267,7Zm4.267,85.333V15.661a81.139,81.139,0,0,1,76.672,76.672Z" transform="translate(78.371 16.333)" fill="#f92524"/>
      <path id="Path_12582" data-name="Path 12582" d="M78.4,40a38.4,38.4,0,1,0,38.4,38.4A38.4,38.4,0,0,0,78.4,40Zm0,68.267A29.867,29.867,0,1,1,108.267,78.4,29.867,29.867,0,0,1,78.4,108.267Z" transform="translate(124.104 124.133)" fill="#f92524"/>
      <path id="Path_12583" data-name="Path 12583" d="M59.11,67.876l-9.783-9.783-6.033,6.033,12.8,12.8a4.267,4.267,0,0,0,6.033,0l25.6-25.6-6.033-6.033Z" transform="translate(134.861 141.424)" fill="#f92524"/>
      <path id="Path_12584" data-name="Path 12584" d="M50,19H84.133v8.533H50Z" transform="translate(156.771 55.533)" fill="#f92524"/>
      <path id="Path_12585" data-name="Path 12585" d="M50,25H84.133v8.533H50Z" transform="translate(156.771 75.133)" fill="#f92524"/>
      <path id="Path_12586" data-name="Path 12586" d="M50,31H84.133v8.533H50Z" transform="translate(156.771 94.733)" fill="#f92524"/>
    </g>
  </g>
</svg>
