<?xml version="1.0" encoding="UTF-8"?>
<svg xmlns="http://www.w3.org/2000/svg" xmlns:xlink="http://www.w3.org/1999/xlink" width="172pt" height="86pt" viewBox="0 0 172 86" version="1.1">
<g id="surface1">
<path style=" stroke:none;fill-rule:nonzero;fill:rgb(100%,100%,100%);fill-opacity:1;" d="M 39.027344 34.902344 C 38.925781 34.5 38.726562 34.199219 38.324219 34.101562 C 37.925781 33.902344 37.425781 33.902344 36.925781 33.902344 C 35.824219 33.902344 35.324219 34.101562 35.324219 34.601562 C 35.324219 35 36.226562 35.5 38.125 35.800781 C 39.625 36.101562 41.226562 36.5 42.625 37.101562 C 43.726562 37.601562 44.324219 38.402344 44.324219 39.699219 C 44.324219 41.101562 43.625 42.101562 42.324219 42.800781 C 41.027344 43.5 39.226562 43.902344 36.925781 43.902344 C 34.824219 43.902344 33.226562 43.5 31.925781 42.699219 C 30.625 41.902344 30.027344 41 30.027344 39.800781 L 34.925781 39.800781 C 35.027344 40.199219 35.324219 40.601562 35.726562 40.800781 C 36.226562 41 36.726562 41.101562 37.226562 41.101562 C 37.726562 41.101562 38.324219 41 38.824219 40.902344 C 39.226562 40.699219 39.425781 40.5 39.425781 40.199219 C 39.425781 39.800781 38.527344 39.300781 36.625 39 C 35.125 38.699219 33.527344 38.300781 32.125 37.699219 C 31.027344 37.199219 30.425781 36.300781 30.425781 35 C 30.425781 33.800781 31.027344 32.800781 32.324219 32.101562 C 33.625 31.402344 35.226562 31.101562 37.226562 31.101562 C 39.324219 31.101562 40.925781 31.5 42.027344 32.199219 C 43.027344 32.800781 43.726562 33.800781 44.027344 35 Z M 39.027344 34.902344 "/>
<path style=" stroke:none;fill-rule:nonzero;fill:rgb(100%,100%,100%);fill-opacity:1;" d="M 30.625 40.300781 C 30.824219 41 31.324219 41.601562 32.226562 42.199219 C 33.425781 42.902344 35.027344 43.300781 37.027344 43.300781 C 39.125 43.300781 40.925781 43 42.125 42.300781 C 43.324219 41.699219 43.824219 40.800781 43.824219 39.699219 C 43.824219 38.601562 43.425781 38 42.425781 37.601562 C 41.027344 37 39.527344 36.601562 38.027344 36.402344 C 35.726562 35.902344 34.726562 35.402344 34.726562 34.601562 C 34.726562 33.800781 35.425781 33.402344 36.925781 33.402344 C 37.425781 33.402344 38.027344 33.5 38.527344 33.699219 C 38.925781 33.800781 39.226562 34.101562 39.425781 34.5 L 43.226562 34.5 C 42.925781 33.699219 42.324219 33.101562 41.625 32.699219 C 40.625 32.101562 39.125 31.699219 37.125 31.699219 C 35.226562 31.699219 33.625 32 32.425781 32.601562 C 31.324219 33.199219 30.824219 34 30.824219 35 C 30.824219 36.101562 31.226562 36.800781 32.226562 37.199219 C 33.625 37.800781 35.125 38.199219 36.625 38.402344 C 38.925781 38.800781 39.824219 39.300781 39.824219 40.101562 C 39.824219 40.402344 39.726562 40.902344 38.925781 41.300781 C 38.324219 41.5 37.726562 41.601562 37.125 41.601562 C 36.527344 41.601562 35.925781 41.5 35.425781 41.300781 C 35.027344 41.101562 34.625 40.800781 34.425781 40.402344 Z M 30.625 40.300781 "/>
<path style=" stroke:none;fill-rule:nonzero;fill:rgb(100%,100%,100%);fill-opacity:1;" d="M 44.996094 31.453125 L 50.195312 31.453125 L 50.195312 38.652344 C 50.195312 39.253906 50.296875 39.851562 50.695312 40.253906 C 50.996094 40.652344 51.695312 40.851562 52.59375 40.851562 C 53.496094 40.851562 54.09375 40.652344 54.496094 40.253906 C 54.894531 39.753906 55.09375 39.253906 54.996094 38.652344 L 54.996094 31.453125 L 60.195312 31.453125 L 60.195312 38.253906 C 60.195312 40.152344 59.59375 41.550781 58.394531 42.453125 C 57.195312 43.351562 55.296875 43.753906 52.59375 43.753906 C 50.09375 43.753906 48.195312 43.351562 46.894531 42.453125 C 45.59375 41.550781 44.996094 40.152344 44.996094 38.152344 Z M 44.996094 31.453125 "/>
<path style=" stroke:none;fill-rule:nonzero;fill:rgb(100%,100%,100%);fill-opacity:1;" d="M 45.496094 31.953125 L 45.496094 38.253906 C 45.496094 40.050781 45.996094 41.351562 47.195312 42.152344 C 48.394531 42.953125 50.195312 43.351562 52.59375 43.351562 C 55.09375 43.351562 56.894531 42.953125 57.996094 42.152344 C 59.09375 41.351562 59.59375 40.152344 59.59375 38.351562 L 59.59375 32.050781 L 55.496094 32.050781 L 55.496094 38.753906 C 55.496094 39.453125 55.296875 40.253906 54.796875 40.753906 C 54.394531 41.253906 53.59375 41.453125 52.59375 41.453125 C 51.496094 41.453125 50.695312 41.253906 50.296875 40.652344 C 49.894531 40.050781 49.695312 39.351562 49.695312 38.652344 L 49.695312 31.953125 Z M 45.496094 31.953125 "/>
<path style=" stroke:none;fill-rule:nonzero;fill:rgb(100%,100%,100%);fill-opacity:1;" d="M 60.769531 43.550781 L 60.769531 40.652344 L 68.269531 34.25 L 61.070312 34.25 L 61.070312 31.449219 L 74.671875 31.449219 L 74.671875 34.25 L 66.972656 40.75 L 74.972656 40.75 L 74.972656 43.550781 Z M 60.769531 43.550781 "/>
<path style=" stroke:none;fill-rule:nonzero;fill:rgb(100%,100%,100%);fill-opacity:1;" d="M 61.269531 42.949219 L 74.371094 42.949219 L 74.371094 41.152344 L 65.472656 41.152344 L 74.070312 33.949219 L 74.070312 31.949219 L 61.570312 31.949219 L 61.570312 33.75 L 69.671875 33.75 L 61.269531 40.949219 Z M 61.269531 42.949219 "/>
<path style=" stroke:none;fill-rule:nonzero;fill:rgb(100%,100%,100%);fill-opacity:1;" d="M 75.546875 31.453125 L 80.746094 31.453125 L 80.746094 38.652344 C 80.746094 39.253906 80.847656 39.851562 81.246094 40.253906 C 81.546875 40.652344 82.246094 40.851562 83.148438 40.851562 C 84.046875 40.851562 84.648438 40.652344 85.046875 40.253906 C 85.445312 39.753906 85.648438 39.253906 85.546875 38.652344 L 85.546875 31.453125 L 90.746094 31.453125 L 90.746094 38.253906 C 90.746094 40.152344 90.148438 41.550781 88.945312 42.453125 C 87.746094 43.351562 85.847656 43.753906 83.148438 43.753906 C 80.648438 43.753906 78.746094 43.351562 77.445312 42.453125 C 76.148438 41.550781 75.546875 40.152344 75.546875 38.152344 Z M 75.546875 31.453125 "/>
<path style=" stroke:none;fill-rule:nonzero;fill:rgb(100%,100%,100%);fill-opacity:1;" d="M 76.046875 31.953125 L 76.046875 38.253906 C 76.046875 40.050781 76.546875 41.351562 77.746094 42.152344 C 78.945312 42.953125 80.746094 43.351562 83.148438 43.351562 C 85.648438 43.351562 87.445312 42.953125 88.546875 42.152344 C 89.648438 41.351562 90.148438 40.152344 90.148438 38.351562 L 90.148438 32.050781 L 86.046875 32.050781 L 86.046875 38.753906 C 86.046875 39.453125 85.847656 40.253906 85.347656 40.753906 C 84.945312 41.253906 84.148438 41.453125 83.148438 41.453125 C 82.046875 41.453125 81.246094 41.253906 80.847656 40.652344 C 80.445312 40.050781 80.246094 39.351562 80.246094 38.652344 L 80.246094 31.953125 Z M 76.046875 31.953125 "/>
<path style=" stroke:none;fill-rule:nonzero;fill:rgb(100%,100%,100%);fill-opacity:1;" d="M 91.503906 31.449219 L 96.703125 31.449219 L 96.703125 34.949219 L 100.300781 31.449219 L 106.203125 31.449219 L 100.300781 37.550781 L 106.003906 43.550781 L 100.101562 43.550781 L 96.800781 39.75 L 96.800781 43.550781 L 91.703125 43.550781 L 91.703125 31.449219 Z M 91.503906 31.449219 "/>
<path style=" stroke:none;fill-rule:nonzero;fill:rgb(100%,100%,100%);fill-opacity:1;" d="M 96.101562 38.25 L 100.203125 42.949219 L 104.703125 42.949219 L 99.503906 37.550781 L 104.902344 31.949219 L 100.402344 31.949219 L 96.101562 36.152344 L 96.101562 31.949219 L 92.003906 31.949219 L 92.003906 42.949219 L 96.101562 42.949219 Z M 96.101562 38.25 "/>
<path style=" stroke:none;fill-rule:nonzero;fill:rgb(100%,100%,100%);fill-opacity:1;" d="M 107.300781 43.550781 L 107.300781 31.449219 L 112.5 31.449219 L 112.5 43.550781 Z M 107.300781 43.550781 "/>
<path style=" stroke:none;fill-rule:nonzero;fill:rgb(100%,100%,100%);fill-opacity:1;" d="M 107.800781 42.949219 L 111.898438 42.949219 L 111.898438 31.949219 L 107.800781 31.949219 Z M 107.800781 42.949219 "/>
<path style=" stroke:none;fill-rule:nonzero;fill:rgb(0%,29.019608%,61.176471%);fill-opacity:1;" d="M 39.027344 34.902344 C 38.925781 34.5 38.726562 34.199219 38.324219 34.101562 C 37.925781 33.902344 37.425781 33.902344 36.925781 33.902344 C 35.824219 33.902344 35.324219 34.101562 35.324219 34.601562 C 35.324219 35 36.226562 35.5 38.125 35.800781 C 39.625 36.101562 41.226562 36.5 42.625 37.101562 C 43.726562 37.601562 44.324219 38.402344 44.324219 39.699219 C 44.324219 41.101562 43.625 42.101562 42.324219 42.800781 C 41.027344 43.5 39.226562 43.902344 36.925781 43.902344 C 34.824219 43.902344 33.226562 43.5 31.925781 42.699219 C 30.625 41.902344 30.027344 41 30.027344 39.800781 L 34.925781 39.800781 C 35.027344 40.199219 35.324219 40.601562 35.726562 40.800781 C 36.226562 41 36.726562 41.101562 37.226562 41.101562 C 37.726562 41.101562 38.324219 41 38.824219 40.902344 C 39.226562 40.699219 39.425781 40.5 39.425781 40.199219 C 39.425781 39.800781 38.527344 39.300781 36.625 39 C 35.125 38.699219 33.527344 38.300781 32.125 37.699219 C 31.027344 37.199219 30.425781 36.300781 30.425781 35 C 30.425781 33.800781 31.027344 32.800781 32.324219 32.101562 C 33.625 31.402344 35.226562 31.101562 37.226562 31.101562 C 39.324219 31.101562 40.925781 31.5 42.027344 32.199219 C 43.027344 32.800781 43.726562 33.800781 44.027344 35 Z M 39.027344 34.902344 "/>
<path style=" stroke:none;fill-rule:nonzero;fill:rgb(0%,29.019608%,61.176471%);fill-opacity:1;" d="M 44.996094 31.453125 L 50.195312 31.453125 L 50.195312 38.652344 C 50.195312 39.253906 50.296875 39.851562 50.695312 40.253906 C 50.996094 40.652344 51.695312 40.851562 52.59375 40.851562 C 53.496094 40.851562 54.09375 40.652344 54.496094 40.253906 C 54.894531 39.753906 55.09375 39.253906 54.996094 38.652344 L 54.996094 31.453125 L 60.195312 31.453125 L 60.195312 38.253906 C 60.195312 40.152344 59.59375 41.550781 58.394531 42.453125 C 57.195312 43.351562 55.296875 43.753906 52.59375 43.753906 C 50.09375 43.753906 48.195312 43.351562 46.894531 42.453125 C 45.59375 41.550781 44.996094 40.152344 44.996094 38.152344 Z M 44.996094 31.453125 "/>
<path style=" stroke:none;fill-rule:nonzero;fill:rgb(0%,29.019608%,61.176471%);fill-opacity:1;" d="M 60.769531 43.550781 L 60.769531 40.652344 L 68.269531 34.25 L 61.070312 34.25 L 61.070312 31.449219 L 74.671875 31.449219 L 74.671875 34.25 L 66.972656 40.75 L 74.972656 40.75 L 74.972656 43.550781 Z M 60.769531 43.550781 "/>
<path style=" stroke:none;fill-rule:nonzero;fill:rgb(0%,29.019608%,61.176471%);fill-opacity:1;" d="M 75.546875 31.453125 L 80.746094 31.453125 L 80.746094 38.652344 C 80.746094 39.253906 80.847656 39.851562 81.246094 40.253906 C 81.546875 40.652344 82.246094 40.851562 83.148438 40.851562 C 84.046875 40.851562 84.648438 40.652344 85.046875 40.253906 C 85.445312 39.753906 85.648438 39.253906 85.546875 38.652344 L 85.546875 31.453125 L 90.746094 31.453125 L 90.746094 38.253906 C 90.746094 40.152344 90.148438 41.550781 88.945312 42.453125 C 87.746094 43.351562 85.847656 43.753906 83.148438 43.753906 C 80.648438 43.753906 78.746094 43.351562 77.445312 42.453125 C 76.148438 41.550781 75.546875 40.152344 75.546875 38.152344 Z M 75.546875 31.453125 "/>
<path style=" stroke:none;fill-rule:nonzero;fill:rgb(0%,29.019608%,61.176471%);fill-opacity:1;" d="M 91.503906 31.449219 L 96.703125 31.449219 L 96.703125 34.949219 L 100.300781 31.449219 L 106.203125 31.449219 L 100.300781 37.550781 L 106.003906 43.550781 L 100.101562 43.550781 L 96.800781 39.75 L 96.800781 43.550781 L 91.703125 43.550781 L 91.703125 31.449219 Z M 91.503906 31.449219 "/>
<path style=" stroke:none;fill-rule:nonzero;fill:rgb(0%,29.019608%,61.176471%);fill-opacity:1;" d="M 107.300781 43.550781 L 107.300781 31.449219 L 112.5 31.449219 L 112.5 43.550781 Z M 107.300781 43.550781 "/>
<path style=" stroke:none;fill-rule:nonzero;fill:rgb(100%,100%,100%);fill-opacity:1;" d="M 26.921875 33.542969 L 16.222656 26.144531 C 16.222656 26.144531 11.121094 30.542969 5.621094 32.644531 L 19.519531 42.242188 L 18.921875 42.84375 L 13.121094 38.945312 C 13.121094 38.945312 10.421875 37.042969 5.621094 40.042969 L 16.222656 47.445312 C 16.222656 47.445312 20.621094 43.042969 26.820312 40.945312 L 12.921875 31.242188 L 13.519531 30.742188 L 18.222656 34.042969 C 18.320312 34.144531 21.722656 37.042969 26.921875 33.542969 Z M 26.921875 33.542969 "/>
<path style=" stroke:none;fill-rule:nonzero;fill:rgb(89.803922%,0%,9.803922%);fill-opacity:1;" d="M 26.898438 33.53125 L 16.199219 26.132812 C 16.199219 26.132812 11.097656 30.53125 5.597656 32.632812 L 19.496094 42.230469 L 18.898438 42.730469 L 13.097656 38.832031 C 13.097656 38.832031 10.398438 36.929688 5.597656 39.929688 L 16.199219 47.332031 C 16.199219 47.332031 20.597656 42.929688 26.796875 40.832031 L 12.898438 31.132812 L 13.496094 30.632812 L 18.398438 34.132812 C 18.398438 34.132812 21.699219 37.03125 26.898438 33.53125 Z M 26.898438 33.53125 "/>
<path style=" stroke:none;fill-rule:nonzero;fill:rgb(89.803922%,0%,9.803922%);fill-opacity:1;" d="M 16.296875 47.53125 L 5.597656 40.03125 L 5.699219 39.929688 C 7.496094 38.832031 9.199219 38.230469 10.796875 38.230469 C 11.699219 38.230469 12.496094 38.429688 13.296875 38.832031 L 18.996094 42.730469 L 19.398438 42.332031 L 5.496094 32.730469 L 5.597656 32.632812 C 10.996094 30.53125 16.097656 26.132812 16.199219 26.132812 L 16.296875 26.132812 L 27.097656 33.53125 L 26.996094 33.632812 C 25.296875 34.832031 23.597656 35.332031 21.898438 35.332031 C 20.597656 35.332031 19.398438 34.929688 18.296875 34.230469 L 13.597656 30.929688 L 13.097656 31.332031 L 26.996094 41.03125 L 26.796875 41.132812 C 20.796875 43.132812 16.398438 47.429688 16.296875 47.53125 Z M 5.796875 40.03125 L 16.199219 47.332031 C 16.699219 46.832031 20.898438 42.929688 26.597656 40.929688 L 12.796875 31.230469 L 13.597656 30.632812 L 18.398438 34.132812 C 19.398438 34.832031 20.597656 35.230469 21.898438 35.230469 C 23.496094 35.230469 25.097656 34.632812 26.796875 33.632812 L 16.296875 26.332031 C 15.796875 26.730469 10.996094 30.730469 5.898438 32.730469 L 19.699219 42.332031 L 18.996094 42.929688 L 18.898438 42.929688 L 13.097656 39.03125 C 12.398438 38.632812 11.496094 38.429688 10.699219 38.429688 C 9.199219 38.429688 7.597656 38.929688 5.796875 40.03125 Z M 5.796875 40.03125 "/>
<path style=" stroke:none;fill-rule:nonzero;fill:rgb(32.941176%,67.058824%,20.392157%);fill-opacity:1;" d="M 125.8125 40.921875 L 120.210938 40.921875 L 119.410156 43.519531 L 114.410156 43.519531 L 120.410156 27.621094 L 125.8125 27.621094 L 131.8125 43.519531 L 126.710938 43.519531 Z M 124.8125 37.519531 L 123.011719 31.820312 L 121.3125 37.519531 Z M 124.8125 37.519531 "/>
<path style=" stroke:none;fill-rule:nonzero;fill:rgb(32.941176%,67.058824%,20.392157%);fill-opacity:1;" d="M 144.945312 43.582031 L 140.84375 43.582031 L 140.84375 41.679688 C 140.34375 42.382812 139.742188 42.882812 138.945312 43.28125 C 138.242188 43.582031 137.445312 43.78125 136.644531 43.78125 C 135.445312 43.78125 134.445312 43.382812 133.742188 42.679688 C 133.042969 41.980469 132.742188 40.78125 132.742188 39.28125 L 132.742188 31.980469 L 137.144531 31.980469 L 137.144531 38.28125 C 137.144531 38.980469 137.242188 39.480469 137.542969 39.78125 C 137.84375 40.082031 138.242188 40.28125 138.644531 40.28125 C 139.144531 40.28125 139.644531 40.082031 139.945312 39.679688 C 140.242188 39.28125 140.445312 38.582031 140.445312 37.480469 L 140.445312 31.980469 L 144.84375 31.980469 Z M 144.945312 43.582031 "/>
<path style=" stroke:none;fill-rule:nonzero;fill:rgb(32.941176%,67.058824%,20.392157%);fill-opacity:1;" d="M 152.976562 27.621094 L 152.976562 32.019531 L 155.378906 32.019531 L 155.378906 35.21875 L 152.976562 35.21875 L 152.976562 39.320312 C 152.976562 39.621094 152.976562 40.019531 153.078125 40.320312 C 153.277344 40.621094 153.578125 40.71875 153.878906 40.71875 C 154.378906 40.71875 154.777344 40.621094 155.277344 40.421875 L 155.578125 43.519531 C 154.578125 43.71875 153.578125 43.820312 152.476562 43.921875 C 151.378906 43.921875 150.578125 43.820312 150.078125 43.519531 C 149.578125 43.21875 149.175781 42.820312 148.878906 42.21875 C 148.675781 41.621094 148.476562 40.71875 148.476562 39.421875 L 148.476562 35.320312 L 146.878906 35.320312 L 146.878906 32.121094 L 148.476562 32.121094 L 148.476562 30.019531 Z M 152.976562 27.621094 "/>
<path style=" stroke:none;fill-rule:nonzero;fill:rgb(32.941176%,67.058824%,20.392157%);fill-opacity:1;" d="M 157.023438 37.804688 C 156.921875 36.203125 157.621094 34.605469 158.820312 33.503906 C 160.023438 32.402344 161.621094 31.804688 163.621094 31.804688 C 165.921875 31.804688 167.722656 32.503906 168.820312 33.804688 C 170.820312 36.304688 170.722656 39.902344 168.523438 42.203125 C 167.320312 43.304688 165.722656 43.902344 163.621094 43.902344 C 161.722656 43.902344 160.222656 43.402344 159.121094 42.503906 C 157.722656 41.304688 156.921875 39.605469 157.023438 37.804688 Z M 161.421875 37.804688 C 161.421875 38.804688 161.621094 39.605469 162.023438 40.105469 C 162.421875 40.605469 163.023438 40.804688 163.621094 40.804688 C 164.222656 40.804688 164.820312 40.503906 165.222656 40.105469 C 165.621094 39.605469 165.820312 38.804688 165.820312 37.804688 C 165.820312 36.804688 165.621094 36.105469 165.222656 35.605469 C 164.820312 35.105469 164.320312 34.902344 163.722656 34.902344 C 163.121094 34.902344 162.523438 35.203125 162.121094 35.605469 C 161.621094 36.105469 161.421875 36.804688 161.421875 37.804688 Z M 161.421875 37.804688 "/>
<path style=" stroke:none;fill-rule:nonzero;fill:rgb(32.941176%,67.058824%,20.392157%);fill-opacity:1;" d="M 6.183594 48.667969 L 24.882812 48.667969 L 24.882812 53.96875 L 13.78125 53.96875 L 13.78125 58.269531 L 23.28125 58.269531 L 23.28125 63.269531 L 13.78125 63.269531 L 13.78125 73.269531 L 6.183594 73.269531 Z M 6.183594 48.667969 "/>
<path style=" stroke:none;fill-rule:nonzero;fill:rgb(32.941176%,67.058824%,20.392157%);fill-opacity:1;" d="M 28.585938 48.667969 L 36.1875 48.667969 L 36.1875 73.167969 L 28.585938 73.167969 Z M 28.585938 48.667969 "/>
<path style=" stroke:none;fill-rule:nonzero;fill:rgb(32.941176%,67.058824%,20.392157%);fill-opacity:1;" d="M 40.886719 48.667969 L 47.984375 48.667969 L 57.183594 62.269531 L 57.183594 48.667969 L 64.285156 48.667969 L 64.285156 73.167969 L 57.183594 73.167969 L 47.984375 59.667969 L 47.984375 73.167969 L 40.886719 73.167969 Z M 40.886719 48.667969 "/>
<path style=" stroke:none;fill-rule:nonzero;fill:rgb(32.941176%,67.058824%,20.392157%);fill-opacity:1;" d="M 83.492188 69.167969 L 74.890625 69.167969 L 73.691406 73.265625 L 65.890625 73.265625 L 75.09375 48.765625 L 83.390625 48.765625 L 92.59375 73.265625 L 84.691406 73.265625 Z M 81.890625 63.867188 L 79.191406 55.066406 L 76.492188 63.867188 Z M 81.890625 63.867188 "/>
<path style=" stroke:none;fill-rule:nonzero;fill:rgb(32.941176%,67.058824%,20.392157%);fill-opacity:1;" d="M 94.335938 48.667969 L 101.4375 48.667969 L 110.636719 62.269531 L 110.636719 48.667969 L 117.734375 48.667969 L 117.734375 73.167969 L 110.636719 73.167969 L 101.4375 59.667969 L 101.4375 73.167969 L 94.335938 73.167969 Z M 94.335938 48.667969 "/>
<path style=" stroke:none;fill-rule:nonzero;fill:rgb(32.941176%,67.058824%,20.392157%);fill-opacity:1;" d="M 138.5 63.222656 L 145.101562 65.222656 C 144.699219 66.921875 144 68.519531 143 69.921875 C 142.101562 71.121094 140.800781 72.121094 139.398438 72.722656 C 138 73.320312 136.199219 73.722656 134 73.722656 C 131.300781 73.722656 129.101562 73.320312 127.5 72.519531 C 125.800781 71.722656 124.398438 70.421875 123.101562 68.421875 C 121.800781 66.421875 121.300781 63.921875 121.300781 60.921875 C 121.300781 56.820312 122.398438 53.722656 124.5 51.519531 C 126.699219 49.320312 129.699219 48.222656 133.699219 48.222656 C 136.800781 48.222656 139.199219 48.820312 141 50.121094 C 142.800781 51.421875 144.101562 53.320312 145 55.921875 L 138.300781 57.421875 C 138.101562 56.820312 137.898438 56.320312 137.601562 55.820312 C 137.199219 55.222656 136.699219 54.820312 136 54.519531 C 133.898438 53.519531 131.300781 54.222656 130 56.121094 C 129.300781 57.121094 129 58.722656 129 60.921875 C 129 63.621094 129.398438 65.519531 130.199219 66.519531 C 131 67.519531 132.199219 68.019531 133.699219 68.019531 C 135.199219 68.019531 136.199219 67.621094 137 66.820312 C 137.601562 65.921875 138.101562 64.722656 138.5 63.222656 Z M 138.5 63.222656 "/>
<path style=" stroke:none;fill-rule:nonzero;fill:rgb(32.941176%,67.058824%,20.392157%);fill-opacity:1;" d="M 148.011719 48.667969 L 168.3125 48.667969 L 168.3125 53.867188 L 155.613281 53.867188 L 155.613281 57.769531 L 167.410156 57.769531 L 167.410156 62.769531 L 155.613281 62.769531 L 155.613281 67.570312 L 168.710938 67.570312 L 168.710938 73.167969 L 148.011719 73.167969 Z M 148.011719 48.667969 "/>
<path style=" stroke:none;fill-rule:nonzero;fill:rgb(0%,29.019608%,61.176471%);fill-opacity:1;" d="M 6.050781 82.742188 L 8.652344 77.242188 L 9.652344 77.242188 L 12.453125 82.742188 L 11.453125 82.742188 L 10.652344 81.042969 L 7.753906 81.042969 L 6.953125 82.742188 Z M 8.050781 80.441406 L 10.351562 80.441406 L 9.652344 78.941406 C 9.453125 78.441406 9.253906 78.140625 9.152344 77.84375 C 9.050781 78.242188 8.953125 78.542969 8.753906 78.84375 Z M 8.050781 80.441406 "/>
<path style=" stroke:none;fill-rule:nonzero;fill:rgb(0%,29.019608%,61.176471%);fill-opacity:1;" d="M 16.886719 82.679688 L 16.886719 78.679688 L 17.6875 78.679688 L 17.6875 79.28125 C 17.789062 79.078125 17.988281 78.878906 18.1875 78.679688 C 18.386719 78.578125 18.589844 78.578125 18.6875 78.578125 C 18.988281 78.578125 19.289062 78.679688 19.589844 78.78125 L 19.289062 79.378906 C 19.089844 79.28125 18.886719 79.28125 18.6875 79.28125 C 18.488281 79.28125 18.386719 79.28125 18.1875 79.378906 C 18.089844 79.480469 17.886719 79.578125 17.886719 79.78125 C 17.789062 80.078125 17.789062 80.28125 17.789062 80.578125 L 17.789062 82.679688 Z M 16.886719 82.679688 "/>
<path style=" stroke:none;fill-rule:nonzero;fill:rgb(0%,29.019608%,61.176471%);fill-opacity:1;" d="M 23.894531 82.679688 L 23.894531 78.679688 L 24.695312 78.679688 L 24.695312 79.28125 C 24.796875 79.078125 24.996094 78.878906 25.195312 78.679688 C 25.394531 78.578125 25.59375 78.578125 25.695312 78.578125 C 25.996094 78.578125 26.296875 78.679688 26.59375 78.78125 L 26.296875 79.378906 C 26.09375 79.28125 25.894531 79.28125 25.695312 79.28125 C 25.496094 79.28125 25.394531 79.28125 25.195312 79.378906 C 25.09375 79.480469 24.894531 79.578125 24.894531 79.78125 C 24.796875 80.078125 24.796875 80.28125 24.796875 80.578125 L 24.796875 82.679688 Z M 23.894531 82.679688 "/>
<path style=" stroke:none;fill-rule:nonzero;fill:rgb(0%,29.019608%,61.176471%);fill-opacity:1;" d="M 34.074219 82.179688 C 33.773438 82.378906 33.476562 82.480469 33.175781 82.578125 C 32.875 82.679688 32.574219 82.679688 32.273438 82.679688 C 31.875 82.679688 31.375 82.578125 30.976562 82.378906 C 30.675781 82.179688 30.574219 81.878906 30.574219 81.578125 C 30.574219 81.378906 30.675781 81.179688 30.773438 81.078125 C 30.875 80.878906 31.074219 80.78125 31.175781 80.679688 C 31.375 80.578125 31.574219 80.480469 31.773438 80.480469 C 31.976562 80.480469 32.273438 80.378906 32.476562 80.378906 C 32.976562 80.378906 33.476562 80.28125 33.976562 80.179688 C 33.976562 80.078125 33.976562 79.980469 33.976562 79.980469 C 33.976562 79.78125 33.875 79.578125 33.773438 79.378906 C 33.476562 79.179688 33.175781 79.078125 32.773438 79.179688 C 32.476562 79.179688 32.175781 79.179688 31.875 79.378906 C 31.675781 79.480469 31.476562 79.679688 31.476562 79.980469 L 30.675781 79.878906 C 30.773438 79.578125 30.875 79.378906 31.074219 79.179688 C 31.273438 78.980469 31.574219 78.878906 31.773438 78.78125 C 32.175781 78.679688 32.476562 78.679688 32.875 78.679688 C 33.175781 78.679688 33.574219 78.679688 33.875 78.78125 C 34.074219 78.878906 34.273438 78.980469 34.476562 79.078125 C 34.574219 79.179688 34.675781 79.378906 34.773438 79.578125 C 34.773438 79.78125 34.773438 79.980469 34.773438 80.179688 L 34.773438 81.078125 C 34.773438 81.480469 34.773438 81.878906 34.875 82.28125 C 34.875 82.480469 34.976562 82.578125 35.074219 82.78125 L 34.175781 82.78125 C 34.175781 82.578125 34.074219 82.378906 34.074219 82.179688 Z M 33.976562 80.679688 C 33.476562 80.78125 33.074219 80.878906 32.574219 80.980469 C 32.375 80.980469 32.074219 81.078125 31.875 81.078125 C 31.773438 81.078125 31.675781 81.179688 31.574219 81.28125 C 31.476562 81.378906 31.476562 81.480469 31.476562 81.578125 C 31.476562 81.78125 31.574219 81.980469 31.773438 81.980469 C 31.976562 82.078125 32.273438 82.179688 32.476562 82.179688 C 32.773438 82.179688 33.074219 82.078125 33.375 81.980469 C 33.574219 81.878906 33.773438 81.679688 33.976562 81.480469 C 34.074219 81.28125 34.074219 81.078125 34.074219 80.78125 Z M 33.976562 80.679688 "/>
<path style=" stroke:none;fill-rule:nonzero;fill:rgb(0%,29.019608%,61.176471%);fill-opacity:1;" d="M 40.003906 82.679688 L 40.003906 78.679688 L 40.804688 78.679688 L 40.804688 79.28125 C 41.203125 78.78125 41.804688 78.578125 42.402344 78.578125 C 42.703125 78.578125 43.003906 78.578125 43.203125 78.679688 C 43.402344 78.78125 43.605469 78.878906 43.804688 78.980469 C 43.902344 79.078125 44.003906 79.28125 44.105469 79.480469 C 44.105469 79.679688 44.203125 79.878906 44.105469 80.179688 L 44.105469 82.578125 L 43.304688 82.578125 L 43.304688 80.179688 C 43.304688 79.980469 43.304688 79.78125 43.203125 79.578125 C 43.105469 79.480469 43.003906 79.28125 42.804688 79.28125 C 42.605469 79.179688 42.402344 79.179688 42.203125 79.179688 C 41.902344 79.179688 41.503906 79.28125 41.304688 79.480469 C 41.003906 79.679688 40.902344 79.980469 40.902344 80.480469 L 40.902344 82.679688 Z M 40.003906 82.679688 "/>
<path style=" stroke:none;fill-rule:nonzero;fill:rgb(0%,29.019608%,61.176471%);fill-opacity:1;" d="M 48.917969 83.078125 L 49.71875 83.179688 C 49.71875 83.378906 49.816406 83.480469 50.019531 83.578125 C 50.316406 83.679688 50.617188 83.78125 50.917969 83.78125 C 51.21875 83.78125 51.519531 83.78125 51.816406 83.578125 C 52.019531 83.480469 52.21875 83.28125 52.21875 83.078125 C 52.316406 82.78125 52.316406 82.480469 52.316406 82.179688 C 51.917969 82.480469 51.417969 82.679688 50.917969 82.679688 C 50.316406 82.679688 49.71875 82.480469 49.316406 82.078125 C 48.917969 81.679688 48.71875 81.179688 48.71875 80.679688 C 48.71875 80.28125 48.816406 79.980469 49.019531 79.679688 C 49.21875 79.378906 49.417969 79.078125 49.71875 78.980469 C 50.117188 78.78125 50.519531 78.679688 50.917969 78.679688 C 51.417969 78.679688 52.019531 78.878906 52.417969 79.28125 L 52.417969 78.78125 L 53.21875 78.78125 L 53.21875 82.179688 C 53.21875 82.679688 53.21875 83.078125 53.019531 83.480469 C 52.816406 83.78125 52.617188 83.980469 52.316406 84.078125 C 51.917969 84.28125 51.519531 84.28125 51.019531 84.28125 C 50.519531 84.28125 50.019531 84.179688 49.617188 83.980469 C 49.117188 83.78125 48.917969 83.480469 48.917969 83.078125 Z M 49.617188 80.679688 C 49.617188 81.078125 49.71875 81.480469 50.019531 81.78125 C 50.316406 81.980469 50.617188 82.179688 51.019531 82.179688 C 51.417969 82.179688 51.71875 82.078125 52.019531 81.78125 C 52.316406 81.480469 52.417969 81.078125 52.417969 80.679688 C 52.417969 80.28125 52.316406 79.878906 52.019531 79.578125 C 51.71875 79.378906 51.417969 79.179688 51.019531 79.179688 C 50.617188 79.179688 50.316406 79.28125 50.019531 79.578125 C 49.71875 79.878906 49.617188 80.28125 49.617188 80.679688 Z M 49.617188 80.679688 "/>
<path style=" stroke:none;fill-rule:nonzero;fill:rgb(0%,29.019608%,61.176471%);fill-opacity:1;" d="M 61.617188 81.378906 L 62.519531 81.480469 C 62.417969 81.878906 62.117188 82.179688 61.71875 82.378906 C 61.320312 82.578125 60.820312 82.78125 60.320312 82.679688 C 59.71875 82.679688 59.117188 82.480469 58.617188 82.179688 C 58.21875 81.78125 57.917969 81.28125 58.019531 80.679688 C 58.019531 80.078125 58.21875 79.480469 58.617188 79.078125 C 59.117188 78.679688 59.71875 78.480469 60.320312 78.480469 C 60.917969 78.480469 61.519531 78.679688 61.917969 78.980469 C 62.320312 79.378906 62.617188 79.878906 62.519531 80.480469 C 62.519531 80.480469 62.519531 80.578125 62.519531 80.679688 L 58.820312 80.679688 C 58.820312 81.078125 59.019531 81.378906 59.320312 81.679688 C 59.617188 81.878906 60.019531 82.078125 60.320312 81.980469 C 60.617188 81.980469 60.917969 81.878906 61.117188 81.78125 C 61.320312 81.878906 61.519531 81.679688 61.617188 81.378906 Z M 58.917969 80.378906 L 61.71875 80.378906 C 61.71875 80.078125 61.617188 79.878906 61.417969 79.578125 C 61.117188 79.28125 60.71875 79.179688 60.417969 79.179688 C 60.019531 79.179688 59.71875 79.28125 59.417969 79.480469 C 59.019531 79.679688 58.917969 79.980469 58.917969 80.378906 Z M 58.917969 80.378906 "/>
<path style=" stroke:none;fill-rule:nonzero;fill:rgb(0%,29.019608%,61.176471%);fill-opacity:1;" d="M 67.332031 82.679688 L 67.332031 78.679688 L 68.132812 78.679688 L 68.132812 79.28125 C 68.332031 79.078125 68.53125 78.878906 68.734375 78.78125 C 69.03125 78.679688 69.332031 78.578125 69.632812 78.578125 C 69.933594 78.578125 70.234375 78.679688 70.53125 78.78125 C 70.734375 78.878906 70.933594 79.078125 71.03125 79.28125 C 71.433594 78.78125 71.933594 78.578125 72.53125 78.578125 C 72.933594 78.578125 73.332031 78.679688 73.632812 78.878906 C 73.933594 79.179688 74.03125 79.480469 74.03125 79.878906 L 74.03125 82.578125 L 73.234375 82.578125 L 73.234375 80.078125 C 73.234375 79.878906 73.234375 79.679688 73.132812 79.480469 C 73.03125 79.378906 72.933594 79.28125 72.832031 79.179688 C 72.632812 79.078125 72.53125 79.078125 72.332031 79.078125 C 72.03125 79.078125 71.734375 79.179688 71.433594 79.378906 C 71.234375 79.578125 71.03125 79.980469 71.132812 80.28125 L 71.132812 82.578125 L 70.332031 82.578125 L 70.332031 79.980469 C 70.332031 79.78125 70.234375 79.480469 70.132812 79.28125 C 69.933594 79.078125 69.734375 79.078125 69.433594 79.078125 C 69.234375 79.078125 68.933594 79.078125 68.734375 79.28125 C 68.53125 79.378906 68.433594 79.480469 68.332031 79.679688 C 68.234375 79.980469 68.234375 80.179688 68.234375 80.480469 L 68.234375 82.578125 Z M 67.332031 82.679688 "/>
<path style=" stroke:none;fill-rule:nonzero;fill:rgb(0%,29.019608%,61.176471%);fill-opacity:1;" d="M 82.574219 81.378906 L 83.476562 81.480469 C 83.375 81.878906 83.074219 82.179688 82.675781 82.378906 C 82.277344 82.578125 81.777344 82.78125 81.277344 82.679688 C 80.675781 82.679688 80.074219 82.480469 79.574219 82.179688 C 79.175781 81.78125 78.875 81.28125 78.976562 80.679688 C 78.976562 80.078125 79.175781 79.480469 79.574219 79.078125 C 80.074219 78.679688 80.675781 78.480469 81.277344 78.480469 C 81.875 78.480469 82.476562 78.679688 82.875 78.980469 C 83.277344 79.378906 83.574219 79.878906 83.476562 80.480469 C 83.476562 80.480469 83.476562 80.578125 83.476562 80.679688 L 79.777344 80.679688 C 79.777344 81.078125 79.976562 81.378906 80.277344 81.679688 C 80.574219 81.878906 80.976562 82.078125 81.277344 81.980469 C 81.574219 81.980469 81.875 81.878906 82.074219 81.78125 C 82.277344 81.878906 82.476562 81.679688 82.574219 81.378906 Z M 79.777344 80.378906 L 82.574219 80.378906 C 82.574219 80.078125 82.476562 79.878906 82.277344 79.578125 C 81.976562 79.28125 81.574219 79.179688 81.277344 79.179688 C 80.875 79.179688 80.574219 79.28125 80.277344 79.480469 C 79.976562 79.679688 79.777344 79.980469 79.777344 80.378906 Z M 79.777344 80.378906 "/>
<path style=" stroke:none;fill-rule:nonzero;fill:rgb(0%,29.019608%,61.176471%);fill-opacity:1;" d="M 88.289062 82.679688 L 88.289062 78.679688 L 89.089844 78.679688 L 89.089844 79.28125 C 89.488281 78.78125 90.089844 78.578125 90.691406 78.578125 C 90.988281 78.578125 91.289062 78.578125 91.488281 78.679688 C 91.691406 78.78125 91.890625 78.878906 92.089844 78.980469 C 92.191406 79.078125 92.289062 79.28125 92.390625 79.480469 C 92.390625 79.679688 92.488281 79.878906 92.390625 80.179688 L 92.390625 82.578125 L 91.589844 82.578125 L 91.589844 80.179688 C 91.589844 79.980469 91.589844 79.78125 91.488281 79.578125 C 91.390625 79.480469 91.289062 79.28125 91.089844 79.28125 C 90.890625 79.179688 90.691406 79.179688 90.488281 79.179688 C 90.191406 79.179688 89.789062 79.28125 89.589844 79.480469 C 89.289062 79.679688 89.191406 79.980469 89.191406 80.480469 L 89.191406 82.679688 Z M 88.289062 82.679688 "/>
<path style=" stroke:none;fill-rule:nonzero;fill:rgb(0%,29.019608%,61.176471%);fill-opacity:1;" d="M 99.285156 82.109375 L 99.382812 82.710938 C 99.183594 82.710938 98.984375 82.808594 98.785156 82.808594 C 98.585938 82.808594 98.285156 82.808594 98.085938 82.710938 C 97.984375 82.609375 97.785156 82.511719 97.683594 82.410156 C 97.585938 82.109375 97.585938 81.910156 97.585938 81.609375 L 97.585938 79.308594 L 96.984375 79.308594 L 96.984375 78.808594 L 97.585938 78.808594 L 97.585938 77.808594 L 98.382812 77.410156 L 98.382812 78.808594 L 99.183594 78.808594 L 99.183594 79.308594 L 98.382812 79.308594 L 98.382812 81.609375 C 98.382812 81.710938 98.382812 81.910156 98.382812 82.011719 C 98.382812 82.109375 98.484375 82.109375 98.484375 82.109375 C 98.585938 82.109375 98.683594 82.210938 98.785156 82.109375 C 98.984375 82.109375 99.085938 82.109375 99.285156 82.109375 Z M 99.285156 82.109375 "/>
<path style=" stroke:none;fill-rule:nonzero;fill:rgb(0%,29.019608%,61.176471%);fill-opacity:1;" d="M 110.449219 82.742188 L 110.449219 77.242188 L 113.046875 77.242188 C 113.347656 77.242188 113.746094 77.242188 114.046875 77.34375 C 114.347656 77.34375 114.648438 77.441406 114.847656 77.640625 C 115.046875 77.742188 115.246094 77.941406 115.347656 78.140625 C 115.449219 78.34375 115.546875 78.640625 115.546875 78.84375 C 115.546875 79.34375 115.347656 79.742188 114.949219 80.042969 C 114.546875 80.34375 113.949219 80.542969 112.949219 80.542969 L 111.148438 80.542969 L 111.148438 82.742188 Z M 111.347656 79.84375 L 113.148438 79.84375 C 113.546875 79.84375 114.046875 79.742188 114.449219 79.542969 C 114.648438 79.34375 114.847656 79.140625 114.847656 78.84375 C 114.847656 78.640625 114.746094 78.441406 114.648438 78.242188 C 114.546875 78.042969 114.347656 77.941406 114.046875 77.941406 C 113.746094 77.941406 113.449219 77.84375 113.246094 77.941406 L 111.449219 77.941406 Z M 111.347656 79.84375 "/>
<path style=" stroke:none;fill-rule:nonzero;fill:rgb(0%,29.019608%,61.176471%);fill-opacity:1;" d="M 120.539062 82.679688 L 120.539062 78.679688 L 121.339844 78.679688 L 121.339844 79.28125 C 121.4375 79.078125 121.636719 78.878906 121.839844 78.679688 C 122.039062 78.578125 122.238281 78.578125 122.339844 78.578125 C 122.636719 78.578125 122.9375 78.679688 123.238281 78.78125 L 122.9375 79.378906 C 122.738281 79.28125 122.539062 79.28125 122.339844 79.28125 C 122.136719 79.28125 122.039062 79.28125 121.839844 79.378906 C 121.738281 79.480469 121.539062 79.578125 121.539062 79.78125 C 121.4375 80.078125 121.4375 80.28125 121.4375 80.578125 L 121.4375 82.679688 Z M 120.539062 82.679688 "/>
<path style=" stroke:none;fill-rule:nonzero;fill:rgb(0%,29.019608%,61.176471%);fill-opacity:1;" d="M 127.238281 80.679688 C 127.238281 80.078125 127.4375 79.378906 128.039062 79.078125 C 128.539062 78.78125 129.039062 78.578125 129.636719 78.679688 C 130.238281 78.679688 130.839844 78.878906 131.339844 79.179688 C 131.738281 79.578125 132.039062 80.078125 132.039062 80.679688 C 132.039062 81.078125 131.9375 81.480469 131.738281 81.878906 C 131.539062 82.179688 131.238281 82.378906 130.9375 82.578125 C 130.539062 82.78125 130.136719 82.78125 129.738281 82.78125 C 129.136719 82.78125 128.539062 82.578125 128.039062 82.28125 C 127.4375 81.878906 127.136719 81.28125 127.238281 80.679688 Z M 128.039062 80.679688 C 128.039062 81.078125 128.136719 81.480469 128.4375 81.78125 C 128.738281 82.078125 129.136719 82.179688 129.4375 82.179688 C 129.839844 82.179688 130.238281 82.078125 130.4375 81.78125 C 130.738281 81.480469 130.9375 81.078125 130.839844 80.578125 C 130.839844 80.179688 130.738281 79.78125 130.4375 79.480469 C 130.136719 79.179688 129.738281 79.078125 129.4375 79.078125 C 129.039062 79.078125 128.636719 79.179688 128.4375 79.480469 C 128.136719 79.878906 128.039062 80.28125 128.039062 80.679688 Z M 128.039062 80.679688 "/>
<path style=" stroke:none;fill-rule:nonzero;fill:rgb(0%,29.019608%,61.176471%);fill-opacity:1;" d="M 136.484375 83.078125 L 137.285156 83.179688 C 137.285156 83.378906 137.386719 83.480469 137.585938 83.578125 C 137.886719 83.679688 138.1875 83.78125 138.484375 83.78125 C 138.785156 83.78125 139.085938 83.78125 139.386719 83.578125 C 139.585938 83.480469 139.785156 83.28125 139.785156 83.078125 C 139.886719 82.78125 139.886719 82.480469 139.886719 82.179688 C 139.484375 82.480469 138.984375 82.679688 138.484375 82.679688 C 137.886719 82.679688 137.285156 82.480469 136.886719 82.078125 C 136.484375 81.679688 136.285156 81.179688 136.285156 80.679688 C 136.285156 80.28125 136.386719 79.980469 136.585938 79.679688 C 136.785156 79.378906 136.984375 79.078125 137.285156 78.980469 C 137.6875 78.78125 138.085938 78.679688 138.484375 78.679688 C 138.984375 78.679688 139.585938 78.878906 139.984375 79.28125 L 139.984375 78.78125 L 140.785156 78.78125 L 140.785156 82.179688 C 140.785156 82.679688 140.785156 83.078125 140.585938 83.480469 C 140.386719 83.78125 140.1875 83.980469 139.886719 84.078125 C 139.484375 84.28125 139.085938 84.28125 138.585938 84.28125 C 138.085938 84.28125 137.585938 84.179688 137.1875 83.980469 C 136.6875 83.78125 136.484375 83.480469 136.484375 83.078125 Z M 137.1875 80.679688 C 137.1875 81.078125 137.285156 81.480469 137.585938 81.78125 C 137.886719 81.980469 138.1875 82.179688 138.585938 82.179688 C 138.984375 82.179688 139.285156 82.078125 139.585938 81.78125 C 139.886719 81.480469 139.984375 81.078125 139.984375 80.679688 C 139.984375 80.28125 139.886719 79.878906 139.585938 79.578125 C 139.285156 79.378906 138.984375 79.179688 138.585938 79.179688 C 138.1875 79.179688 137.886719 79.28125 137.585938 79.578125 C 137.285156 79.878906 137.1875 80.28125 137.1875 80.679688 Z M 137.1875 80.679688 "/>
<path style=" stroke:none;fill-rule:nonzero;fill:rgb(0%,29.019608%,61.176471%);fill-opacity:1;" d="M 145.792969 82.679688 L 145.792969 78.679688 L 146.59375 78.679688 L 146.59375 79.28125 C 146.695312 79.078125 146.894531 78.878906 147.09375 78.679688 C 147.292969 78.578125 147.492188 78.578125 147.59375 78.578125 C 147.894531 78.578125 148.195312 78.679688 148.492188 78.78125 L 148.195312 79.378906 C 147.992188 79.28125 147.792969 79.28125 147.59375 79.28125 C 147.394531 79.28125 147.292969 79.28125 147.09375 79.378906 C 146.992188 79.480469 146.792969 79.578125 146.792969 79.78125 C 146.695312 80.078125 146.695312 80.28125 146.695312 80.578125 L 146.695312 82.679688 Z M 145.792969 82.679688 "/>
<path style=" stroke:none;fill-rule:nonzero;fill:rgb(0%,29.019608%,61.176471%);fill-opacity:1;" d="M 155.980469 82.179688 C 155.679688 82.378906 155.382812 82.480469 155.082031 82.578125 C 154.78125 82.679688 154.480469 82.679688 154.179688 82.679688 C 153.78125 82.679688 153.28125 82.578125 152.882812 82.378906 C 152.582031 82.179688 152.480469 81.878906 152.480469 81.578125 C 152.480469 81.378906 152.582031 81.179688 152.679688 81.078125 C 152.78125 80.878906 152.980469 80.78125 153.082031 80.679688 C 153.28125 80.578125 153.480469 80.480469 153.679688 80.480469 C 153.882812 80.480469 154.179688 80.378906 154.382812 80.378906 C 154.882812 80.378906 155.382812 80.28125 155.882812 80.179688 C 155.882812 80.078125 155.882812 79.980469 155.882812 79.980469 C 155.882812 79.78125 155.78125 79.578125 155.679688 79.378906 C 155.382812 79.179688 155.082031 79.078125 154.679688 79.179688 C 154.382812 79.179688 154.082031 79.179688 153.78125 79.378906 C 153.582031 79.480469 153.382812 79.679688 153.382812 79.980469 L 152.582031 79.878906 C 152.679688 79.578125 152.78125 79.378906 152.980469 79.179688 C 153.179688 78.980469 153.480469 78.878906 153.679688 78.78125 C 154.082031 78.679688 154.382812 78.679688 154.78125 78.679688 C 155.082031 78.679688 155.480469 78.679688 155.78125 78.78125 C 155.980469 78.878906 156.179688 78.980469 156.382812 79.078125 C 156.480469 79.179688 156.582031 79.378906 156.679688 79.578125 C 156.679688 79.78125 156.679688 79.980469 156.679688 80.179688 L 156.679688 81.078125 C 156.679688 81.480469 156.679688 81.878906 156.78125 82.28125 C 156.78125 82.480469 156.882812 82.578125 156.980469 82.78125 L 156.082031 82.78125 C 156.082031 82.578125 155.980469 82.378906 155.980469 82.179688 Z M 155.980469 80.679688 C 155.480469 80.78125 155.082031 80.878906 154.582031 80.980469 C 154.382812 80.980469 154.082031 81.078125 153.882812 81.078125 C 153.78125 81.078125 153.679688 81.179688 153.582031 81.28125 C 153.480469 81.378906 153.480469 81.480469 153.480469 81.578125 C 153.480469 81.78125 153.582031 81.980469 153.78125 81.980469 C 153.980469 82.078125 154.28125 82.179688 154.480469 82.179688 C 154.78125 82.179688 155.082031 82.078125 155.382812 81.980469 C 155.582031 81.878906 155.78125 81.679688 155.980469 81.480469 C 156.082031 81.28125 156.082031 81.078125 156.082031 80.78125 Z M 155.980469 80.679688 "/>
<path style=" stroke:none;fill-rule:nonzero;fill:rgb(0%,29.019608%,61.176471%);fill-opacity:1;" d="M 161.90625 82.679688 L 161.90625 78.679688 L 162.707031 78.679688 L 162.707031 79.28125 C 162.90625 79.078125 163.109375 78.878906 163.308594 78.78125 C 163.609375 78.679688 163.90625 78.578125 164.207031 78.578125 C 164.507812 78.578125 164.808594 78.679688 165.109375 78.78125 C 165.308594 78.878906 165.507812 79.078125 165.609375 79.28125 C 166.007812 78.78125 166.507812 78.578125 167.109375 78.578125 C 167.507812 78.578125 167.90625 78.679688 168.207031 78.878906 C 168.507812 79.179688 168.609375 79.480469 168.609375 79.878906 L 168.609375 82.578125 L 167.808594 82.578125 L 167.808594 80.078125 C 167.808594 79.878906 167.808594 79.679688 167.707031 79.480469 C 167.609375 79.378906 167.507812 79.28125 167.40625 79.179688 C 167.207031 79.078125 167.109375 79.078125 166.90625 79.078125 C 166.609375 79.078125 166.308594 79.179688 166.007812 79.378906 C 165.808594 79.578125 165.609375 79.980469 165.707031 80.28125 L 165.707031 82.578125 L 164.90625 82.578125 L 164.90625 79.980469 C 164.90625 79.78125 164.808594 79.480469 164.707031 79.28125 C 164.507812 79.078125 164.308594 79.078125 164.007812 79.078125 C 163.808594 79.078125 163.507812 79.078125 163.308594 79.28125 C 163.109375 79.378906 163.007812 79.480469 162.90625 79.679688 C 162.808594 79.980469 162.707031 80.179688 162.808594 80.480469 L 162.808594 82.578125 Z M 161.90625 82.679688 "/>
<path style=" stroke:none;fill-rule:nonzero;fill:rgb(0%,29.019608%,61.176471%);fill-opacity:1;" d="M 3.300781 24.480469 C 11 15.179688 35.601562 16.378906 43.601562 15.777344 C 54.398438 14.980469 59.199219 11.679688 67 7.578125 C 74.800781 3.480469 85.199219 1.980469 91.800781 1.980469 C 118.101562 1.980469 134 14.179688 141 17.378906 C 148.101562 20.578125 153.101562 22.179688 156.898438 22.277344 C 160.699219 22.378906 172 27.777344 172 27.777344 C 172 27.777344 161.101562 26.878906 151.601562 26.078125 C 144.5 25.480469 131.5 19.777344 121.898438 15.277344 C 112.300781 10.777344 105.300781 8.480469 91.199219 8.078125 C 81.601562 7.878906 74.101562 9.878906 67.699219 13.777344 C 62.300781 17.078125 55.101562 19.777344 43.398438 21.179688 C 38.101562 21.777344 20.199219 22.277344 10.898438 24.980469 C 5.800781 26.480469 2.199219 30.878906 -0.101562 34.578125 C 0.199219 32.179688 1.800781 26.277344 3.300781 24.480469 Z M 3.300781 24.480469 "/>
<path style=" stroke:none;fill-rule:nonzero;fill:rgb(100%,100%,100%);fill-opacity:1;" d="M 39.027344 34.902344 C 38.925781 34.5 38.726562 34.199219 38.324219 34.101562 C 37.925781 33.902344 37.425781 33.902344 36.925781 33.902344 C 35.824219 33.902344 35.324219 34.101562 35.324219 34.601562 C 35.324219 35 36.226562 35.5 38.125 35.800781 C 39.625 36.101562 41.226562 36.5 42.625 37.101562 C 43.726562 37.601562 44.324219 38.402344 44.324219 39.699219 C 44.324219 41.101562 43.625 42.101562 42.324219 42.800781 C 41.027344 43.5 39.226562 43.902344 36.925781 43.902344 C 34.824219 43.902344 33.226562 43.5 31.925781 42.699219 C 30.625 41.902344 30.027344 41 30.027344 39.800781 L 34.925781 39.800781 C 35.027344 40.199219 35.324219 40.601562 35.726562 40.800781 C 36.226562 41 36.726562 41.101562 37.226562 41.101562 C 37.726562 41.101562 38.324219 41 38.824219 40.902344 C 39.226562 40.699219 39.425781 40.5 39.425781 40.199219 C 39.425781 39.800781 38.527344 39.300781 36.625 39 C 35.125 38.699219 33.527344 38.300781 32.125 37.699219 C 31.027344 37.199219 30.425781 36.300781 30.425781 35 C 30.425781 33.800781 31.027344 32.800781 32.324219 32.101562 C 33.625 31.402344 35.226562 31.101562 37.226562 31.101562 C 39.324219 31.101562 40.925781 31.5 42.027344 32.199219 C 43.027344 32.800781 43.726562 33.800781 44.027344 35 Z M 39.027344 34.902344 "/>
<path style=" stroke:none;fill-rule:nonzero;fill:rgb(100%,100%,100%);fill-opacity:1;" d="M 30.625 40.300781 C 30.824219 41 31.324219 41.601562 32.226562 42.199219 C 33.425781 42.902344 35.027344 43.300781 37.027344 43.300781 C 39.125 43.300781 40.925781 43 42.125 42.300781 C 43.324219 41.699219 43.824219 40.800781 43.824219 39.699219 C 43.824219 38.601562 43.425781 38 42.425781 37.601562 C 41.027344 37 39.527344 36.601562 38.027344 36.402344 C 35.726562 35.902344 34.726562 35.402344 34.726562 34.601562 C 34.726562 33.800781 35.425781 33.402344 36.925781 33.402344 C 37.425781 33.402344 38.027344 33.5 38.527344 33.699219 C 38.925781 33.800781 39.226562 34.101562 39.425781 34.5 L 43.226562 34.5 C 42.925781 33.699219 42.324219 33.101562 41.625 32.699219 C 40.625 32.101562 39.125 31.699219 37.125 31.699219 C 35.226562 31.699219 33.625 32 32.425781 32.601562 C 31.324219 33.199219 30.824219 34 30.824219 35 C 30.824219 36.101562 31.226562 36.800781 32.226562 37.199219 C 33.625 37.800781 35.125 38.199219 36.625 38.402344 C 38.925781 38.800781 39.824219 39.300781 39.824219 40.101562 C 39.824219 40.402344 39.726562 40.902344 38.925781 41.300781 C 38.324219 41.5 37.726562 41.601562 37.125 41.601562 C 36.527344 41.601562 35.925781 41.5 35.425781 41.300781 C 35.027344 41.101562 34.625 40.800781 34.425781 40.402344 Z M 30.625 40.300781 "/>
<path style=" stroke:none;fill-rule:nonzero;fill:rgb(100%,100%,100%);fill-opacity:1;" d="M 44.996094 31.453125 L 50.195312 31.453125 L 50.195312 38.652344 C 50.195312 39.253906 50.296875 39.851562 50.695312 40.253906 C 50.996094 40.652344 51.695312 40.851562 52.59375 40.851562 C 53.496094 40.851562 54.09375 40.652344 54.496094 40.253906 C 54.894531 39.753906 55.09375 39.253906 54.996094 38.652344 L 54.996094 31.453125 L 60.195312 31.453125 L 60.195312 38.253906 C 60.195312 40.152344 59.59375 41.550781 58.394531 42.453125 C 57.195312 43.351562 55.296875 43.753906 52.59375 43.753906 C 50.09375 43.753906 48.195312 43.351562 46.894531 42.453125 C 45.59375 41.550781 44.996094 40.152344 44.996094 38.152344 Z M 44.996094 31.453125 "/>
<path style=" stroke:none;fill-rule:nonzero;fill:rgb(100%,100%,100%);fill-opacity:1;" d="M 45.496094 31.953125 L 45.496094 38.253906 C 45.496094 40.050781 45.996094 41.351562 47.195312 42.152344 C 48.394531 42.953125 50.195312 43.351562 52.59375 43.351562 C 55.09375 43.351562 56.894531 42.953125 57.996094 42.152344 C 59.09375 41.351562 59.59375 40.152344 59.59375 38.351562 L 59.59375 32.050781 L 55.496094 32.050781 L 55.496094 38.753906 C 55.496094 39.453125 55.296875 40.253906 54.796875 40.753906 C 54.394531 41.253906 53.59375 41.453125 52.59375 41.453125 C 51.496094 41.453125 50.695312 41.253906 50.296875 40.652344 C 49.894531 40.050781 49.695312 39.351562 49.695312 38.652344 L 49.695312 31.953125 Z M 45.496094 31.953125 "/>
<path style=" stroke:none;fill-rule:nonzero;fill:rgb(100%,100%,100%);fill-opacity:1;" d="M 60.769531 43.550781 L 60.769531 40.652344 L 68.269531 34.25 L 61.070312 34.25 L 61.070312 31.449219 L 74.671875 31.449219 L 74.671875 34.25 L 66.972656 40.75 L 74.972656 40.75 L 74.972656 43.550781 Z M 60.769531 43.550781 "/>
<path style=" stroke:none;fill-rule:nonzero;fill:rgb(100%,100%,100%);fill-opacity:1;" d="M 61.269531 42.949219 L 74.371094 42.949219 L 74.371094 41.152344 L 65.472656 41.152344 L 74.070312 33.949219 L 74.070312 31.949219 L 61.570312 31.949219 L 61.570312 33.75 L 69.671875 33.75 L 61.269531 40.949219 Z M 61.269531 42.949219 "/>
<path style=" stroke:none;fill-rule:nonzero;fill:rgb(100%,100%,100%);fill-opacity:1;" d="M 75.546875 31.453125 L 80.746094 31.453125 L 80.746094 38.652344 C 80.746094 39.253906 80.847656 39.851562 81.246094 40.253906 C 81.546875 40.652344 82.246094 40.851562 83.148438 40.851562 C 84.046875 40.851562 84.648438 40.652344 85.046875 40.253906 C 85.445312 39.753906 85.648438 39.253906 85.546875 38.652344 L 85.546875 31.453125 L 90.746094 31.453125 L 90.746094 38.253906 C 90.746094 40.152344 90.148438 41.550781 88.945312 42.453125 C 87.746094 43.351562 85.847656 43.753906 83.148438 43.753906 C 80.648438 43.753906 78.746094 43.351562 77.445312 42.453125 C 76.148438 41.550781 75.546875 40.152344 75.546875 38.152344 Z M 75.546875 31.453125 "/>
<path style=" stroke:none;fill-rule:nonzero;fill:rgb(100%,100%,100%);fill-opacity:1;" d="M 76.046875 31.953125 L 76.046875 38.253906 C 76.046875 40.050781 76.546875 41.351562 77.746094 42.152344 C 78.945312 42.953125 80.746094 43.351562 83.148438 43.351562 C 85.648438 43.351562 87.445312 42.953125 88.546875 42.152344 C 89.648438 41.351562 90.148438 40.152344 90.148438 38.351562 L 90.148438 32.050781 L 86.046875 32.050781 L 86.046875 38.753906 C 86.046875 39.453125 85.847656 40.253906 85.347656 40.753906 C 84.945312 41.253906 84.148438 41.453125 83.148438 41.453125 C 82.046875 41.453125 81.246094 41.253906 80.847656 40.652344 C 80.445312 40.050781 80.246094 39.351562 80.246094 38.652344 L 80.246094 31.953125 Z M 76.046875 31.953125 "/>
<path style=" stroke:none;fill-rule:nonzero;fill:rgb(100%,100%,100%);fill-opacity:1;" d="M 91.503906 31.449219 L 96.703125 31.449219 L 96.703125 34.949219 L 100.300781 31.449219 L 106.203125 31.449219 L 100.300781 37.550781 L 106.003906 43.550781 L 100.101562 43.550781 L 96.800781 39.75 L 96.800781 43.550781 L 91.703125 43.550781 L 91.703125 31.449219 Z M 91.503906 31.449219 "/>
<path style=" stroke:none;fill-rule:nonzero;fill:rgb(100%,100%,100%);fill-opacity:1;" d="M 96.101562 38.25 L 100.203125 42.949219 L 104.703125 42.949219 L 99.503906 37.550781 L 104.902344 31.949219 L 100.402344 31.949219 L 96.101562 36.152344 L 96.101562 31.949219 L 92.003906 31.949219 L 92.003906 42.949219 L 96.101562 42.949219 Z M 96.101562 38.25 "/>
<path style=" stroke:none;fill-rule:nonzero;fill:rgb(100%,100%,100%);fill-opacity:1;" d="M 107.300781 43.550781 L 107.300781 31.449219 L 112.5 31.449219 L 112.5 43.550781 Z M 107.300781 43.550781 "/>
<path style=" stroke:none;fill-rule:nonzero;fill:rgb(0%,29.019608%,61.176471%);fill-opacity:1;" d="M 39.027344 34.902344 C 38.925781 34.5 38.726562 34.199219 38.324219 34.101562 C 37.925781 33.902344 37.425781 33.902344 36.925781 33.902344 C 35.824219 33.902344 35.324219 34.101562 35.324219 34.601562 C 35.324219 35 36.226562 35.5 38.125 35.800781 C 39.625 36.101562 41.226562 36.5 42.625 37.101562 C 43.726562 37.601562 44.324219 38.402344 44.324219 39.699219 C 44.324219 41.101562 43.625 42.101562 42.324219 42.800781 C 41.027344 43.5 39.226562 43.902344 36.925781 43.902344 C 34.824219 43.902344 33.226562 43.5 31.925781 42.699219 C 30.625 41.902344 30.027344 41 30.027344 39.800781 L 34.925781 39.800781 C 35.027344 40.199219 35.324219 40.601562 35.726562 40.800781 C 36.226562 41 36.726562 41.101562 37.226562 41.101562 C 37.726562 41.101562 38.324219 41 38.824219 40.902344 C 39.226562 40.699219 39.425781 40.5 39.425781 40.199219 C 39.425781 39.800781 38.527344 39.300781 36.625 39 C 35.125 38.699219 33.527344 38.300781 32.125 37.699219 C 31.027344 37.199219 30.425781 36.300781 30.425781 35 C 30.425781 33.800781 31.027344 32.800781 32.324219 32.101562 C 33.625 31.402344 35.226562 31.101562 37.226562 31.101562 C 39.324219 31.101562 40.925781 31.5 42.027344 32.199219 C 43.027344 32.800781 43.726562 33.800781 44.027344 35 Z M 39.027344 34.902344 "/>
<path style=" stroke:none;fill-rule:nonzero;fill:rgb(0%,29.019608%,61.176471%);fill-opacity:1;" d="M 44.996094 31.453125 L 50.195312 31.453125 L 50.195312 38.652344 C 50.195312 39.253906 50.296875 39.851562 50.695312 40.253906 C 50.996094 40.652344 51.695312 40.851562 52.59375 40.851562 C 53.496094 40.851562 54.09375 40.652344 54.496094 40.253906 C 54.894531 39.753906 55.09375 39.253906 54.996094 38.652344 L 54.996094 31.453125 L 60.195312 31.453125 L 60.195312 38.253906 C 60.195312 40.152344 59.59375 41.550781 58.394531 42.453125 C 57.195312 43.351562 55.296875 43.753906 52.59375 43.753906 C 50.09375 43.753906 48.195312 43.351562 46.894531 42.453125 C 45.59375 41.550781 44.996094 40.152344 44.996094 38.152344 Z M 44.996094 31.453125 "/>
<path style=" stroke:none;fill-rule:nonzero;fill:rgb(0%,29.019608%,61.176471%);fill-opacity:1;" d="M 60.769531 43.550781 L 60.769531 40.652344 L 68.269531 34.25 L 61.070312 34.25 L 61.070312 31.449219 L 74.671875 31.449219 L 74.671875 34.25 L 66.972656 40.75 L 74.972656 40.75 L 74.972656 43.550781 Z M 60.769531 43.550781 "/>
<path style=" stroke:none;fill-rule:nonzero;fill:rgb(0%,29.019608%,61.176471%);fill-opacity:1;" d="M 75.546875 31.453125 L 80.746094 31.453125 L 80.746094 38.652344 C 80.746094 39.253906 80.847656 39.851562 81.246094 40.253906 C 81.546875 40.652344 82.246094 40.851562 83.148438 40.851562 C 84.046875 40.851562 84.648438 40.652344 85.046875 40.253906 C 85.445312 39.753906 85.648438 39.253906 85.546875 38.652344 L 85.546875 31.453125 L 90.746094 31.453125 L 90.746094 38.253906 C 90.746094 40.152344 90.148438 41.550781 88.945312 42.453125 C 87.746094 43.351562 85.847656 43.753906 83.148438 43.753906 C 80.648438 43.753906 78.746094 43.351562 77.445312 42.453125 C 76.148438 41.550781 75.546875 40.152344 75.546875 38.152344 Z M 75.546875 31.453125 "/>
<path style=" stroke:none;fill-rule:nonzero;fill:rgb(0%,29.019608%,61.176471%);fill-opacity:1;" d="M 91.503906 31.449219 L 96.703125 31.449219 L 96.703125 34.949219 L 100.300781 31.449219 L 106.203125 31.449219 L 100.300781 37.550781 L 106.003906 43.550781 L 100.101562 43.550781 L 96.800781 39.75 L 96.800781 43.550781 L 91.703125 43.550781 L 91.703125 31.449219 Z M 91.503906 31.449219 "/>
<path style=" stroke:none;fill-rule:nonzero;fill:rgb(0%,29.019608%,61.176471%);fill-opacity:1;" d="M 107.300781 43.550781 L 107.300781 31.449219 L 112.5 31.449219 L 112.5 43.550781 Z M 107.300781 43.550781 "/>
<path style=" stroke:none;fill-rule:nonzero;fill:rgb(100%,100%,100%);fill-opacity:1;" d="M 26.921875 33.542969 L 16.222656 26.144531 C 16.222656 26.144531 11.121094 30.542969 5.621094 32.644531 L 19.519531 42.242188 L 18.921875 42.84375 L 13.121094 38.945312 C 13.121094 38.945312 10.421875 37.042969 5.621094 40.042969 L 16.222656 47.445312 C 16.222656 47.445312 20.621094 43.042969 26.820312 40.945312 L 12.921875 31.242188 L 13.519531 30.742188 L 18.222656 34.042969 C 18.320312 34.144531 21.722656 37.042969 26.921875 33.542969 Z M 26.921875 33.542969 "/>
<path style=" stroke:none;fill-rule:nonzero;fill:rgb(100%,100%,100%);fill-opacity:1;" d="M 7.222656 40.144531 L 16.222656 46.445312 C 18.921875 44.042969 21.921875 42.144531 25.121094 40.84375 L 11.621094 31.34375 L 13.621094 29.84375 L 18.820312 33.542969 C 19.722656 34.242188 20.820312 34.542969 21.921875 34.542969 C 23.121094 34.542969 24.421875 34.144531 25.421875 33.542969 L 16.320312 27.242188 C 15.019531 28.242188 11.421875 31.042969 7.421875 32.945312 L 20.921875 42.34375 L 19.019531 43.945312 L 12.722656 39.742188 C 12.121094 39.445312 11.421875 39.242188 10.722656 39.242188 C 9.519531 39.144531 8.320312 39.542969 7.222656 40.144531 Z M 7.222656 40.144531 "/>
<path style=" stroke:none;fill-rule:nonzero;fill:rgb(89.803922%,0%,9.803922%);fill-opacity:1;" d="M 26.898438 33.53125 L 16.199219 26.132812 C 16.199219 26.132812 11.097656 30.53125 5.597656 32.632812 L 19.496094 42.230469 L 18.898438 42.730469 L 13.097656 38.832031 C 13.097656 38.832031 10.398438 36.929688 5.597656 39.929688 L 16.199219 47.332031 C 16.199219 47.332031 20.597656 42.929688 26.796875 40.832031 L 12.898438 31.132812 L 13.496094 30.632812 L 18.398438 34.132812 C 18.398438 34.132812 21.699219 37.03125 26.898438 33.53125 Z M 26.898438 33.53125 "/>
<path style=" stroke:none;fill-rule:nonzero;fill:rgb(89.803922%,0%,9.803922%);fill-opacity:1;" d="M 16.296875 47.53125 L 5.597656 40.03125 L 5.699219 39.929688 C 7.496094 38.832031 9.199219 38.230469 10.796875 38.230469 C 11.699219 38.230469 12.496094 38.429688 13.296875 38.832031 L 18.996094 42.730469 L 19.398438 42.332031 L 5.496094 32.730469 L 5.597656 32.632812 C 10.996094 30.53125 16.097656 26.132812 16.199219 26.132812 L 16.296875 26.132812 L 27.097656 33.53125 L 26.996094 33.632812 C 25.296875 34.832031 23.597656 35.332031 21.898438 35.332031 C 20.597656 35.332031 19.398438 34.929688 18.296875 34.230469 L 13.597656 30.929688 L 13.097656 31.332031 L 26.996094 41.03125 L 26.796875 41.132812 C 20.796875 43.132812 16.398438 47.429688 16.296875 47.53125 Z M 5.796875 40.03125 L 16.199219 47.332031 C 16.699219 46.832031 20.898438 42.929688 26.597656 40.929688 L 12.796875 31.230469 L 13.597656 30.632812 L 18.398438 34.132812 C 19.398438 34.832031 20.597656 35.230469 21.898438 35.230469 C 23.496094 35.230469 25.097656 34.632812 26.796875 33.632812 L 16.296875 26.332031 C 15.796875 26.730469 10.996094 30.730469 5.898438 32.730469 L 19.699219 42.332031 L 18.996094 42.929688 L 18.898438 42.929688 L 13.097656 39.03125 C 12.398438 38.632812 11.496094 38.429688 10.699219 38.429688 C 9.199219 38.429688 7.597656 38.929688 5.796875 40.03125 Z M 5.796875 40.03125 "/>
<path style=" stroke:none;fill-rule:nonzero;fill:rgb(32.941176%,67.058824%,20.392157%);fill-opacity:1;" d="M 125.8125 40.921875 L 120.210938 40.921875 L 119.410156 43.519531 L 114.410156 43.519531 L 120.410156 27.621094 L 125.8125 27.621094 L 131.8125 43.519531 L 126.710938 43.519531 Z M 124.8125 37.519531 L 123.011719 31.820312 L 121.3125 37.519531 Z M 124.8125 37.519531 "/>
<path style=" stroke:none;fill-rule:nonzero;fill:rgb(32.941176%,67.058824%,20.392157%);fill-opacity:1;" d="M 144.945312 43.582031 L 140.84375 43.582031 L 140.84375 41.679688 C 140.34375 42.382812 139.742188 42.882812 138.945312 43.28125 C 138.242188 43.582031 137.445312 43.78125 136.644531 43.78125 C 135.445312 43.78125 134.445312 43.382812 133.742188 42.679688 C 133.042969 41.980469 132.742188 40.78125 132.742188 39.28125 L 132.742188 31.980469 L 137.144531 31.980469 L 137.144531 38.28125 C 137.144531 38.980469 137.242188 39.480469 137.542969 39.78125 C 137.84375 40.082031 138.242188 40.28125 138.644531 40.28125 C 139.144531 40.28125 139.644531 40.082031 139.945312 39.679688 C 140.242188 39.28125 140.445312 38.582031 140.445312 37.480469 L 140.445312 31.980469 L 144.84375 31.980469 Z M 144.945312 43.582031 "/>
<path style=" stroke:none;fill-rule:nonzero;fill:rgb(32.941176%,67.058824%,20.392157%);fill-opacity:1;" d="M 152.976562 27.621094 L 152.976562 32.019531 L 155.378906 32.019531 L 155.378906 35.21875 L 152.976562 35.21875 L 152.976562 39.320312 C 152.976562 39.621094 152.976562 40.019531 153.078125 40.320312 C 153.277344 40.621094 153.578125 40.71875 153.878906 40.71875 C 154.378906 40.71875 154.777344 40.621094 155.277344 40.421875 L 155.578125 43.519531 C 154.578125 43.71875 153.578125 43.820312 152.476562 43.921875 C 151.378906 43.921875 150.578125 43.820312 150.078125 43.519531 C 149.578125 43.21875 149.175781 42.820312 148.878906 42.21875 C 148.675781 41.621094 148.476562 40.71875 148.476562 39.421875 L 148.476562 35.320312 L 146.878906 35.320312 L 146.878906 32.121094 L 148.476562 32.121094 L 148.476562 30.019531 Z M 152.976562 27.621094 "/>
<path style=" stroke:none;fill-rule:nonzero;fill:rgb(32.941176%,67.058824%,20.392157%);fill-opacity:1;" d="M 157.023438 37.804688 C 156.921875 36.203125 157.621094 34.605469 158.820312 33.503906 C 160.023438 32.402344 161.621094 31.804688 163.621094 31.804688 C 165.921875 31.804688 167.722656 32.503906 168.820312 33.804688 C 170.820312 36.304688 170.722656 39.902344 168.523438 42.203125 C 167.320312 43.304688 165.722656 43.902344 163.621094 43.902344 C 161.722656 43.902344 160.222656 43.402344 159.121094 42.503906 C 157.722656 41.304688 156.921875 39.605469 157.023438 37.804688 Z M 161.421875 37.804688 C 161.421875 38.804688 161.621094 39.605469 162.023438 40.105469 C 162.421875 40.605469 163.023438 40.804688 163.621094 40.804688 C 164.222656 40.804688 164.820312 40.503906 165.222656 40.105469 C 165.621094 39.605469 165.820312 38.804688 165.820312 37.804688 C 165.820312 36.804688 165.621094 36.105469 165.222656 35.605469 C 164.820312 35.105469 164.320312 34.902344 163.722656 34.902344 C 163.121094 34.902344 162.523438 35.203125 162.121094 35.605469 C 161.621094 36.105469 161.421875 36.804688 161.421875 37.804688 Z M 161.421875 37.804688 "/>
<path style=" stroke:none;fill-rule:nonzero;fill:rgb(32.941176%,67.058824%,20.392157%);fill-opacity:1;" d="M 6.183594 48.667969 L 24.882812 48.667969 L 24.882812 53.96875 L 13.78125 53.96875 L 13.78125 58.269531 L 23.28125 58.269531 L 23.28125 63.269531 L 13.78125 63.269531 L 13.78125 73.269531 L 6.183594 73.269531 Z M 6.183594 48.667969 "/>
<path style=" stroke:none;fill-rule:nonzero;fill:rgb(32.941176%,67.058824%,20.392157%);fill-opacity:1;" d="M 28.585938 48.667969 L 36.1875 48.667969 L 36.1875 73.167969 L 28.585938 73.167969 Z M 28.585938 48.667969 "/>
<path style=" stroke:none;fill-rule:nonzero;fill:rgb(32.941176%,67.058824%,20.392157%);fill-opacity:1;" d="M 40.886719 48.667969 L 47.984375 48.667969 L 57.183594 62.269531 L 57.183594 48.667969 L 64.285156 48.667969 L 64.285156 73.167969 L 57.183594 73.167969 L 47.984375 59.667969 L 47.984375 73.167969 L 40.886719 73.167969 Z M 40.886719 48.667969 "/>
<path style=" stroke:none;fill-rule:nonzero;fill:rgb(32.941176%,67.058824%,20.392157%);fill-opacity:1;" d="M 83.492188 69.167969 L 74.890625 69.167969 L 73.691406 73.265625 L 65.890625 73.265625 L 75.09375 48.765625 L 83.390625 48.765625 L 92.59375 73.265625 L 84.691406 73.265625 Z M 81.890625 63.867188 L 79.191406 55.066406 L 76.492188 63.867188 Z M 81.890625 63.867188 "/>
<path style=" stroke:none;fill-rule:nonzero;fill:rgb(32.941176%,67.058824%,20.392157%);fill-opacity:1;" d="M 94.335938 48.667969 L 101.4375 48.667969 L 110.636719 62.269531 L 110.636719 48.667969 L 117.734375 48.667969 L 117.734375 73.167969 L 110.636719 73.167969 L 101.4375 59.667969 L 101.4375 73.167969 L 94.335938 73.167969 Z M 94.335938 48.667969 "/>
<path style=" stroke:none;fill-rule:nonzero;fill:rgb(32.941176%,67.058824%,20.392157%);fill-opacity:1;" d="M 138.5 63.222656 L 145.101562 65.222656 C 144.699219 66.921875 144 68.519531 143 69.921875 C 142.101562 71.121094 140.800781 72.121094 139.398438 72.722656 C 138 73.320312 136.199219 73.722656 134 73.722656 C 131.300781 73.722656 129.101562 73.320312 127.5 72.519531 C 125.800781 71.722656 124.398438 70.421875 123.101562 68.421875 C 121.800781 66.421875 121.300781 63.921875 121.300781 60.921875 C 121.300781 56.820312 122.398438 53.722656 124.5 51.519531 C 126.699219 49.320312 129.699219 48.222656 133.699219 48.222656 C 136.800781 48.222656 139.199219 48.820312 141 50.121094 C 142.800781 51.421875 144.101562 53.320312 145 55.921875 L 138.300781 57.421875 C 138.101562 56.820312 137.898438 56.320312 137.601562 55.820312 C 137.199219 55.222656 136.699219 54.820312 136 54.519531 C 133.898438 53.519531 131.300781 54.222656 130 56.121094 C 129.300781 57.121094 129 58.722656 129 60.921875 C 129 63.621094 129.398438 65.519531 130.199219 66.519531 C 131 67.519531 132.199219 68.019531 133.699219 68.019531 C 135.199219 68.019531 136.199219 67.621094 137 66.820312 C 137.601562 65.921875 138.101562 64.722656 138.5 63.222656 Z M 138.5 63.222656 "/>
<path style=" stroke:none;fill-rule:nonzero;fill:rgb(32.941176%,67.058824%,20.392157%);fill-opacity:1;" d="M 148.011719 48.667969 L 168.3125 48.667969 L 168.3125 53.867188 L 155.613281 53.867188 L 155.613281 57.769531 L 167.410156 57.769531 L 167.410156 62.769531 L 155.613281 62.769531 L 155.613281 67.570312 L 168.710938 67.570312 L 168.710938 73.167969 L 148.011719 73.167969 Z M 148.011719 48.667969 "/>
<path style=" stroke:none;fill-rule:nonzero;fill:rgb(0%,29.019608%,61.176471%);fill-opacity:1;" d="M 6.050781 82.742188 L 8.652344 77.242188 L 9.652344 77.242188 L 12.453125 82.742188 L 11.453125 82.742188 L 10.652344 81.042969 L 7.753906 81.042969 L 6.953125 82.742188 Z M 8.050781 80.441406 L 10.351562 80.441406 L 9.652344 78.941406 C 9.453125 78.441406 9.253906 78.140625 9.152344 77.84375 C 9.050781 78.242188 8.953125 78.542969 8.753906 78.84375 Z M 8.050781 80.441406 "/>
<path style=" stroke:none;fill-rule:nonzero;fill:rgb(0%,29.019608%,61.176471%);fill-opacity:1;" d="M 16.886719 82.679688 L 16.886719 78.679688 L 17.6875 78.679688 L 17.6875 79.28125 C 17.789062 79.078125 17.988281 78.878906 18.1875 78.679688 C 18.386719 78.578125 18.589844 78.578125 18.6875 78.578125 C 18.988281 78.578125 19.289062 78.679688 19.589844 78.78125 L 19.289062 79.378906 C 19.089844 79.28125 18.886719 79.28125 18.6875 79.28125 C 18.488281 79.28125 18.386719 79.28125 18.1875 79.378906 C 18.089844 79.480469 17.886719 79.578125 17.886719 79.78125 C 17.789062 80.078125 17.789062 80.28125 17.789062 80.578125 L 17.789062 82.679688 Z M 16.886719 82.679688 "/>
<path style=" stroke:none;fill-rule:nonzero;fill:rgb(0%,29.019608%,61.176471%);fill-opacity:1;" d="M 23.894531 82.679688 L 23.894531 78.679688 L 24.695312 78.679688 L 24.695312 79.28125 C 24.796875 79.078125 24.996094 78.878906 25.195312 78.679688 C 25.394531 78.578125 25.59375 78.578125 25.695312 78.578125 C 25.996094 78.578125 26.296875 78.679688 26.59375 78.78125 L 26.296875 79.378906 C 26.09375 79.28125 25.894531 79.28125 25.695312 79.28125 C 25.496094 79.28125 25.394531 79.28125 25.195312 79.378906 C 25.09375 79.480469 24.894531 79.578125 24.894531 79.78125 C 24.796875 80.078125 24.796875 80.28125 24.796875 80.578125 L 24.796875 82.679688 Z M 23.894531 82.679688 "/>
<path style=" stroke:none;fill-rule:nonzero;fill:rgb(0%,29.019608%,61.176471%);fill-opacity:1;" d="M 34.074219 82.179688 C 33.773438 82.378906 33.476562 82.480469 33.175781 82.578125 C 32.875 82.679688 32.574219 82.679688 32.273438 82.679688 C 31.875 82.679688 31.375 82.578125 30.976562 82.378906 C 30.675781 82.179688 30.574219 81.878906 30.574219 81.578125 C 30.574219 81.378906 30.675781 81.179688 30.773438 81.078125 C 30.875 80.878906 31.074219 80.78125 31.175781 80.679688 C 31.375 80.578125 31.574219 80.480469 31.773438 80.480469 C 31.976562 80.480469 32.273438 80.378906 32.476562 80.378906 C 32.976562 80.378906 33.476562 80.28125 33.976562 80.179688 C 33.976562 80.078125 33.976562 79.980469 33.976562 79.980469 C 33.976562 79.78125 33.875 79.578125 33.773438 79.378906 C 33.476562 79.179688 33.175781 79.078125 32.773438 79.179688 C 32.476562 79.179688 32.175781 79.179688 31.875 79.378906 C 31.675781 79.480469 31.476562 79.679688 31.476562 79.980469 L 30.675781 79.878906 C 30.773438 79.578125 30.875 79.378906 31.074219 79.179688 C 31.273438 78.980469 31.574219 78.878906 31.773438 78.78125 C 32.175781 78.679688 32.476562 78.679688 32.875 78.679688 C 33.175781 78.679688 33.574219 78.679688 33.875 78.78125 C 34.074219 78.878906 34.273438 78.980469 34.476562 79.078125 C 34.574219 79.179688 34.675781 79.378906 34.773438 79.578125 C 34.773438 79.78125 34.773438 79.980469 34.773438 80.179688 L 34.773438 81.078125 C 34.773438 81.480469 34.773438 81.878906 34.875 82.28125 C 34.875 82.480469 34.976562 82.578125 35.074219 82.78125 L 34.175781 82.78125 C 34.175781 82.578125 34.074219 82.378906 34.074219 82.179688 Z M 33.976562 80.679688 C 33.476562 80.78125 33.074219 80.878906 32.574219 80.980469 C 32.375 80.980469 32.074219 81.078125 31.875 81.078125 C 31.773438 81.078125 31.675781 81.179688 31.574219 81.28125 C 31.476562 81.378906 31.476562 81.480469 31.476562 81.578125 C 31.476562 81.78125 31.574219 81.980469 31.773438 81.980469 C 31.976562 82.078125 32.273438 82.179688 32.476562 82.179688 C 32.773438 82.179688 33.074219 82.078125 33.375 81.980469 C 33.574219 81.878906 33.773438 81.679688 33.976562 81.480469 C 34.074219 81.28125 34.074219 81.078125 34.074219 80.78125 Z M 33.976562 80.679688 "/>
<path style=" stroke:none;fill-rule:nonzero;fill:rgb(0%,29.019608%,61.176471%);fill-opacity:1;" d="M 40.003906 82.679688 L 40.003906 78.679688 L 40.804688 78.679688 L 40.804688 79.28125 C 41.203125 78.78125 41.804688 78.578125 42.402344 78.578125 C 42.703125 78.578125 43.003906 78.578125 43.203125 78.679688 C 43.402344 78.78125 43.605469 78.878906 43.804688 78.980469 C 43.902344 79.078125 44.003906 79.28125 44.105469 79.480469 C 44.105469 79.679688 44.203125 79.878906 44.105469 80.179688 L 44.105469 82.578125 L 43.304688 82.578125 L 43.304688 80.179688 C 43.304688 79.980469 43.304688 79.78125 43.203125 79.578125 C 43.105469 79.480469 43.003906 79.28125 42.804688 79.28125 C 42.605469 79.179688 42.402344 79.179688 42.203125 79.179688 C 41.902344 79.179688 41.503906 79.28125 41.304688 79.480469 C 41.003906 79.679688 40.902344 79.980469 40.902344 80.480469 L 40.902344 82.679688 Z M 40.003906 82.679688 "/>
<path style=" stroke:none;fill-rule:nonzero;fill:rgb(0%,29.019608%,61.176471%);fill-opacity:1;" d="M 48.917969 83.078125 L 49.71875 83.179688 C 49.71875 83.378906 49.816406 83.480469 50.019531 83.578125 C 50.316406 83.679688 50.617188 83.78125 50.917969 83.78125 C 51.21875 83.78125 51.519531 83.78125 51.816406 83.578125 C 52.019531 83.480469 52.21875 83.28125 52.21875 83.078125 C 52.316406 82.78125 52.316406 82.480469 52.316406 82.179688 C 51.917969 82.480469 51.417969 82.679688 50.917969 82.679688 C 50.316406 82.679688 49.71875 82.480469 49.316406 82.078125 C 48.917969 81.679688 48.71875 81.179688 48.71875 80.679688 C 48.71875 80.28125 48.816406 79.980469 49.019531 79.679688 C 49.21875 79.378906 49.417969 79.078125 49.71875 78.980469 C 50.117188 78.78125 50.519531 78.679688 50.917969 78.679688 C 51.417969 78.679688 52.019531 78.878906 52.417969 79.28125 L 52.417969 78.78125 L 53.21875 78.78125 L 53.21875 82.179688 C 53.21875 82.679688 53.21875 83.078125 53.019531 83.480469 C 52.816406 83.78125 52.617188 83.980469 52.316406 84.078125 C 51.917969 84.28125 51.519531 84.28125 51.019531 84.28125 C 50.519531 84.28125 50.019531 84.179688 49.617188 83.980469 C 49.117188 83.78125 48.917969 83.480469 48.917969 83.078125 Z M 49.617188 80.679688 C 49.617188 81.078125 49.71875 81.480469 50.019531 81.78125 C 50.316406 81.980469 50.617188 82.179688 51.019531 82.179688 C 51.417969 82.179688 51.71875 82.078125 52.019531 81.78125 C 52.316406 81.480469 52.417969 81.078125 52.417969 80.679688 C 52.417969 80.28125 52.316406 79.878906 52.019531 79.578125 C 51.71875 79.378906 51.417969 79.179688 51.019531 79.179688 C 50.617188 79.179688 50.316406 79.28125 50.019531 79.578125 C 49.71875 79.878906 49.617188 80.28125 49.617188 80.679688 Z M 49.617188 80.679688 "/>
<path style=" stroke:none;fill-rule:nonzero;fill:rgb(0%,29.019608%,61.176471%);fill-opacity:1;" d="M 61.617188 81.378906 L 62.519531 81.480469 C 62.417969 81.878906 62.117188 82.179688 61.71875 82.378906 C 61.320312 82.578125 60.820312 82.78125 60.320312 82.679688 C 59.71875 82.679688 59.117188 82.480469 58.617188 82.179688 C 58.21875 81.78125 57.917969 81.28125 58.019531 80.679688 C 58.019531 80.078125 58.21875 79.480469 58.617188 79.078125 C 59.117188 78.679688 59.71875 78.480469 60.320312 78.480469 C 60.917969 78.480469 61.519531 78.679688 61.917969 78.980469 C 62.320312 79.378906 62.617188 79.878906 62.519531 80.480469 C 62.519531 80.480469 62.519531 80.578125 62.519531 80.679688 L 58.820312 80.679688 C 58.820312 81.078125 59.019531 81.378906 59.320312 81.679688 C 59.617188 81.878906 60.019531 82.078125 60.320312 81.980469 C 60.617188 81.980469 60.917969 81.878906 61.117188 81.78125 C 61.320312 81.878906 61.519531 81.679688 61.617188 81.378906 Z M 58.917969 80.378906 L 61.71875 80.378906 C 61.71875 80.078125 61.617188 79.878906 61.417969 79.578125 C 61.117188 79.28125 60.71875 79.179688 60.417969 79.179688 C 60.019531 79.179688 59.71875 79.28125 59.417969 79.480469 C 59.019531 79.679688 58.917969 79.980469 58.917969 80.378906 Z M 58.917969 80.378906 "/>
<path style=" stroke:none;fill-rule:nonzero;fill:rgb(0%,29.019608%,61.176471%);fill-opacity:1;" d="M 67.332031 82.679688 L 67.332031 78.679688 L 68.132812 78.679688 L 68.132812 79.28125 C 68.332031 79.078125 68.53125 78.878906 68.734375 78.78125 C 69.03125 78.679688 69.332031 78.578125 69.632812 78.578125 C 69.933594 78.578125 70.234375 78.679688 70.53125 78.78125 C 70.734375 78.878906 70.933594 79.078125 71.03125 79.28125 C 71.433594 78.78125 71.933594 78.578125 72.53125 78.578125 C 72.933594 78.578125 73.332031 78.679688 73.632812 78.878906 C 73.933594 79.179688 74.03125 79.480469 74.03125 79.878906 L 74.03125 82.578125 L 73.234375 82.578125 L 73.234375 80.078125 C 73.234375 79.878906 73.234375 79.679688 73.132812 79.480469 C 73.03125 79.378906 72.933594 79.28125 72.832031 79.179688 C 72.632812 79.078125 72.53125 79.078125 72.332031 79.078125 C 72.03125 79.078125 71.734375 79.179688 71.433594 79.378906 C 71.234375 79.578125 71.03125 79.980469 71.132812 80.28125 L 71.132812 82.578125 L 70.332031 82.578125 L 70.332031 79.980469 C 70.332031 79.78125 70.234375 79.480469 70.132812 79.28125 C 69.933594 79.078125 69.734375 79.078125 69.433594 79.078125 C 69.234375 79.078125 68.933594 79.078125 68.734375 79.28125 C 68.53125 79.378906 68.433594 79.480469 68.332031 79.679688 C 68.234375 79.980469 68.234375 80.179688 68.234375 80.480469 L 68.234375 82.578125 Z M 67.332031 82.679688 "/>
<path style=" stroke:none;fill-rule:nonzero;fill:rgb(0%,29.019608%,61.176471%);fill-opacity:1;" d="M 82.574219 81.378906 L 83.476562 81.480469 C 83.375 81.878906 83.074219 82.179688 82.675781 82.378906 C 82.277344 82.578125 81.777344 82.78125 81.277344 82.679688 C 80.675781 82.679688 80.074219 82.480469 79.574219 82.179688 C 79.175781 81.78125 78.875 81.28125 78.976562 80.679688 C 78.976562 80.078125 79.175781 79.480469 79.574219 79.078125 C 80.074219 78.679688 80.675781 78.480469 81.277344 78.480469 C 81.875 78.480469 82.476562 78.679688 82.875 78.980469 C 83.277344 79.378906 83.574219 79.878906 83.476562 80.480469 C 83.476562 80.480469 83.476562 80.578125 83.476562 80.679688 L 79.777344 80.679688 C 79.777344 81.078125 79.976562 81.378906 80.277344 81.679688 C 80.574219 81.878906 80.976562 82.078125 81.277344 81.980469 C 81.574219 81.980469 81.875 81.878906 82.074219 81.78125 C 82.277344 81.878906 82.476562 81.679688 82.574219 81.378906 Z M 79.777344 80.378906 L 82.574219 80.378906 C 82.574219 80.078125 82.476562 79.878906 82.277344 79.578125 C 81.976562 79.28125 81.574219 79.179688 81.277344 79.179688 C 80.875 79.179688 80.574219 79.28125 80.277344 79.480469 C 79.976562 79.679688 79.777344 79.980469 79.777344 80.378906 Z M 79.777344 80.378906 "/>
<path style=" stroke:none;fill-rule:nonzero;fill:rgb(0%,29.019608%,61.176471%);fill-opacity:1;" d="M 88.289062 82.679688 L 88.289062 78.679688 L 89.089844 78.679688 L 89.089844 79.28125 C 89.488281 78.78125 90.089844 78.578125 90.691406 78.578125 C 90.988281 78.578125 91.289062 78.578125 91.488281 78.679688 C 91.691406 78.78125 91.890625 78.878906 92.089844 78.980469 C 92.191406 79.078125 92.289062 79.28125 92.390625 79.480469 C 92.390625 79.679688 92.488281 79.878906 92.390625 80.179688 L 92.390625 82.578125 L 91.589844 82.578125 L 91.589844 80.179688 C 91.589844 79.980469 91.589844 79.78125 91.488281 79.578125 C 91.390625 79.480469 91.289062 79.28125 91.089844 79.28125 C 90.890625 79.179688 90.691406 79.179688 90.488281 79.179688 C 90.191406 79.179688 89.789062 79.28125 89.589844 79.480469 C 89.289062 79.679688 89.191406 79.980469 89.191406 80.480469 L 89.191406 82.679688 Z M 88.289062 82.679688 "/>
<path style=" stroke:none;fill-rule:nonzero;fill:rgb(0%,29.019608%,61.176471%);fill-opacity:1;" d="M 99.285156 82.109375 L 99.382812 82.710938 C 99.183594 82.710938 98.984375 82.808594 98.785156 82.808594 C 98.585938 82.808594 98.285156 82.808594 98.085938 82.710938 C 97.984375 82.609375 97.785156 82.511719 97.683594 82.410156 C 97.585938 82.109375 97.585938 81.910156 97.585938 81.609375 L 97.585938 79.308594 L 96.984375 79.308594 L 96.984375 78.808594 L 97.585938 78.808594 L 97.585938 77.808594 L 98.382812 77.410156 L 98.382812 78.808594 L 99.183594 78.808594 L 99.183594 79.308594 L 98.382812 79.308594 L 98.382812 81.609375 C 98.382812 81.710938 98.382812 81.910156 98.382812 82.011719 C 98.382812 82.109375 98.484375 82.109375 98.484375 82.109375 C 98.585938 82.109375 98.683594 82.210938 98.785156 82.109375 C 98.984375 82.109375 99.085938 82.109375 99.285156 82.109375 Z M 99.285156 82.109375 "/>
<path style=" stroke:none;fill-rule:nonzero;fill:rgb(0%,29.019608%,61.176471%);fill-opacity:1;" d="M 110.449219 82.742188 L 110.449219 77.242188 L 113.046875 77.242188 C 113.347656 77.242188 113.746094 77.242188 114.046875 77.34375 C 114.347656 77.34375 114.648438 77.441406 114.847656 77.640625 C 115.046875 77.742188 115.246094 77.941406 115.347656 78.140625 C 115.449219 78.34375 115.546875 78.640625 115.546875 78.84375 C 115.546875 79.34375 115.347656 79.742188 114.949219 80.042969 C 114.546875 80.34375 113.949219 80.542969 112.949219 80.542969 L 111.148438 80.542969 L 111.148438 82.742188 Z M 111.347656 79.84375 L 113.148438 79.84375 C 113.546875 79.84375 114.046875 79.742188 114.449219 79.542969 C 114.648438 79.34375 114.847656 79.140625 114.847656 78.84375 C 114.847656 78.640625 114.746094 78.441406 114.648438 78.242188 C 114.546875 78.042969 114.347656 77.941406 114.046875 77.941406 C 113.746094 77.941406 113.449219 77.84375 113.246094 77.941406 L 111.449219 77.941406 Z M 111.347656 79.84375 "/>
<path style=" stroke:none;fill-rule:nonzero;fill:rgb(0%,29.019608%,61.176471%);fill-opacity:1;" d="M 120.539062 82.679688 L 120.539062 78.679688 L 121.339844 78.679688 L 121.339844 79.28125 C 121.4375 79.078125 121.636719 78.878906 121.839844 78.679688 C 122.039062 78.578125 122.238281 78.578125 122.339844 78.578125 C 122.636719 78.578125 122.9375 78.679688 123.238281 78.78125 L 122.9375 79.378906 C 122.738281 79.28125 122.539062 79.28125 122.339844 79.28125 C 122.136719 79.28125 122.039062 79.28125 121.839844 79.378906 C 121.738281 79.480469 121.539062 79.578125 121.539062 79.78125 C 121.4375 80.078125 121.4375 80.28125 121.4375 80.578125 L 121.4375 82.679688 Z M 120.539062 82.679688 "/>
<path style=" stroke:none;fill-rule:nonzero;fill:rgb(0%,29.019608%,61.176471%);fill-opacity:1;" d="M 127.238281 80.679688 C 127.238281 80.078125 127.4375 79.378906 128.039062 79.078125 C 128.539062 78.78125 129.039062 78.578125 129.636719 78.679688 C 130.238281 78.679688 130.839844 78.878906 131.339844 79.179688 C 131.738281 79.578125 132.039062 80.078125 132.039062 80.679688 C 132.039062 81.078125 131.9375 81.480469 131.738281 81.878906 C 131.539062 82.179688 131.238281 82.378906 130.9375 82.578125 C 130.539062 82.78125 130.136719 82.78125 129.738281 82.78125 C 129.136719 82.78125 128.539062 82.578125 128.039062 82.28125 C 127.4375 81.878906 127.136719 81.28125 127.238281 80.679688 Z M 128.039062 80.679688 C 128.039062 81.078125 128.136719 81.480469 128.4375 81.78125 C 128.738281 82.078125 129.136719 82.179688 129.4375 82.179688 C 129.839844 82.179688 130.238281 82.078125 130.4375 81.78125 C 130.738281 81.480469 130.9375 81.078125 130.839844 80.578125 C 130.839844 80.179688 130.738281 79.78125 130.4375 79.480469 C 130.136719 79.179688 129.738281 79.078125 129.4375 79.078125 C 129.039062 79.078125 128.636719 79.179688 128.4375 79.480469 C 128.136719 79.878906 128.039062 80.28125 128.039062 80.679688 Z M 128.039062 80.679688 "/>
<path style=" stroke:none;fill-rule:nonzero;fill:rgb(0%,29.019608%,61.176471%);fill-opacity:1;" d="M 136.484375 83.078125 L 137.285156 83.179688 C 137.285156 83.378906 137.386719 83.480469 137.585938 83.578125 C 137.886719 83.679688 138.1875 83.78125 138.484375 83.78125 C 138.785156 83.78125 139.085938 83.78125 139.386719 83.578125 C 139.585938 83.480469 139.785156 83.28125 139.785156 83.078125 C 139.886719 82.78125 139.886719 82.480469 139.886719 82.179688 C 139.484375 82.480469 138.984375 82.679688 138.484375 82.679688 C 137.886719 82.679688 137.285156 82.480469 136.886719 82.078125 C 136.484375 81.679688 136.285156 81.179688 136.285156 80.679688 C 136.285156 80.28125 136.386719 79.980469 136.585938 79.679688 C 136.785156 79.378906 136.984375 79.078125 137.285156 78.980469 C 137.6875 78.78125 138.085938 78.679688 138.484375 78.679688 C 138.984375 78.679688 139.585938 78.878906 139.984375 79.28125 L 139.984375 78.78125 L 140.785156 78.78125 L 140.785156 82.179688 C 140.785156 82.679688 140.785156 83.078125 140.585938 83.480469 C 140.386719 83.78125 140.1875 83.980469 139.886719 84.078125 C 139.484375 84.28125 139.085938 84.28125 138.585938 84.28125 C 138.085938 84.28125 137.585938 84.179688 137.1875 83.980469 C 136.6875 83.78125 136.484375 83.480469 136.484375 83.078125 Z M 137.1875 80.679688 C 137.1875 81.078125 137.285156 81.480469 137.585938 81.78125 C 137.886719 81.980469 138.1875 82.179688 138.585938 82.179688 C 138.984375 82.179688 139.285156 82.078125 139.585938 81.78125 C 139.886719 81.480469 139.984375 81.078125 139.984375 80.679688 C 139.984375 80.28125 139.886719 79.878906 139.585938 79.578125 C 139.285156 79.378906 138.984375 79.179688 138.585938 79.179688 C 138.1875 79.179688 137.886719 79.28125 137.585938 79.578125 C 137.285156 79.878906 137.1875 80.28125 137.1875 80.679688 Z M 137.1875 80.679688 "/>
<path style=" stroke:none;fill-rule:nonzero;fill:rgb(0%,29.019608%,61.176471%);fill-opacity:1;" d="M 145.792969 82.679688 L 145.792969 78.679688 L 146.59375 78.679688 L 146.59375 79.28125 C 146.695312 79.078125 146.894531 78.878906 147.09375 78.679688 C 147.292969 78.578125 147.492188 78.578125 147.59375 78.578125 C 147.894531 78.578125 148.195312 78.679688 148.492188 78.78125 L 148.195312 79.378906 C 147.992188 79.28125 147.792969 79.28125 147.59375 79.28125 C 147.394531 79.28125 147.292969 79.28125 147.09375 79.378906 C 146.992188 79.480469 146.792969 79.578125 146.792969 79.78125 C 146.695312 80.078125 146.695312 80.28125 146.695312 80.578125 L 146.695312 82.679688 Z M 145.792969 82.679688 "/>
<path style=" stroke:none;fill-rule:nonzero;fill:rgb(0%,29.019608%,61.176471%);fill-opacity:1;" d="M 155.980469 82.179688 C 155.679688 82.378906 155.382812 82.480469 155.082031 82.578125 C 154.78125 82.679688 154.480469 82.679688 154.179688 82.679688 C 153.78125 82.679688 153.28125 82.578125 152.882812 82.378906 C 152.582031 82.179688 152.480469 81.878906 152.480469 81.578125 C 152.480469 81.378906 152.582031 81.179688 152.679688 81.078125 C 152.78125 80.878906 152.980469 80.78125 153.082031 80.679688 C 153.28125 80.578125 153.480469 80.480469 153.679688 80.480469 C 153.882812 80.480469 154.179688 80.378906 154.382812 80.378906 C 154.882812 80.378906 155.382812 80.28125 155.882812 80.179688 C 155.882812 80.078125 155.882812 79.980469 155.882812 79.980469 C 155.882812 79.78125 155.78125 79.578125 155.679688 79.378906 C 155.382812 79.179688 155.082031 79.078125 154.679688 79.179688 C 154.382812 79.179688 154.082031 79.179688 153.78125 79.378906 C 153.582031 79.480469 153.382812 79.679688 153.382812 79.980469 L 152.582031 79.878906 C 152.679688 79.578125 152.78125 79.378906 152.980469 79.179688 C 153.179688 78.980469 153.480469 78.878906 153.679688 78.78125 C 154.082031 78.679688 154.382812 78.679688 154.78125 78.679688 C 155.082031 78.679688 155.480469 78.679688 155.78125 78.78125 C 155.980469 78.878906 156.179688 78.980469 156.382812 79.078125 C 156.480469 79.179688 156.582031 79.378906 156.679688 79.578125 C 156.679688 79.78125 156.679688 79.980469 156.679688 80.179688 L 156.679688 81.078125 C 156.679688 81.480469 156.679688 81.878906 156.78125 82.28125 C 156.78125 82.480469 156.882812 82.578125 156.980469 82.78125 L 156.082031 82.78125 C 156.082031 82.578125 155.980469 82.378906 155.980469 82.179688 Z M 155.980469 80.679688 C 155.480469 80.78125 155.082031 80.878906 154.582031 80.980469 C 154.382812 80.980469 154.082031 81.078125 153.882812 81.078125 C 153.78125 81.078125 153.679688 81.179688 153.582031 81.28125 C 153.480469 81.378906 153.480469 81.480469 153.480469 81.578125 C 153.480469 81.78125 153.582031 81.980469 153.78125 81.980469 C 153.980469 82.078125 154.28125 82.179688 154.480469 82.179688 C 154.78125 82.179688 155.082031 82.078125 155.382812 81.980469 C 155.582031 81.878906 155.78125 81.679688 155.980469 81.480469 C 156.082031 81.28125 156.082031 81.078125 156.082031 80.78125 Z M 155.980469 80.679688 "/>
<path style=" stroke:none;fill-rule:nonzero;fill:rgb(0%,29.019608%,61.176471%);fill-opacity:1;" d="M 161.90625 82.679688 L 161.90625 78.679688 L 162.707031 78.679688 L 162.707031 79.28125 C 162.90625 79.078125 163.109375 78.878906 163.308594 78.78125 C 163.609375 78.679688 163.90625 78.578125 164.207031 78.578125 C 164.507812 78.578125 164.808594 78.679688 165.109375 78.78125 C 165.308594 78.878906 165.507812 79.078125 165.609375 79.28125 C 166.007812 78.78125 166.507812 78.578125 167.109375 78.578125 C 167.507812 78.578125 167.90625 78.679688 168.207031 78.878906 C 168.507812 79.179688 168.609375 79.480469 168.609375 79.878906 L 168.609375 82.578125 L 167.808594 82.578125 L 167.808594 80.078125 C 167.808594 79.878906 167.808594 79.679688 167.707031 79.480469 C 167.609375 79.378906 167.507812 79.28125 167.40625 79.179688 C 167.207031 79.078125 167.109375 79.078125 166.90625 79.078125 C 166.609375 79.078125 166.308594 79.179688 166.007812 79.378906 C 165.808594 79.578125 165.609375 79.980469 165.707031 80.28125 L 165.707031 82.578125 L 164.90625 82.578125 L 164.90625 79.980469 C 164.90625 79.78125 164.808594 79.480469 164.707031 79.28125 C 164.507812 79.078125 164.308594 79.078125 164.007812 79.078125 C 163.808594 79.078125 163.507812 79.078125 163.308594 79.28125 C 163.109375 79.378906 163.007812 79.480469 162.90625 79.679688 C 162.808594 79.980469 162.707031 80.179688 162.808594 80.480469 L 162.808594 82.578125 Z M 161.90625 82.679688 "/>
<path style=" stroke:none;fill-rule:nonzero;fill:rgb(0%,29.019608%,61.176471%);fill-opacity:1;" d="M 3.300781 24.480469 C 11 15.179688 35.601562 16.378906 43.601562 15.777344 C 54.398438 14.980469 59.199219 11.679688 67 7.578125 C 74.800781 3.480469 85.199219 1.980469 91.800781 1.980469 C 118.101562 1.980469 134 14.179688 141 17.378906 C 148.101562 20.578125 153.101562 22.179688 156.898438 22.277344 C 160.699219 22.378906 172 27.777344 172 27.777344 C 172 27.777344 161.101562 26.878906 151.601562 26.078125 C 144.5 25.480469 131.5 19.777344 121.898438 15.277344 C 112.300781 10.777344 105.300781 8.480469 91.199219 8.078125 C 81.601562 7.878906 74.101562 9.878906 67.699219 13.777344 C 62.300781 17.078125 55.101562 19.777344 43.398438 21.179688 C 38.101562 21.777344 20.199219 22.277344 10.898438 24.980469 C 5.800781 26.480469 2.199219 30.878906 -0.101562 34.578125 C 0.199219 32.179688 1.800781 26.277344 3.300781 24.480469 Z M 3.300781 24.480469 "/>
</g>
</svg>
