<svg xmlns="http://www.w3.org/2000/svg" xmlns:xlink="http://www.w3.org/1999/xlink" width="128" height="128" viewBox="0 0 128 128">
  <defs>
    <clipPath id="clip-freeService">
      <rect width="128" height="128"/>
    </clipPath>
  </defs>
  <g id="freeService" clip-path="url(#clip-freeService)">
    <g id="hand_3_" data-name="hand (3)" transform="translate(4.162)">
      <path id="Path_23" data-name="Path 23" d="M45.185,346.1a1.888,1.888,0,0,0,1.923,1.646H72.021a1.858,1.858,0,0,0,1.855-2.417l-3.187-10.44,9.93-6.272a5.75,5.75,0,0,1,4.18-.533c.04.01.08.021.121.028l20.736,3.82a27.227,27.227,0,0,0,16.823-2.375,1.879,1.879,0,0,0,.237-.138L158.578,304.8a1.938,1.938,0,0,0,.563-2.6,10.234,10.234,0,0,0-13.647-3.733l-.334.18c-2.61-2.947-6.948-4.048-10.276-2.361l-.043.023-1.211.652a11.349,11.349,0,0,0-12.786-1l-7.678,4.178H102.924a14.541,14.541,0,0,1-6.3-1.445L95.206,298a24.793,24.793,0,0,0-25.8,2.519c-.043.032-.083.065-.123.1l-3.434,3.058a11.526,11.526,0,0,1-3.975,2.308L60.034,299.9a1.99,1.99,0,0,0-1.853-1.43H41.572a2,2,0,0,0-1.451.711,1.936,1.936,0,0,0-.473,1.519Zm91.472-46.366a4.725,4.725,0,0,1,4.912.852l-13.1,7.067-.406.214a12.176,12.176,0,0,0-1.485-2.7Zm-13.939-.388.046-.025a7.469,7.469,0,0,1,6.979-.265l-6.062,3.266a12.149,12.149,0,0,0-3.388-1.657Zm-54.3,7.225,3.373-3a20.933,20.933,0,0,1,21.724-2.081l1.422.69a18.441,18.441,0,0,0,7.982,1.832h13.793a8.331,8.331,0,0,1,8.065,6.277l-9.487-.43a60.133,60.133,0,0,0-10.952.505,1.938,1.938,0,1,0,.531,3.839,56.351,56.351,0,0,1,10.245-.474l11.765.532.087,0a1.938,1.938,0,0,0,1.938-1.938c0-.173-.006-.344-.013-.515l1.395-.735,17.043-9.195a6.363,6.363,0,0,1,7.33.9l-34.027,23.363a23.323,23.323,0,0,1-14.287,1.976l-20.672-3.807a9.612,9.612,0,0,0-7,.952c-.03.017-.06.035-.089.053l-9.079,5.74L63,309.7a15.405,15.405,0,0,0,5.422-3.124ZM56.745,302.35,69.4,343.872H48.824L43.76,302.35Z" transform="translate(-39.634 -219.859)" fill="#fff"/>
      <path id="Path_24" data-name="Path 24" d="M93.177,443.24a5.259,5.259,0,1,0-5.259-5.259A5.259,5.259,0,0,0,93.177,443.24Zm0-6.643a1.384,1.384,0,1,1-1.384,1.384,1.384,1.384,0,0,1,1.384-1.384Z" transform="translate(-74.552 -319.858)" fill="#fff"/>
      <path id="Path_25" data-name="Path 25" d="M140.752,63.708l5.258.507a26.036,26.036,0,0,0,2.6,6.184l-3.339,4.032a1.938,1.938,0,0,0,.122,2.607l6.305,6.305a1.938,1.938,0,0,0,2.606.122l4.041-3.348a26.514,26.514,0,0,0,6.173,2.609L165.027,88a1.953,1.953,0,0,0,1.931,1.768H175.9A1.953,1.953,0,0,0,177.826,88l.507-5.266a26.05,26.05,0,0,0,6.184-2.606l4.032,3.337a1.938,1.938,0,0,0,2.606-.123l6.3-6.305a1.938,1.938,0,0,0,.123-2.606l-3.349-4.043a26.508,26.508,0,0,0,2.61-6.175l5.181-.506a1.938,1.938,0,0,0,1.749-1.929V52.84a1.938,1.938,0,0,0-1.752-1.929l-5.258-.507a26.034,26.034,0,0,0-2.6-6.184l3.339-4.032a1.938,1.938,0,0,0-.113-2.6l-6.224-6.306a1.938,1.938,0,0,0-2.614-.131L184.508,34.5a26.514,26.514,0,0,0-6.173-2.609l-.507-5.2A1.889,1.889,0,0,0,175.9,25h-8.939a1.889,1.889,0,0,0-1.929,1.694l-.507,5.229a26,26,0,0,0-6.184,2.587l-4.033-3.346a1.938,1.938,0,0,0-2.606.119l-6.3,6.3a1.938,1.938,0,0,0-.122,2.605l3.349,4.041a26.51,26.51,0,0,0-2.609,6.173l-5.259.507A1.938,1.938,0,0,0,139,52.84v8.939a1.938,1.938,0,0,0,1.752,1.929Zm2.124-9.108,4.872-.471a1.938,1.938,0,0,0,1.708-1.519,22.685,22.685,0,0,1,3.168-7.5,1.938,1.938,0,0,0-.136-2.286l-3.1-3.75,3.811-3.811,3.749,3.105a1.938,1.938,0,0,0,2.311.12,21.975,21.975,0,0,1,7.476-3.151,1.873,1.873,0,0,0,1.519-1.65l.471-4.817h5.42l.471,4.817a1.9,1.9,0,0,0,1.519,1.679,22.646,22.646,0,0,1,7.5,3.152,1.938,1.938,0,0,0,2.286-.143l3.741-3.1,3.747,3.792-3.116,3.756a1.938,1.938,0,0,0-.12,2.31,21.978,21.978,0,0,1,3.15,7.476,1.938,1.938,0,0,0,1.708,1.519l4.872.471v5.421l-4.8.468a1.938,1.938,0,0,0-1.706,1.519,22.679,22.679,0,0,1-3.166,7.5,1.938,1.938,0,0,0,.136,2.286l3.106,3.747-3.811,3.811-3.749-3.1a1.938,1.938,0,0,0-2.311-.12,21.974,21.974,0,0,1-7.476,3.151,1.958,1.958,0,0,0-1.519,1.725l-.469,4.89h-5.42l-.471-4.89a1.948,1.948,0,0,0-1.519-1.716,22.7,22.7,0,0,1-7.5-3.171,1.938,1.938,0,0,0-2.286.134l-3.749,3.1-3.809-3.813,3.1-3.749a1.938,1.938,0,0,0,.12-2.311,21.98,21.98,0,0,1-3.15-7.476,1.938,1.938,0,0,0-1.708-1.519l-4.872-.471Z" transform="translate(-111.494 -24.997)" fill="#fff"/>
      <path id="Path_26" data-name="Path 26" d="M205.612,110.535A19.342,19.342,0,1,0,186.27,91.192,19.342,19.342,0,0,0,205.612,110.535Zm0-34.809a15.467,15.467,0,1,1-15.467,15.467,15.467,15.467,0,0,1,15.467-15.467Z" transform="translate(-145.679 -58.881)" fill="#fff"/>
      <path id="Path_27" data-name="Path 27" d="M228.68,130.752a1.938,1.938,0,0,0,2.707,0l9.275-9.055a1.938,1.938,0,1,0-2.707-2.773l-7.922,7.733-3.795-3.7a1.938,1.938,0,0,0-2.707,2.773Z" transform="translate(-172.204 -92.525)" fill="#fff"/>
    </g>
  </g>
</svg>
