<svg xmlns="http://www.w3.org/2000/svg" xmlns:xlink="http://www.w3.org/1999/xlink" width="256" height="256" viewBox="0 0 256 256">
  <defs>
    <clipPath id="clip-information">
      <rect width="256" height="256"/>
    </clipPath>
  </defs>
  <g id="information" clip-path="url(#clip-information)">
    <g id="information-2" data-name="information" transform="translate(0 0)">
      <path id="Path_12563" data-name="Path 12563" d="M412,131a5,5,0,1,0,5-5A5,5,0,0,0,412,131Zm0,0" transform="translate(-206.001 -63)" fill="#f92524"/>
      <path id="Path_12564" data-name="Path 12564" d="M442.335,208.118a95.244,95.244,0,0,1-1.908,19,5,5,0,0,0,3.9,5.9,4.925,4.925,0,0,0,1.006.1,5.006,5.006,0,0,0,4.895-4,105.225,105.225,0,0,0,2.109-21,103.867,103.867,0,0,0-10.15-45.031,5,5,0,1,0-9.027,4.3,93.951,93.951,0,0,1,9.178,40.728Zm0,0" transform="translate(-216.335 -80.119)" fill="#f92524"/>
      <path id="Path_12565" data-name="Path 12565" d="M251,276h-5V211a5,5,0,0,0-5-5H201a5,5,0,0,0-5,5v20a5,5,0,0,0,5,5h5v40h-5a5,5,0,0,0-5,5v20a5,5,0,0,0,5,5h50a5,5,0,0,0,5-5V281A5,5,0,0,0,251,276Zm-5,20H206V286h5a5,5,0,0,0,5-5V231a5,5,0,0,0-5-5h-5V216h30v65a5,5,0,0,0,5,5h5Zm0,0" transform="translate(-98 -103)" fill="#f92524"/>
      <path id="Path_12566" data-name="Path 12566" d="M236,146a20,20,0,1,0-20-20A20.024,20.024,0,0,0,236,146Zm0-30a10,10,0,1,1-10,10A10.012,10.012,0,0,1,236,116Zm0,0" transform="translate(-108 -53)" fill="#f92524"/>
      <path id="Path_12567" data-name="Path 12567" d="M128,0C59.011,0,0,58.9,0,128c0,23.6,6.764,48.705,18.168,67.691L.256,249.42a5,5,0,0,0,6.326,6.322l53.728-17.91C79.295,249.238,104.4,256,128,256c69.006,0,128-58.908,128-128C256,58.994,197.093,0,128,0Zm0,246c-22.643,0-46.709-6.682-64.379-17.873a5,5,0,0,0-4.258-.52L12.906,243.093l15.486-46.457a4.994,4.994,0,0,0-.52-4.258C16.681,174.711,10,150.642,10,128,10,64.037,64.037,10,128,10S246,64.037,246,128,191.962,246,128,246Zm0,0" transform="translate(0)" fill="#f92524"/>
    </g>
  </g>
</svg>
