<svg xmlns="http://www.w3.org/2000/svg" xmlns:xlink="http://www.w3.org/1999/xlink" width="256" height="256" viewBox="0 0 256 256">
  <defs>
    <clipPath id="clip-media">
      <rect width="256" height="256"/>
    </clipPath>
  </defs>
  <g id="media" clip-path="url(#clip-media)">
    <g id="clapperboard" transform="translate(-0.472 -2.593)">
      <g id="Group_2905" data-name="Group 2905" transform="translate(7.334 110.435)">
        <g id="Group_2904" data-name="Group 2904">
          <path id="Path_12561" data-name="Path 12561" d="M256.244,174.075H16.455a4.686,4.686,0,0,0-4.687,4.662v120.58a19.576,19.576,0,0,0,19.519,19.519H241.362a19.576,19.576,0,0,0,19.544-19.519V178.737A4.687,4.687,0,0,0,256.244,174.075Zm-44.273,9.348-19.768,27.1H156.08l19.793-27.073Zm-47.689,0-19.768,27.1H108.392l19.793-27.1Zm-47.689,0-19.768,27.1H60.7L80.5,183.448Zm-47.664,0-19.793,27.1H21.141l-.025-27.1Zm182.6,115.894a10.213,10.213,0,0,1-10.2,10.2H31.312a10.2,10.2,0,0,1-10.2-10.2V283.662H251.533v15.655Zm0-24.929H21.141V219.869H251.557Zm0-63.793H203.769l19.793-27.073h27.995Z" transform="translate(-11.768 -174.075)" fill="#f92524"/>
        </g>
      </g>
      <g id="Group_2907" data-name="Group 2907" transform="translate(0.001 5.172)">
        <g id="Group_2906" data-name="Group 2906">
          <path id="Path_12562" data-name="Path 12562" d="M240.617,33.231l-3.665-10.645A25.9,25.9,0,0,0,204.147,6.557L17.43,70.624A25.9,25.9,0,0,0,1.4,103.48l1.82,5.26a10.869,10.869,0,0,1,8.351-4.487l-1.321-3.814a16.553,16.553,0,0,1,10.2-20.965l10.869-3.739L58.887,94.88l-27.147,9.348H60.457l10.246-3.54,45.071-15.506L205.917,54.1l29.266-9.971A8.651,8.651,0,0,0,240.617,33.231ZM69.856,91.091,42.284,71.946,76.412,60.254,103.983,79.4ZM114.927,75.56,87.38,56.415l34.127-11.766,27.571,19.145Zm45.1-15.531-27.571-19.17,34.127-11.617L194.15,48.388ZM205.094,44.5,177.523,25.354,202.4,16.778a36.3,36.3,0,0,1,6.905-1.571,20.742,20.742,0,0,1,8.251.524,15.333,15.333,0,0,1,3.49,1.5,16.875,16.875,0,0,1,5.833,5.858,23.993,23.993,0,0,1,1.321,2.493l3.34,9.747Z" transform="translate(-0.001 -5.172)" fill="#f92524"/>
        </g>
      </g>
    </g>
  </g>
</svg>
