<svg xmlns="http://www.w3.org/2000/svg" width="40.053" height="38.714" viewBox="0 0 40.053 38.714"><path d="M.31,38.626a.64.64,0,0,0,.324.088.624.624,0,0,0,.283-.068l12.748-6.592L25.99,38.643a.606.606,0,0,0,.561,0L39.7,31.909a.623.623,0,0,0,.348-.537V.6a.63.63,0,0,0-.91-.537L26.285,6.661,13.955.173a.606.606,0,0,0-.557,0L.35,6.8A.624.624,0,0,0,0,7.342V38.11a.623.623,0,0,0,.31.516Zm25.327-1.556L14.243,31V1.7L25.637,7.675ZM38.844,31l-12,6.148V7.741l12-6.148ZM1.209,7.712,13.034,1.7v29.31L1.209,37.117Zm0,0" transform="translate(0 0)" fill="#00344d"/><path d="M54.975,21.931a.6.6,0,0,0,.275-.067L62.582,18.1a.6.6,0,1,0-.552-1.075L54.7,20.789a.6.6,0,0,0,.276,1.142Zm0,0" transform="translate(-25.717 -8.021)" fill="#00344d"/><path d="M54.975,30.013a.6.6,0,0,0,.275-.067l7.331-3.762a.6.6,0,1,0-.552-1.075L54.7,28.871a.6.6,0,0,0,.276,1.142Zm0,0" transform="translate(-25.717 -11.844)" fill="#00344d"/><path d="M62.029,33.192,54.7,36.954a.6.6,0,1,0,.552,1.075l7.331-3.762a.6.6,0,1,0-.552-1.075Zm0,0" transform="translate(-25.715 -15.667)" fill="#00344d"/><path d="M12.984,36.588,5.652,40.35A.6.6,0,1,0,6.2,41.425l7.331-3.762a.6.6,0,1,0-.552-1.075Zm0,0" transform="translate(-2.517 -17.274)" fill="#00344d"/><path d="M12.984,44.671,5.652,48.433A.6.6,0,1,0,6.2,49.508l7.331-3.762a.6.6,0,1,0-.552-1.075Zm0,0" transform="translate(-2.517 -21.097)" fill="#00344d"/><path d="M38.091,29.371,31.31,25.8a.6.6,0,0,0-.563,1.07l6.781,3.568a.6.6,0,1,0,.563-1.069Zm0,0" transform="translate(-14.393 -12.173)" fill="#00344d"/><path d="M30.743,17.17l6.781,3.568a.6.6,0,1,0,.563-1.069L31.305,16.1a.6.6,0,0,0-.563,1.07Zm0,0" transform="translate(-14.388 -7.583)" fill="#00344d"/><path d="M13.594,13.979a.586.586,0,0,0-.581-.022L5.707,17.719a.582.582,0,0,0-.3.537v5.112a.585.585,0,0,0,.268.516.568.568,0,0,0,.3.089.586.586,0,0,0,.27-.066l7.31-3.762a.584.584,0,0,0,.307-.537V14.495a.588.588,0,0,0-.27-.516Zm-.939,5.258L6.613,22.379V18.626l6.042-3.142Zm0,0" transform="translate(-2.556 -6.57)" fill="#00344d"/><path d="M38.1,40.685l-6.775-3.569a.576.576,0,0,0-.578.018.591.591,0,0,0-.278.517v5.964a.593.593,0,0,0,.311.534l6.775,3.569a.594.594,0,0,0,.279.069.558.558,0,0,0,.3-.087.592.592,0,0,0,.279-.517V41.219A.593.593,0,0,0,38.1,40.685Zm-.9,5.5L31.674,43.25v-4.6L37.2,41.584Zm0,0" transform="translate(-14.41 -17.523)" fill="#00344d"/></svg>