<svg xmlns="http://www.w3.org/2000/svg" width="38.718" height="38.075" viewBox="0 0 38.718 38.075"><g transform="translate(0 0)"><g transform="translate(0)"><path d="M18.916,26.961c1.595,2.248,3.186,4.259,4.242,5.554.154.188.3.363.437.532H20.411a.645.645,0,0,0,0,1.291H30.736a.645.645,0,1,0,0-1.291H27.552l.438-.532c1.054-1.291,2.646-3.306,4.241-5.554a56.7,56.7,0,0,0,4.263-6.87A15.091,15.091,0,0,0,38.479,13.7,12.9,12.9,0,0,0,34.7,4.567a.645.645,0,1,0-.913.912,11.611,11.611,0,0,1,3.4,8.226,13.911,13.911,0,0,1-1.846,5.8,55.416,55.416,0,0,1-4.166,6.711c-1.573,2.219-3.146,4.207-4.188,5.485-.346.425-.658.8-.924,1.118a.654.654,0,0,1-.983,0c-.266-.317-.578-.693-.924-1.118-1.042-1.277-2.615-3.265-4.188-5.485A55.416,55.416,0,0,1,15.8,19.5a13.891,13.891,0,0,1-1.846-5.8A11.619,11.619,0,0,1,30.1,2.986.646.646,0,0,0,30.6,1.8,12.911,12.911,0,0,0,12.668,13.7a15.115,15.115,0,0,0,1.986,6.388A56.658,56.658,0,0,0,18.916,26.961Z" transform="translate(-6.214 -0.779)" fill="#00344d"/><path d="M31.786,13.475a.645.645,0,0,0,0-1.291,6.453,6.453,0,1,0,4.563,1.89.645.645,0,1,0-.912.912,5.162,5.162,0,1,1-3.65-1.512Z" transform="translate(-12.427 -6.374)" fill="#00344d"/><path d="M38.475,62.1,34.506,55a2.006,2.006,0,0,0-1.756-1.014h-4.6a.645.645,0,1,0,0,1.291h4.6a.716.716,0,0,1,.63.352l3.967,7.1a.581.581,0,0,1-.006.6.71.71,0,0,1-.625.342H2a.71.71,0,0,1-.624-.342.581.581,0,0,1-.006-.6l3.967-7.1a.715.715,0,0,1,.63-.352h4.6a.645.645,0,1,0,0-1.291h-4.6A2.007,2.007,0,0,0,4.211,55L.243,62.1a1.871,1.871,0,0,0,.02,1.878A1.988,1.988,0,0,0,2,64.955H36.718a1.987,1.987,0,0,0,1.737-.98A1.871,1.871,0,0,0,38.475,62.1Z" transform="translate(0 -26.879)" fill="#00344d"/><path d="M57.1,60.318H54.515a.649.649,0,0,0-.358.108l-1.936,1.291a.645.645,0,0,0,.716,1.074l1.771-1.182H57.1a.645.645,0,0,0,0-1.291Z" transform="translate(-25.477 -29.986)" fill="#00344d"/><path d="M54.467,68.563a.645.645,0,0,0,.645.645h5.162a.645.645,0,1,0,0-1.291H55.113A.645.645,0,0,0,54.467,68.563Z" transform="translate(-26.72 -33.714)" fill="#00344d"/><path d="M17.83,62.9a.645.645,0,0,0,.359-1.182l-1.936-1.291a.649.649,0,0,0-.359-.108H13.313a.645.645,0,0,0,0,1.291H15.7l1.773,1.182A.644.644,0,0,0,17.83,62.9Z" transform="translate(-6.214 -29.986)" fill="#00344d"/><path d="M9.513,67.918a.645.645,0,0,0,0,1.291h5.162a.645.645,0,0,0,0-1.291Z" transform="translate(-4.35 -33.714)" fill="#00344d"/></g></g></svg>