<svg xmlns="http://www.w3.org/2000/svg" xmlns:xlink="http://www.w3.org/1999/xlink" width="256" height="256" viewBox="0 0 256 256">
  <defs>
    <clipPath id="clip-green">
      <rect width="256" height="256"/>
    </clipPath>
  </defs>
  <g id="green" clip-path="url(#clip-green)">
    <path id="planet-earth" d="M251.982,29.8a102.881,102.881,0,0,0-8.913-20.285,3.821,3.821,0,0,0-4.042-1.706,102.859,102.859,0,0,0-20.756,7.744c-14.723,7.351-25.008,17.164-29.746,28.374-3.944,9.336-4.51,20.749-1.712,33.357A106.22,106.22,0,0,0,166.84,59.9,154.717,154.717,0,0,0,149.482,33.3c-3.039-3.735-8.883.952-5.813,4.724a149.977,149.977,0,0,1,13.821,20.33L123.37,51.7,90.952,7.482a52.844,52.844,0,0,1,9.45.964c9.965,1.951,19.808,7.026,29.26,15.082,3.7,3.157,8.513-2.589,4.858-5.7-10.442-8.9-21.437-14.53-32.68-16.732C84.678-2.265,64.662,2.144,43.949,13.849A149.547,149.547,0,0,0,17.757,32.558a3.964,3.964,0,0,0-.445,5.142,152.836,152.836,0,0,0,16.8,26.372,117.128,117.128,0,0,0,17.707,18.2q-2.617,2.193-5.086,4.6A86.6,86.6,0,0,0,74.748,229.006c4.46,1.806,7.28-5.131,2.817-6.942a79.079,79.079,0,0,1-16.2-8.913A42.2,42.2,0,0,0,55,183.609c-1.188-1.849,2.363-9.113,4.482-13.451,2.188-4.471,4.446-9.094,5.5-13.446,1.121-4.624-.14-8.505-3.644-11.229-2.572-2-5.938-3.034-8.905-3.947-1.927-.593-4.112-1.264-4.893-1.915-1.607-1.347-4.232-6.324-6.342-10.32-2.341-4.434-4.57-8.654-6.845-11.252A79.652,79.652,0,0,1,58,86.895C67.412,93.3,78.15,97.727,89.565,98.623c-13.237,10.257-17.52,23.355-11.4,35.937,7.148,14.692,21.86,12.345,34.84,10.277,2.246-.359,4.57-.729,6.8-1.007.835-.1,1.086.123,1.255.272,2.842,2.528,2.758,14.6,2.7,23.42-.083,12.2-.161,23.717,4.382,29.632a11.435,11.435,0,0,0,9.406,4.557,18.882,18.882,0,0,0,7.4-1.673c11.3-4.838,23.041-19.4,21.25-30.919-1.565-10.072-2.6-16.727-.159-22.091,2.258-4.964,7.717-9.56,18.469-15.425A79.1,79.1,0,0,1,98.54,227.356c-4.78-.518-5.606,6.92-.819,7.447a87.07,87.07,0,0,0,70.11-24.166A86.54,86.54,0,0,0,154.508,76.225c4.949-3.529,8.635-6.58,10.679-8.351A99.452,99.452,0,1,1,9.18,132.554c.777-4.715-6.609-5.952-7.39-1.22A106.91,106.91,0,0,0,89.86,254.242a108.392,108.392,0,0,0,17.651,1.453,106.983,106.983,0,0,0,97.84-149.612,107.878,107.878,0,0,0,17.272-6.8c14.72-7.351,25.006-17.164,29.743-28.374s4.609-25.427-.382-41.106ZM34.576,132.8c2.787,5.284,5.423,10.278,8.162,12.569,1.94,1.622,4.64,2.452,7.5,3.33,7.321,2.25,8.171,3.355,7.469,6.25-.861,3.56-2.94,7.811-4.949,11.92-3.869,7.916-7.522,15.388-4.059,20.788a35.626,35.626,0,0,1,5.668,19.875A79.834,79.834,0,0,1,31.28,126.753c1.1,1.888,2.26,4.083,3.3,6.043ZM215.8,59.186l-10.645-25.8a70.1,70.1,0,0,1,16.309-11.057A99.984,99.984,0,0,1,233.3,17.348ZM240.21,20.252a100.474,100.474,0,0,1,4.685,11.976,71.617,71.617,0,0,1,3.393,18.058L223.341,60.579ZM195.424,46.844a35.675,35.675,0,0,1,4.183-7.271l12.118,29.363-10.875,26A99.45,99.45,0,0,1,196,82.6c-3.064-9.684-5.648-23.751-.573-35.76Zm24,45.658a99.514,99.514,0,0,1-11.463,4.852l11.285-26.979,28.725-11.853a36.136,36.136,0,0,1-2.5,9.467C240.391,80,228.5,87.95,219.422,92.5ZM84.354,90.37c-1.323-.259-2.63-.576-3.917-.936l41.457-30.389L156.029,65.7c-12.435,9.8-42.7,30.35-71.675,24.672ZM46.466,66.934a145.832,145.832,0,0,1-19.1-26.315l43.44,8.47Zm7.672-49.976L72.313,41.748,28.592,33.226A147.665,147.665,0,0,1,54.138,16.958Zm29.012,26.9L61.116,13.805A84.255,84.255,0,0,1,82.052,8.012l30.482,41.576Zm-2.332,7.177,31.068,6.055L72.014,86.32A77.5,77.5,0,0,1,51.806,72.306ZM182.46,124.186c-13.5,7.195-20.117,12.846-23.253,19.739-3.369,7.4-2.135,15.347-.426,26.344,1.01,6.484-6.7,18.559-16.794,22.884-3.736,1.6-6.4,1.411-7.912-.563-2.976-3.874-2.895-15.6-2.831-25.015.089-13.031.167-24.285-5.209-29.068a8.83,8.83,0,0,0-7.156-2.11c-2.355.293-4.744.674-7.053,1.042-13.769,2.194-22.434,3.073-26.923-6.155-7.273-14.946,7.449-26.017,14.116-30.083a23.729,23.729,0,0,0,3.788-2.889c16.114-1.926,31.339-8.839,44.907-17.5a79.512,79.512,0,0,1,34.746,43.375Zm0,0" transform="translate(-0.335 0.153)" fill="#f92524"/>
  </g>
</svg>
