<svg xmlns="http://www.w3.org/2000/svg" xmlns:xlink="http://www.w3.org/1999/xlink" width="256" height="256" viewBox="0 0 256 256">
  <defs>
    <clipPath id="clip-policy">
      <rect width="256" height="256"/>
    </clipPath>
  </defs>
  <g id="policy" clip-path="url(#clip-policy)">
    <g id="policy-2" data-name="policy" transform="translate(-0.003 12.435)">
      <path id="Path_12575" data-name="Path 12575" d="M229.008,0H63.466A25.954,25.954,0,0,0,37.411,25.766L36.344,171.533H4.038A4.2,4.2,0,0,0,0,175.847v20.061a35.15,35.15,0,0,0,33.167,34.98v.241h139.4v-.271c1.036.043,1.664.271,2.377.271h.1A35.043,35.043,0,0,0,209.882,195.9V68.406h42.084A4.246,4.246,0,0,0,256,64.046V27.237A27.19,27.19,0,0,0,229.007,0ZM34.98,222.838h-.028A26.866,26.866,0,0,1,8.291,195.9V179.825h131.63v16.01a35.089,35.089,0,0,0,10.243,24.9,14.886,14.886,0,0,1,2.182,2.1ZM201.59,195.9a26.771,26.771,0,0,1-26.551,26.938h-.085a26.936,26.936,0,0,1-26.741-27v-19.99a4.294,4.294,0,0,0-4.146-4.314H44.636L45.7,25.794a17.659,17.659,0,0,1,17.763-17.5H209.435a28.289,28.289,0,0,0-7.844,19.057ZM247.712,27.31v32.8H209.882V27.341a19.2,19.2,0,0,1,19-19.049H229A18.9,18.9,0,0,1,247.712,27.28Zm0,0" fill="#f92524"/>
      <path id="Path_12576" data-name="Path 12576" d="M175.879,127.857l21.375,14.614a4.082,4.082,0,0,0,4.634,0l21.31-14.61c7.4-5.051,12.871-15.61,12.871-24.563V73.73a4.053,4.053,0,0,0-2.211-3.723L201.312,54a4.073,4.073,0,0,0-3.624,0L165.2,69.963A4.046,4.046,0,0,0,163,73.686V103.3c0,8.954,5.48,19.512,12.881,24.559Zm-4.589-51.584,28.243-13.935,28.243,13.974V103.3c0,6.245-4.093,14.188-9.257,17.709l-19.035,13.018-18.96-13.016c-5.164-3.524-9.235-11.466-9.235-17.711Zm0,0" transform="translate(-78.527 -25.811)" fill="#f92524"/>
      <path id="Path_12577" data-name="Path 12577" d="M211.091,139.695a4.14,4.14,0,0,0,2.935,1.243h.01a4.151,4.151,0,0,0,2.931-1.227l16.492-16.5a4.148,4.148,0,0,0-5.862-5.869l-13.547,13.545-5.415-5.468a4.148,4.148,0,0,0-5.893,5.84Zm0,0" transform="translate(-97.097 -55.948)" fill="#f92524"/>
      <path id="Path_12578" data-name="Path 12578" d="M236.646,248h-99.5a4.146,4.146,0,1,0,0,8.292h99.5a4.146,4.146,0,1,0,0-8.292Zm0,0" transform="translate(-64.076 -119.48)" fill="#f92524"/>
      <path id="Path_12579" data-name="Path 12579" d="M236.646,285h-99.5a4.146,4.146,0,1,0,0,8.292h99.5a4.146,4.146,0,1,0,0-8.292Zm0,0" transform="translate(-64.076 -137.305)" fill="#f92524"/>
    </g>
  </g>
</svg>
