<?xml version="1.0" encoding="UTF-8"?>
<svg xmlns="http://www.w3.org/2000/svg" xmlns:xlink="http://www.w3.org/1999/xlink" width="172pt" height="86pt" viewBox="0 0 172 86" version="1.1">
<g id="surface1">
<path style=" stroke:none;fill-rule:nonzero;fill:rgb(89.803922%,0%,9.803922%);fill-opacity:1;" d="M 55.125 74.082031 L 0 74.082031 L 0 11.992188 L 55.125 11.992188 Z M 0.582031 73.40625 L 54.542969 73.40625 L 54.542969 12.644531 L 0.582031 12.644531 Z M 0.582031 73.40625 "/>
<path style=" stroke:none;fill-rule:evenodd;fill:rgb(89.803922%,0%,9.803922%);fill-opacity:1;" d="M 89.1875 14.605469 C 97.179688 19.226562 104.71875 24.304688 112.644531 28.992188 C 109.28125 33.082031 100.074219 33.125 94.832031 30.832031 C 90.605469 28.980469 86.882812 26.019531 82.992188 24.234375 C 81.644531 24.886719 80.371094 25.683594 79.191406 26.613281 C 79.386719 30.316406 79 34.375 79.191406 38.078125 C 82.867188 40.777344 86.902344 43.152344 90.8125 45.761719 C 92.042969 46.582031 94.339844 48.246094 95.050781 47.601562 C 95.757812 46.953125 93.113281 44.914062 91.898438 44.03125 C 88.136719 41.292969 84.332031 38.3125 80.386719 35.699219 C 83.207031 31.792969 91.273438 31.773438 95.808594 33.96875 C 97.175781 34.632812 108.648438 42.292969 112.210938 44.894531 C 101.992188 46.691406 95.65625 52.351562 88.640625 57.335938 C 80.660156 52.195312 72.492188 47.238281 64.527344 42.085938 C 64.457031 36.785156 64.601562 31.8125 64.527344 26.503906 C 74.832031 24.652344 82.347656 19.910156 89.1875 14.605469 Z M 89.1875 14.605469 "/>
<path style=" stroke:none;fill-rule:evenodd;fill:rgb(89.803922%,0%,9.803922%);fill-opacity:1;" d="M 51.34375 28.675781 C 49.734375 31.460938 45.894531 32.679688 41.898438 32.679688 C 34.257812 32.679688 29.421875 28.984375 24.195312 26.40625 C 23.300781 25.964844 21.667969 25.011719 21.152344 25.753906 C 20.480469 26.726562 23.054688 28.082031 24.195312 28.679688 C 33.402344 33.507812 43.109375 38.804688 52.214844 43.714844 C 43.078125 46.441406 36.414062 51.632812 30.167969 57.238281 C 21.902344 52.777344 13.828125 48.121094 5.617188 43.605469 C 7.480469 41.644531 9.285156 39.597656 12.679688 39.28125 C 22.050781 38.398438 34.621094 48.210938 35.273438 47.285156 C 35.917969 46.363281 33.09375 45.042969 31.902344 44.363281 C 22.859375 39.203125 13.378906 33.789062 4.207031 28.679688 C 12.574219 25.292969 20.226562 20.621094 26.800781 15.804688 C 35.078125 20 43.085938 24.464844 51.34375 28.675781 Z M 51.34375 28.675781 "/>
<path style=" stroke:none;fill-rule:evenodd;fill:rgb(89.803922%,0%,9.803922%);fill-opacity:1;" d="M 147.839844 16.011719 C 155.902344 20.671875 164.003906 25.296875 171.953125 30.074219 C 171.972656 35.398438 171.757812 40.488281 171.839844 45.871094 C 166.4375 45.339844 162.949219 48.535156 159.347656 50.519531 C 152.5 46.019531 145.566406 41.605469 138.929688 36.890625 C 142.515625 33.527344 149.902344 32.59375 155.003906 34.941406 C 156.976562 35.847656 158.867188 37.230469 160.761719 38.402344 C 162.675781 39.59375 164.46875 40.976562 166.300781 41.972656 L 166.300781 39.59375 C 158.441406 34.476562 150.140625 29.796875 142.191406 24.773438 C 140.652344 25.625 139.164062 26.5625 137.734375 27.585938 C 137.644531 37.375 137.699219 47.207031 137.734375 57.121094 C 133.375 56.179688 129.085938 54.851562 126.546875 51.925781 C 125.695312 50.945312 124.636719 49.484375 124.566406 48.03125 C 124.378906 44 124.484375 30.59375 124.484375 27.042969 C 133.535156 24.632812 141.042969 20.675781 147.839844 16.011719 Z M 147.839844 16.011719 "/>
<path style=" stroke:none;fill-rule:nonzero;fill:rgb(89.803922%,0%,9.803922%);fill-opacity:1;" d="M 9.617188 64.871094 L 7.109375 64.871094 C 7.066406 64.664062 6.945312 64.476562 6.773438 64.347656 C 6.5625 64.21875 6.316406 64.160156 6.070312 64.171875 C 5.824219 64.15625 5.582031 64.222656 5.378906 64.355469 C 5.265625 64.441406 5.199219 64.578125 5.203125 64.71875 C 5.199219 64.835938 5.25 64.945312 5.335938 65.019531 C 5.609375 65.191406 5.910156 65.308594 6.230469 65.359375 L 7.253906 65.609375 C 8.203125 65.835938 8.867188 66.160156 9.25 66.582031 C 9.625 66.976562 9.832031 67.5 9.824219 68.046875 C 9.832031 68.46875 9.730469 68.886719 9.527344 69.257812 C 9.355469 69.59375 9.105469 69.890625 8.800781 70.117188 C 8.460938 70.351562 8.082031 70.523438 7.679688 70.621094 C 7.207031 70.746094 6.722656 70.808594 6.234375 70.804688 C 5.707031 70.808594 5.179688 70.738281 4.671875 70.589844 C 4.230469 70.472656 3.820312 70.257812 3.46875 69.96875 C 3.164062 69.714844 2.917969 69.394531 2.753906 69.035156 C 2.625 68.738281 2.542969 68.425781 2.511719 68.105469 L 5.042969 68.105469 C 5.09375 68.339844 5.230469 68.550781 5.425781 68.691406 C 5.703125 68.847656 6.015625 68.917969 6.332031 68.894531 C 6.597656 68.917969 6.867188 68.855469 7.097656 68.71875 C 7.207031 68.628906 7.269531 68.492188 7.265625 68.347656 C 7.269531 68.199219 7.214844 68.058594 7.105469 67.953125 C 6.84375 67.789062 6.546875 67.679688 6.238281 67.632812 L 5.320312 67.40625 C 4.851562 67.296875 4.398438 67.136719 3.96875 66.929688 C 3.585938 66.757812 3.257812 66.484375 3.015625 66.140625 C 2.792969 65.792969 2.683594 65.386719 2.695312 64.972656 C 2.6875 64.554688 2.785156 64.140625 2.980469 63.769531 C 3.164062 63.425781 3.429688 63.136719 3.753906 62.921875 C 4.085938 62.707031 4.453125 62.550781 4.835938 62.46875 C 5.238281 62.378906 5.652344 62.335938 6.0625 62.335938 C 6.527344 62.332031 6.992188 62.382812 7.441406 62.488281 C 7.792969 62.5625 8.132812 62.699219 8.441406 62.886719 C 8.671875 63.039062 8.878906 63.230469 9.042969 63.453125 C 9.191406 63.652344 9.3125 63.871094 9.40625 64.101562 C 9.503906 64.347656 9.574219 64.609375 9.617188 64.871094 Z M 9.617188 64.871094 "/>
<path style=" stroke:none;fill-rule:nonzero;fill:rgb(89.803922%,0%,9.803922%);fill-opacity:1;" d="M 11.273438 62.542969 L 13.902344 62.542969 L 13.902344 67.5 C 13.886719 67.753906 13.925781 68.007812 14.019531 68.246094 C 14.113281 68.425781 14.261719 68.570312 14.449219 68.652344 C 14.667969 68.761719 14.910156 68.816406 15.15625 68.8125 C 15.488281 68.832031 15.8125 68.71875 16.0625 68.5 C 16.300781 68.222656 16.414062 67.863281 16.382812 67.5 L 16.382812 62.542969 L 19.007812 62.542969 L 19.007812 67.238281 C 19.019531 67.710938 18.972656 68.179688 18.871094 68.640625 C 18.785156 68.972656 18.628906 69.285156 18.414062 69.554688 C 18.195312 69.820312 17.929688 70.050781 17.632812 70.234375 C 17.300781 70.433594 16.933594 70.582031 16.550781 70.667969 C 16.105469 70.765625 15.652344 70.816406 15.195312 70.8125 C 14.699219 70.820312 14.203125 70.769531 13.71875 70.664062 C 13.335938 70.578125 12.96875 70.429688 12.632812 70.226562 C 12.339844 70.046875 12.082031 69.816406 11.871094 69.546875 C 11.640625 69.234375 11.476562 68.878906 11.386719 68.503906 C 11.296875 68.082031 11.257812 67.652344 11.273438 67.222656 Z M 11.273438 62.542969 "/>
<path style=" stroke:none;fill-rule:nonzero;fill:rgb(89.803922%,0%,9.803922%);fill-opacity:1;" d="M 20.855469 70.585938 L 20.855469 68.679688 L 24.476562 64.652344 L 21.007812 64.652344 L 21.007812 62.542969 L 27.9375 62.542969 L 27.9375 64.414062 L 24.253906 68.46875 L 28.089844 68.46875 L 28.089844 70.585938 Z M 20.855469 70.585938 "/>
<path style=" stroke:none;fill-rule:nonzero;fill:rgb(89.803922%,0%,9.803922%);fill-opacity:1;" d="M 29.703125 62.542969 L 32.328125 62.542969 L 32.328125 67.5 C 32.316406 67.753906 32.355469 68.007812 32.449219 68.246094 C 32.539062 68.425781 32.691406 68.570312 32.878906 68.652344 C 33.097656 68.761719 33.339844 68.816406 33.585938 68.8125 C 33.917969 68.832031 34.242188 68.71875 34.488281 68.5 C 34.726562 68.222656 34.84375 67.863281 34.808594 67.5 L 34.808594 62.542969 L 37.4375 62.542969 L 37.4375 67.238281 C 37.449219 67.710938 37.402344 68.179688 37.300781 68.640625 C 37.210938 68.972656 37.054688 69.285156 36.839844 69.554688 C 36.621094 69.820312 36.359375 70.050781 36.0625 70.234375 C 35.726562 70.433594 35.363281 70.582031 34.980469 70.667969 C 34.535156 70.765625 34.082031 70.816406 33.625 70.8125 C 33.128906 70.820312 32.628906 70.769531 32.144531 70.664062 C 31.761719 70.578125 31.398438 70.429688 31.0625 70.226562 C 30.769531 70.046875 30.511719 69.816406 30.296875 69.546875 C 30.066406 69.234375 29.902344 68.878906 29.8125 68.503906 C 29.722656 68.082031 29.6875 67.652344 29.699219 67.222656 Z M 29.703125 62.542969 "/>
<path style=" stroke:none;fill-rule:nonzero;fill:rgb(89.803922%,0%,9.803922%);fill-opacity:1;" d="M 39.726562 70.585938 L 39.726562 62.542969 L 42.285156 62.542969 L 42.285156 65.199219 L 44.660156 62.542969 L 47.765625 62.542969 L 44.820312 65.570312 L 48.0625 70.585938 L 44.910156 70.585938 L 42.984375 67.382812 L 42.285156 68.078125 L 42.285156 70.585938 Z M 39.726562 70.585938 "/>
<path style=" stroke:none;fill-rule:nonzero;fill:rgb(89.803922%,0%,9.803922%);fill-opacity:1;" d="M 49.304688 70.585938 L 49.304688 62.542969 L 51.941406 62.542969 L 51.941406 70.585938 Z M 49.304688 70.585938 "/>
<path style=" stroke:none;fill-rule:nonzero;fill:rgb(89.803922%,0%,9.803922%);fill-opacity:1;" d="M 68.226562 65.304688 L 65.730469 65.304688 C 65.652344 65.015625 65.480469 64.757812 65.242188 64.574219 C 65.003906 64.398438 64.714844 64.3125 64.417969 64.316406 C 63.976562 64.3125 63.558594 64.515625 63.292969 64.867188 C 62.988281 65.234375 62.835938 65.8125 62.839844 66.613281 C 62.839844 67.390625 62.988281 67.957031 63.289062 68.3125 C 63.574219 68.65625 64.003906 68.851562 64.449219 68.839844 C 64.792969 68.847656 65.128906 68.746094 65.40625 68.546875 C 65.640625 68.394531 65.808594 68.160156 65.875 67.894531 L 64.714844 67.894531 L 64.714844 66.15625 L 68.332031 66.15625 L 68.332031 70.585938 L 66.625 70.585938 L 66.519531 69.800781 C 66.355469 69.996094 66.167969 70.171875 65.964844 70.328125 C 65.734375 70.480469 65.480469 70.597656 65.210938 70.671875 C 64.867188 70.765625 64.511719 70.808594 64.15625 70.804688 C 63.464844 70.816406 62.777344 70.65625 62.160156 70.34375 C 61.554688 70.023438 61.0625 69.523438 60.746094 68.914062 C 60.378906 68.214844 60.195312 67.433594 60.214844 66.640625 C 60.207031 66.003906 60.316406 65.371094 60.539062 64.773438 C 60.722656 64.300781 61.003906 63.871094 61.359375 63.511719 C 61.710938 63.152344 62.132812 62.867188 62.597656 62.671875 C 63.191406 62.441406 63.824219 62.324219 64.460938 62.328125 C 65.148438 62.3125 65.828125 62.46875 66.441406 62.777344 C 66.984375 63.054688 67.441406 63.476562 67.761719 63.996094 C 67.996094 64.402344 68.152344 64.84375 68.226562 65.304688 Z M 68.226562 65.304688 "/>
<path style=" stroke:none;fill-rule:nonzero;fill:rgb(89.803922%,0%,9.803922%);fill-opacity:1;" d="M 70.414062 70.585938 L 70.414062 62.542969 L 76.949219 62.542969 L 76.949219 64.441406 L 72.960938 64.441406 L 72.960938 65.570312 L 76.347656 65.570312 L 76.347656 67.394531 L 72.960938 67.394531 L 72.960938 68.65625 L 77.113281 68.65625 L 77.113281 70.585938 Z M 70.414062 70.585938 "/>
<path style=" stroke:none;fill-rule:nonzero;fill:rgb(89.803922%,0%,9.803922%);fill-opacity:1;" d="M 78.84375 70.585938 L 78.84375 62.542969 L 81.296875 62.542969 L 84.066406 66.851562 L 84.066406 62.542969 L 86.59375 62.542969 L 86.59375 70.585938 L 84.085938 70.585938 L 81.375 66.386719 L 81.375 70.585938 Z M 78.84375 70.585938 "/>
<path style=" stroke:none;fill-rule:nonzero;fill:rgb(89.803922%,0%,9.803922%);fill-opacity:1;" d="M 88.691406 62.542969 L 91.3125 62.542969 L 91.3125 67.5 C 91.300781 67.753906 91.34375 68.007812 91.433594 68.246094 C 91.527344 68.425781 91.675781 68.570312 91.863281 68.652344 C 92.082031 68.761719 92.328125 68.816406 92.574219 68.8125 C 92.902344 68.832031 93.230469 68.71875 93.476562 68.5 C 93.714844 68.222656 93.832031 67.863281 93.796875 67.5 L 93.796875 62.542969 L 96.421875 62.542969 L 96.421875 67.238281 C 96.433594 67.710938 96.386719 68.179688 96.285156 68.640625 C 96.199219 68.972656 96.042969 69.285156 95.828125 69.554688 C 95.609375 69.820312 95.34375 70.050781 95.046875 70.234375 C 94.714844 70.433594 94.347656 70.582031 93.96875 70.667969 C 93.523438 70.765625 93.066406 70.816406 92.609375 70.8125 C 92.113281 70.820312 91.617188 70.769531 91.132812 70.664062 C 90.75 70.578125 90.382812 70.429688 90.046875 70.226562 C 89.757812 70.046875 89.496094 69.816406 89.28125 69.546875 C 89.054688 69.234375 88.890625 68.878906 88.796875 68.503906 C 88.710938 68.082031 88.675781 67.652344 88.6875 67.222656 Z M 88.691406 62.542969 "/>
<path style=" stroke:none;fill-rule:nonzero;fill:rgb(89.803922%,0%,9.803922%);fill-opacity:1;" d="M 98.449219 70.585938 L 98.449219 62.542969 L 101.085938 62.542969 L 101.085938 70.585938 Z M 98.449219 70.585938 "/>
<path style=" stroke:none;fill-rule:nonzero;fill:rgb(89.803922%,0%,9.803922%);fill-opacity:1;" d="M 103.203125 70.585938 L 103.203125 62.542969 L 105.65625 62.542969 L 108.425781 66.851562 L 108.425781 62.542969 L 110.953125 62.542969 L 110.953125 70.585938 L 108.441406 70.585938 L 105.734375 66.386719 L 105.734375 70.585938 Z M 103.203125 70.585938 "/>
<path style=" stroke:none;fill-rule:nonzero;fill:rgb(89.803922%,0%,9.803922%);fill-opacity:1;" d="M 112.9375 70.585938 L 112.9375 62.542969 L 119.480469 62.542969 L 119.480469 64.441406 L 115.488281 64.441406 L 115.488281 65.570312 L 118.875 65.570312 L 118.875 67.394531 L 115.488281 67.394531 L 115.488281 68.65625 L 119.636719 68.65625 L 119.636719 70.585938 Z M 112.9375 70.585938 "/>
<path style=" stroke:none;fill-rule:nonzero;fill:rgb(89.803922%,0%,9.803922%);fill-opacity:1;" d="M 129.378906 70.585938 L 129.378906 62.542969 L 132.664062 62.542969 C 133.242188 62.53125 133.824219 62.566406 134.398438 62.648438 C 134.730469 62.703125 135.054688 62.804688 135.359375 62.945312 C 135.898438 63.234375 136.3125 63.710938 136.523438 64.28125 C 136.636719 64.601562 136.691406 64.9375 136.6875 65.277344 C 136.691406 65.660156 136.625 66.042969 136.492188 66.398438 C 136.382812 66.691406 136.222656 66.960938 136.019531 67.195312 C 135.855469 67.378906 135.667969 67.535156 135.453125 67.660156 C 135.257812 67.765625 135.050781 67.847656 134.835938 67.902344 C 134.394531 68.03125 133.9375 68.09375 133.476562 68.089844 L 131.976562 68.089844 L 131.976562 70.585938 Z M 131.9375 64.492188 L 131.9375 66.175781 L 132.886719 66.175781 C 133.148438 66.1875 133.410156 66.164062 133.667969 66.109375 C 133.816406 66.058594 133.945312 65.960938 134.03125 65.828125 C 134.125 65.675781 134.175781 65.496094 134.171875 65.316406 C 134.199219 65.058594 134.070312 64.804688 133.847656 64.667969 C 133.511719 64.527344 133.144531 64.46875 132.78125 64.492188 Z M 131.9375 64.492188 "/>
<path style=" stroke:none;fill-rule:nonzero;fill:rgb(89.803922%,0%,9.803922%);fill-opacity:1;" d="M 137.316406 70.585938 L 140.191406 62.542969 L 142.875 62.542969 L 145.75 70.585938 L 143.121094 70.585938 L 142.820312 69.53125 L 140.191406 69.53125 L 139.890625 70.585938 Z M 141.503906 64.960938 L 140.679688 67.878906 L 142.359375 67.878906 Z M 141.503906 64.960938 "/>
<path style=" stroke:none;fill-rule:nonzero;fill:rgb(89.803922%,0%,9.803922%);fill-opacity:1;" d="M 147.019531 70.585938 L 147.019531 62.542969 L 150.949219 62.542969 C 151.414062 62.539062 151.875 62.570312 152.335938 62.632812 C 152.65625 62.675781 152.96875 62.769531 153.257812 62.910156 C 153.492188 63.027344 153.699219 63.191406 153.871094 63.390625 C 154.035156 63.574219 154.160156 63.78125 154.25 64.007812 C 154.4375 64.605469 154.414062 65.253906 154.179688 65.835938 C 153.96875 66.324219 153.539062 66.679688 153.019531 66.800781 C 153.421875 66.921875 153.785156 67.144531 154.074219 67.453125 C 154.292969 67.8125 154.398438 68.234375 154.375 68.65625 L 154.414062 69.925781 C 154.40625 70.039062 154.425781 70.148438 154.46875 70.253906 C 154.519531 70.308594 154.59375 70.339844 154.667969 70.335938 L 154.667969 70.585938 L 151.996094 70.585938 C 151.90625 70.21875 151.863281 69.847656 151.871094 69.472656 L 151.851562 68.878906 C 151.859375 68.660156 151.816406 68.441406 151.722656 68.246094 C 151.636719 68.09375 151.507812 67.972656 151.347656 67.902344 C 151.109375 67.8125 150.851562 67.773438 150.59375 67.789062 L 149.570312 67.789062 L 149.570312 70.585938 Z M 149.570312 66.023438 L 150.828125 66.023438 C 151.128906 66.054688 151.433594 65.980469 151.6875 65.816406 C 151.851562 65.675781 151.945312 65.464844 151.9375 65.25 C 151.949219 65.035156 151.859375 64.824219 151.699219 64.679688 C 151.449219 64.523438 151.152344 64.449219 150.859375 64.480469 L 149.570312 64.480469 Z M 149.570312 66.023438 "/>
<path style=" stroke:none;fill-rule:nonzero;fill:rgb(89.803922%,0%,9.803922%);fill-opacity:1;" d="M 156.019531 62.542969 L 163.398438 62.542969 L 163.398438 64.660156 L 161.023438 64.660156 L 161.023438 70.582031 L 158.398438 70.582031 L 158.398438 64.660156 L 156.023438 64.660156 Z M 156.019531 62.542969 "/>
<path style=" stroke:none;fill-rule:nonzero;fill:rgb(89.803922%,0%,9.803922%);fill-opacity:1;" d="M 171.460938 64.871094 L 168.957031 64.871094 C 168.910156 64.664062 168.792969 64.476562 168.621094 64.347656 C 168.40625 64.21875 168.160156 64.160156 167.914062 64.171875 C 167.671875 64.15625 167.429688 64.222656 167.226562 64.355469 C 167.113281 64.441406 167.046875 64.574219 167.050781 64.71875 C 167.046875 64.835938 167.09375 64.945312 167.183594 65.019531 C 167.453125 65.191406 167.757812 65.308594 168.074219 65.359375 L 169.101562 65.609375 C 170.050781 65.835938 170.714844 66.160156 171.097656 66.582031 C 171.46875 66.976562 171.675781 67.503906 171.671875 68.046875 C 171.675781 68.46875 171.574219 68.882812 171.375 69.257812 C 171.199219 69.59375 170.949219 69.890625 170.648438 70.117188 C 170.308594 70.351562 169.925781 70.523438 169.527344 70.621094 C 169.054688 70.746094 168.570312 70.808594 168.082031 70.804688 C 167.550781 70.808594 167.027344 70.738281 166.519531 70.589844 C 166.078125 70.472656 165.667969 70.257812 165.3125 69.96875 C 165.007812 69.714844 164.761719 69.394531 164.59375 69.035156 C 164.46875 68.738281 164.386719 68.425781 164.351562 68.105469 L 166.886719 68.105469 C 166.933594 68.339844 167.070312 68.550781 167.269531 68.691406 C 167.542969 68.847656 167.859375 68.917969 168.171875 68.894531 C 168.4375 68.917969 168.707031 68.855469 168.9375 68.71875 C 169.050781 68.632812 169.113281 68.492188 169.109375 68.347656 C 169.113281 68.199219 169.058594 68.058594 168.949219 67.953125 C 168.6875 67.789062 168.390625 67.679688 168.082031 67.632812 L 167.164062 67.40625 C 166.695312 67.296875 166.242188 67.136719 165.8125 66.929688 C 165.429688 66.757812 165.097656 66.484375 164.859375 66.140625 C 164.636719 65.792969 164.523438 65.386719 164.535156 64.972656 C 164.527344 64.554688 164.628906 64.140625 164.824219 63.769531 C 165.007812 63.429688 165.273438 63.136719 165.597656 62.921875 C 165.925781 62.707031 166.292969 62.550781 166.679688 62.46875 C 167.082031 62.378906 167.492188 62.335938 167.90625 62.335938 C 168.371094 62.332031 168.832031 62.382812 169.285156 62.488281 C 169.636719 62.5625 169.976562 62.699219 170.28125 62.886719 C 170.515625 63.039062 170.71875 63.230469 170.886719 63.453125 C 171.035156 63.652344 171.15625 63.871094 171.25 64.101562 C 171.34375 64.351562 171.414062 64.609375 171.460938 64.871094 Z M 171.460938 64.871094 "/>
</g>
</svg>
