<svg xmlns="http://www.w3.org/2000/svg" xmlns:xlink="http://www.w3.org/1999/xlink" width="128" height="128" viewBox="0 0 128 128">
  <defs>
    <clipPath id="clip-scheduleMaintenance">
      <rect width="128" height="128"/>
    </clipPath>
  </defs>
  <g id="scheduleMaintenance" clip-path="url(#clip-scheduleMaintenance)">
    <g id="calendar_1_" data-name="calendar (1)" transform="translate(5.955 0.084)">
      <path id="Path_11" data-name="Path 11" d="M116.915,62.822h8.923a3.663,3.663,0,0,0,3.658-3.658V50.241a3.663,3.663,0,0,0-3.658-3.658h-8.923a3.663,3.663,0,0,0-3.658,3.658v8.923A3.663,3.663,0,0,0,116.915,62.822ZM117,50.331h8.744v8.744H117Zm-.089,36.226h8.923A3.663,3.663,0,0,0,129.5,82.9V73.976a3.663,3.663,0,0,0-3.658-3.658h-8.923a3.663,3.663,0,0,0-3.658,3.658V82.9A3.663,3.663,0,0,0,116.915,86.557ZM117,74.065h8.744v8.744H117ZM91.452,62.822h8.923a3.663,3.663,0,0,0,3.658-3.658V50.241a3.663,3.663,0,0,0-3.658-3.658H91.452a3.663,3.663,0,0,0-3.658,3.658v8.923A3.663,3.663,0,0,0,91.452,62.822Zm.089-12.492h8.744v8.744H91.542ZM49.45,92.939H40.528A3.663,3.663,0,0,0,36.869,96.6v8.923a3.663,3.663,0,0,0,3.658,3.658H49.45a3.663,3.663,0,0,0,3.658-3.658V96.6A3.663,3.663,0,0,0,49.45,92.939Zm-.089,12.492H40.617V96.687h8.744Zm.089-58.848H40.528a3.663,3.663,0,0,0-3.658,3.658v8.923a3.663,3.663,0,0,0,3.658,3.658H49.45a3.663,3.663,0,0,0,3.658-3.658V50.241A3.662,3.662,0,0,0,49.45,46.583Zm-.089,12.492H40.617V50.331h8.744ZM91.452,86h8.923a3.663,3.663,0,0,0,3.658-3.658V73.419a3.663,3.663,0,0,0-3.658-3.658H91.452a3.663,3.663,0,0,0-3.658,3.658v8.923A3.663,3.663,0,0,0,91.452,86Zm.089-12.492h8.744v8.744H91.542ZM131.357,8.563h-8.011V5.7a5.7,5.7,0,0,0-5.7-5.7h-.86a5.7,5.7,0,0,0-5.7,5.7V8.563H55.276V5.7a5.7,5.7,0,0,0-5.7-5.7h-.86a5.7,5.7,0,0,0-5.7,5.7V8.563H35.008a9.392,9.392,0,0,0-9.381,9.381v100.6A9.379,9.379,0,0,0,35,127.916H131.37a9.379,9.379,0,0,0,9.369-9.369V17.944a9.392,9.392,0,0,0-9.382-9.381ZM114.837,5.7a1.953,1.953,0,0,1,1.95-1.95h.86A1.953,1.953,0,0,1,119.6,5.7V8.563h-4.761Zm-68.07,0a1.953,1.953,0,0,1,1.95-1.95h.86a1.953,1.953,0,0,1,1.95,1.95V8.563H46.767V5.7Zm90.224,112.849a5.628,5.628,0,0,1-5.621,5.621H35a5.628,5.628,0,0,1-5.621-5.621v-.012a9.332,9.332,0,0,0,5.634,1.886h75.971a9.319,9.319,0,0,0,6.634-2.748L136.991,98.3Zm-21.29-4.262a8.014,8.014,0,0,0,.227-1.89V99.888a4.283,4.283,0,0,1,4.278-4.277h12.508a8.014,8.014,0,0,0,1.89-.227Zm21.29-78.945H57.15a1.874,1.874,0,1,0,0,3.748h79.841v48.5a4.283,4.283,0,0,1-4.278,4.278H120.206a8.034,8.034,0,0,0-8.025,8.025V112.4a4.283,4.283,0,0,1-4.277,4.278H35.008a5.64,5.64,0,0,1-5.634-5.634V39.088h20.28a1.874,1.874,0,1,0,0-3.748H29.374v-17.4a5.64,5.64,0,0,1,5.634-5.634h8.011V17.82a5.7,5.7,0,0,0,5.7,5.7,1.874,1.874,0,0,0,0-3.748,1.953,1.953,0,0,1-1.95-1.95V12.31h64.322V17.82a5.7,5.7,0,0,0,5.7,5.7,1.874,1.874,0,1,0,0-3.748,1.953,1.953,0,0,1-1.95-1.95V12.31h16.52a5.64,5.64,0,0,1,5.634,5.634ZM49.45,69.761H40.528a3.663,3.663,0,0,0-3.658,3.658v8.923A3.663,3.663,0,0,0,40.528,86H49.45a3.663,3.663,0,0,0,3.658-3.658V73.419A3.662,3.662,0,0,0,49.45,69.761Zm-.089,12.492H40.617V73.509h8.744ZM65.99,62.822h8.923a3.663,3.663,0,0,0,3.658-3.658V50.241a3.663,3.663,0,0,0-3.658-3.658H65.99a3.663,3.663,0,0,0-3.658,3.658v8.923A3.663,3.663,0,0,0,65.99,62.822Zm.089-12.492h8.744v8.744H66.079Zm25.46,55.1a1.874,1.874,0,0,0-3.746.089,3.663,3.663,0,0,0,3.658,3.658h8.923a3.663,3.663,0,0,0,3.658-3.658V96.6a3.663,3.663,0,0,0-3.658-3.658H91.452A3.663,3.663,0,0,0,87.794,96.6v2.573a1.874,1.874,0,0,0,3.748,0V96.687h8.744v8.744ZM65.99,86h8.923a3.663,3.663,0,0,0,3.658-3.658V73.419a3.663,3.663,0,0,0-3.658-3.658H65.99a3.663,3.663,0,0,0-3.658,3.658v8.923A3.663,3.663,0,0,0,65.99,86Zm.089-12.492h8.744v8.744H66.079Zm-.089,35.67h8.923a3.663,3.663,0,0,0,3.658-3.658V96.6a3.663,3.663,0,0,0-3.658-3.658H65.99A3.663,3.663,0,0,0,62.332,96.6v8.923A3.663,3.663,0,0,0,65.99,109.179Zm.089-12.492h8.744v8.744H66.079Z" transform="translate(-25.627 0)" fill="#fff"/>
    </g>
  </g>
</svg>
