<svg xmlns="http://www.w3.org/2000/svg" xmlns:xlink="http://www.w3.org/1999/xlink" width="256" height="256" viewBox="0 0 256 256">
  <defs>
    <clipPath id="clip-social-responsibility">
      <rect width="256" height="256"/>
    </clipPath>
  </defs>
  <g id="social-responsibility" clip-path="url(#clip-social-responsibility)">
    <g id="responsibility" transform="translate(-1 -1)">
      <path id="Path_12587" data-name="Path 12587" d="M24.516,46.161v8.258A24.745,24.745,0,0,0,35.941,75.254a10.686,10.686,0,0,1-8.27,3.939h-.6A19.089,19.089,0,0,0,8,98.261v22.222a4.128,4.128,0,0,0,4.129,4.129H86.451a4.128,4.128,0,0,0,4.129-4.129V108.1h33.032v12.387a4.128,4.128,0,0,0,4.129,4.129h74.322a4.128,4.128,0,0,0,4.129-4.129V98.261a19.089,19.089,0,0,0-19.068-19.068h-.6a10.677,10.677,0,0,1-8.266-3.939,24.751,24.751,0,0,0,11.421-20.835V46.161a24.774,24.774,0,1,0-49.548,0v8.258a24.745,24.745,0,0,0,11.425,20.835A10.592,10.592,0,0,1,146.9,78.5a19.1,19.1,0,0,0-17.581-11.693h-.6a10.677,10.677,0,0,1-8.266-3.939,24.751,24.751,0,0,0,11.421-20.835V33.774a24.774,24.774,0,1,0-49.548,0v8.258A24.745,24.745,0,0,0,93.747,62.867a10.686,10.686,0,0,1-8.27,3.939h-.6A19.091,19.091,0,0,0,67.293,78.5a10.592,10.592,0,0,1-4.653-3.245A24.757,24.757,0,0,0,74.064,54.419V46.161a24.774,24.774,0,1,0-49.548,0Zm57.806,70.193H16.258V98.261a10.822,10.822,0,0,1,10.81-10.81h.6a19.446,19.446,0,0,0,3.117-.277l1.486,1.486a24.023,24.023,0,0,0,33.532.454v14.852a4.128,4.128,0,0,0,4.129,4.129H82.322Zm104.8-28.9a10.822,10.822,0,0,1,10.81,10.81v18.093H131.871V108.1h12.387a4.128,4.128,0,0,0,4.129-4.129V89.115a24.023,24.023,0,0,0,33.532-.454l1.486-1.486a19.445,19.445,0,0,0,3.117.277Zm-38.738-41.29a16.516,16.516,0,1,1,33.032,0v8.258a16.516,16.516,0,0,1-33.032,0ZM164.9,79.193a24.709,24.709,0,0,0,5.533-.644,19,19,0,0,0,4.658,5.07,16.174,16.174,0,0,1-20.381,0,18.93,18.93,0,0,0,4.658-5.07,24.709,24.709,0,0,0,5.533.644ZM90.58,33.774a16.516,16.516,0,0,1,33.032,0v8.258a16.516,16.516,0,0,1-33.032,0ZM107.1,66.806a24.709,24.709,0,0,0,5.533-.644,19,19,0,0,0,4.658,5.07,16.174,16.174,0,0,1-20.381,0,18.93,18.93,0,0,0,4.658-5.07,24.709,24.709,0,0,0,5.533.644ZM74.064,85.874a10.822,10.822,0,0,1,10.81-10.81h.6a19.447,19.447,0,0,0,3.117-.277l1.486,1.486a24.064,24.064,0,0,0,34.031,0l1.486-1.486a19.446,19.446,0,0,0,3.117.277h.6a10.822,10.822,0,0,1,10.81,10.81V99.838H74.064ZM59.481,83.616a16.174,16.174,0,0,1-20.381,0,18.93,18.93,0,0,0,4.658-5.07,24.01,24.01,0,0,0,11.066,0,18.851,18.851,0,0,0,4.658,5.066Zm6.326-37.454v8.258a16.516,16.516,0,0,1-33.032,0V46.161a16.516,16.516,0,1,1,33.032,0Z" transform="translate(21.903 25.033)" fill="#f92524"/>
      <path id="Path_12588" data-name="Path 12588" d="M230.962,56.833l-84.6,23.073a15.872,15.872,0,0,0-2.056-2.539l-28.9-28.9a4.132,4.132,0,0,0-2.919-1.206H67.064V43.129A4.128,4.128,0,0,0,62.935,39H5.129A4.128,4.128,0,0,0,1,43.129v90.838A4.128,4.128,0,0,0,5.129,138.1H38.161a4.128,4.128,0,0,0,4.129-4.129v-4.129H62.935a4.128,4.128,0,0,0,4.129-4.129V121.58H95.3l24.138,8.043a4.075,4.075,0,0,0,2.647-.012L254.212,84.192A4.121,4.121,0,0,0,257,80.29V76.161a20.616,20.616,0,0,0-3.216-11.074c-4.62-7.259-14.01-10.653-22.821-8.254ZM34.032,129.838H9.258V47.258H34.032Zm24.774-8.258H42.29V47.258H58.806ZM248.741,77.342l-128.02,44.007-23.449-7.816a4.251,4.251,0,0,0-1.3-.211h-28.9V55.516h43.71l27.693,27.693A7.55,7.55,0,0,1,127.79,93.887L107.145,73.242l-5.838,5.838,20.645,20.645a15.75,15.75,0,0,0,26.9-11.937L233.134,64.8c5.359-1.466,10.987.475,13.679,4.719a12.335,12.335,0,0,1,1.928,6.639Z" transform="translate(0 118.903)" fill="#f92524"/>
      <path id="Path_12589" data-name="Path 12589" d="M48.775,4.056q-4.013-1.233-8.13-2.217L38.729,9.87q3.859.917,7.61,2.081Z" transform="translate(118.055 2.626)" fill="#f92524"/>
      <path id="Path_12590" data-name="Path 12590" d="M61.1,33.893c0,1.858-.041,3.712-.128,5.549l8.25.38q.136-2.948.136-5.929,0-1.251-.025-2.5l-8.258.161c.017.78.025,1.561.025,2.337Z" transform="translate(187.644 95.107)" fill="#f92524"/>
      <path id="Path_12591" data-name="Path 12591" d="M44.158,2.287c-2.721-.458-5.529-.838-8.353-1.127l-.838,8.217q3.945.4,7.812,1.057Z" transform="translate(106.283 0.501)" fill="#f92524"/>
      <path id="Path_12592" data-name="Path 12592" d="M61.8,33.287l8.064-1.775c-.6-2.742-1.3-5.487-2.077-8.167l-7.932,2.3q1.09,3.778,1.945,7.643Z" transform="translate(184.158 69.915)" fill="#f92524"/>
      <path id="Path_12593" data-name="Path 12593" d="M53.111,6.323c-2.56-1.181-5.178-2.283-7.779-3.278L42.38,10.754q3.7,1.418,7.271,3.068Z" transform="translate(129.479 6.399)" fill="#f92524"/>
      <path id="Path_12594" data-name="Path 12594" d="M61.6,36.4l8.229-.7q-.359-4.224-.987-8.365l-8.167,1.235q.595,3.877.925,7.833Z" transform="translate(186.715 82.388)" fill="#f92524"/>
      <path id="Path_12595" data-name="Path 12595" d="M59.338,24.041l6.755-4.748q-2.422-3.45-5.066-6.73L54.59,17.74q2.477,3.072,4.748,6.3Z" transform="translate(167.684 36.178)" fill="#f92524"/>
      <path id="Path_12596" data-name="Path 12596" d="M61.484,30.147l7.763-2.824c-.962-2.643-2.019-5.269-3.138-7.812l-7.556,3.332q1.579,3.592,2.932,7.3Z" transform="translate(180.081 57.922)" fill="#f92524"/>
      <path id="Path_12597" data-name="Path 12597" d="M63.613,15.571C61.734,13.527,59.744,11.5,57.7,9.559l-5.7,5.975q2.849,2.719,5.525,5.624Z" transform="translate(159.599 26.782)" fill="#f92524"/>
      <path id="Path_12598" data-name="Path 12598" d="M57.068,9.035c-2.354-1.491-4.8-2.932-7.275-4.278l-3.943,7.259q3.468,1.889,6.8,4Z" transform="translate(140.333 11.756)" fill="#f92524"/>
      <path id="Path_12599" data-name="Path 12599" d="M59.627,46.593l7.866,2.515c.859-2.684,1.631-5.417,2.3-8.118l-8.014-1.982q-.954,3.846-2.151,7.585Z" transform="translate(183.445 118.928)" fill="#f92524"/>
      <path id="Path_12600" data-name="Path 12600" d="M69.886,36.163l-8.208-.913q-.44,3.939-1.131,7.8l8.13,1.462C69.167,41.761,69.572,38.954,69.886,36.163Z" transform="translate(186.321 107.169)" fill="#f92524"/>
      <path id="Path_12601" data-name="Path 12601" d="M60.588,12.132c-2.155-1.8-4.393-3.547-6.644-5.19L49.076,13.61q3.19,2.329,6.214,4.86Z" transform="translate(150.431 18.593)" fill="#f92524"/>
      <path id="Path_12602" data-name="Path 12602" d="M60.659,27.051l7.321-3.823C66.687,20.755,65.3,18.29,63.838,15.9l-7.052,4.29Q58.836,23.546,60.659,27.051Z" transform="translate(174.556 46.62)" fill="#f92524"/>
      <path id="Path_12603" data-name="Path 12603" d="M11.825,25.485,3.91,23.123c-.8,2.7-1.524,5.438-2.139,8.159l8.052,1.829Q10.7,29.246,11.825,25.485Z" transform="translate(2.412 69.224)" fill="#f92524"/>
      <path id="Path_12604" data-name="Path 12604" d="M13.67,22.684,6.143,19.3C5,21.833,3.922,24.463,2.939,27.106l7.738,2.878q1.375-3.71,2.994-7.3Z" transform="translate(6.067 57.255)" fill="#f92524"/>
      <path id="Path_12605" data-name="Path 12605" d="M15.838,20.045,8.822,15.689C7.348,18.067,5.932,20.528,4.615,23L11.9,26.883Q13.761,23.4,15.838,20.045Z" transform="translate(11.311 45.963)" fill="#f92524"/>
      <path id="Path_12606" data-name="Path 12606" d="M18.281,17.6,11.889,12.37Q9.22,15.628,6.765,19.059l6.714,4.806Q15.783,20.657,18.281,17.6Z" transform="translate(18.039 35.577)" fill="#f92524"/>
      <path id="Path_12607" data-name="Path 12607" d="M9.349,39.279c-.062-1.548-.091-3.109-.091-4.666,0-1.082.012-2.151.041-3.221l-8.254-.227C1.012,32.3,1,33.461,1,34.617q0,2.5.095,4.975Z" transform="translate(0 94.387)" fill="#f92524"/>
      <path id="Path_12608" data-name="Path 12608" d="M10.335,28.393,2.176,27.1c-.438,2.766-.789,5.578-1.045,8.357l8.221.76Q9.717,32.264,10.335,28.393Z" transform="translate(0.41 81.684)" fill="#f92524"/>
      <path id="Path_12609" data-name="Path 12609" d="M1.167,35.894q.44,4.224,1.148,8.349l8.142-1.4q-.663-3.865-1.074-7.812Z" transform="translate(0.523 106.497)" fill="#f92524"/>
      <path id="Path_12610" data-name="Path 12610" d="M23.825,13.5,19,6.8q-3.419,2.459-6.677,5.132l5.248,6.379Q20.615,15.808,23.825,13.5Z" transform="translate(35.439 18.143)" fill="#f92524"/>
      <path id="Path_12611" data-name="Path 12611" d="M29.914,10.7l-2.9-7.734c-2.63.987-5.248,2.069-7.779,3.212l3.4,7.523q3.58-1.617,7.275-3Z" transform="translate(57.061 6.146)" fill="#f92524"/>
      <path id="Path_12612" data-name="Path 12612" d="M33.05,9.834,31.209,1.787c-2.725.623-5.471,1.35-8.155,2.159l2.387,7.9C27.943,11.1,30.5,10.421,33.05,9.834Z" transform="translate(69.007 2.463)" fill="#f92524"/>
      <path id="Path_12613" data-name="Path 12613" d="M36.164,9.363,35.4,1.138c-2.766.256-5.582.615-8.365,1.069l1.317,8.155c2.581-.417,5.186-.76,7.816-1Z" transform="translate(81.452 0.432)" fill="#f92524"/>
      <path id="Path_12614" data-name="Path 12614" d="M26.826,11.927l-3.89-7.284c-2.477,1.321-4.93,2.738-7.3,4.216l4.373,7.007Q23.339,13.785,26.826,11.927Z" transform="translate(45.809 11.399)" fill="#f92524"/>
      <path id="Path_12615" data-name="Path 12615" d="M34.489,9.259c1.569-.008,3.171.025,4.744.078l.285-8.25C37.97,1.029,36.409,1,34.857,1c-1.263,0-2.515.012-3.766.05l.252,8.258C32.383,9.275,33.428,9.259,34.489,9.259Z" transform="translate(94.155 0)" fill="#f92524"/>
      <path id="Path_12616" data-name="Path 12616" d="M20.95,15.421,15.31,9.389c-2.019,1.887-4.022,3.894-5.958,5.966l6.037,5.636c1.8-1.941,3.679-3.815,5.562-5.57Z" transform="translate(26.134 26.25)" fill="#f92524"/>
    </g>
  </g>
</svg>
