<svg xmlns="http://www.w3.org/2000/svg" xmlns:xlink="http://www.w3.org/1999/xlink" width="128" height="128" viewBox="0 0 128 128">
  <defs>
    <clipPath id="clip-warranty">
      <rect width="128" height="128"/>
    </clipPath>
  </defs>
  <g id="warranty" clip-path="url(#clip-warranty)">
    <g id="warranty-2" data-name="warranty" transform="translate(0 0.526)">
      <path id="Path_28" data-name="Path 28" d="M88.788,39.321a1.736,1.736,0,0,0-1.227.509L57.319,70.071l-17.4-17.4a1.786,1.786,0,0,0-2.455,0l-7.016,7.017a1.736,1.736,0,0,0,0,2.455L56.1,87.786a1.734,1.734,0,0,0,2.455,0L97.031,49.3a1.737,1.737,0,0,0,0-2.456L90.015,39.83a1.736,1.736,0,0,0-1.227-.509ZM57.319,84.1,34.128,60.911l4.564-4.564L56.1,73.753a1.734,1.734,0,0,0,2.455,0l30.238-30.24,4.564,4.564Z" transform="translate(-0.22 -0.292)" fill="#fff" stroke="#fff" stroke-width="1"/>
      <path id="Path_29" data-name="Path 29" d="M63.629,16.332a47.3,47.3,0,1,0,47.3,47.3A47.3,47.3,0,0,0,63.629,16.332Zm0,91.122a43.825,43.825,0,1,1,43.825-43.825A43.825,43.825,0,0,1,63.629,107.454Z" transform="translate(-0.114 -0.113)" fill="#fff" stroke="#fff" stroke-width="1"/>
      <path id="Path_30" data-name="Path 30" d="M125.049,69.072a8.856,8.856,0,0,0,0-11.139L122.2,54.381a5.44,5.44,0,0,1-.975-4.92L122.5,45.1A8.965,8.965,0,0,0,118.226,34.8l-3.976-2.183a5.439,5.439,0,0,1-2.793-4.167l-.5-4.52a8.855,8.855,0,0,0-7.879-7.879l-4.52-.5a5.436,5.436,0,0,1-4.167-2.792L92.212,8.781A8.855,8.855,0,0,0,81.9,4.509L77.546,5.778A5.448,5.448,0,0,1,72.624,4.8L69.072,1.956a8.859,8.859,0,0,0-11.139,0L54.381,4.8a5.457,5.457,0,0,1-4.92.975L45.1,4.507A8.963,8.963,0,0,0,34.8,8.779l-2.183,3.976a5.439,5.439,0,0,1-4.167,2.793l-4.52.5a8.855,8.855,0,0,0-7.879,7.879l-.5,4.52a5.436,5.436,0,0,1-2.792,4.167L8.781,34.793A8.858,8.858,0,0,0,4.509,45.1L5.78,49.457A5.448,5.448,0,0,1,4.8,54.38L1.958,57.932a8.856,8.856,0,0,0,0,11.139L4.8,72.623a5.44,5.44,0,0,1,.975,4.92L4.509,81.9A8.965,8.965,0,0,0,8.779,92.21l3.976,2.183a5.439,5.439,0,0,1,2.793,4.167l.5,4.52a8.855,8.855,0,0,0,7.879,7.879l4.52.5a5.436,5.436,0,0,1,4.167,2.792l2.183,3.977A8.855,8.855,0,0,0,45.1,122.5l4.355-1.271a5.457,5.457,0,0,1,4.922.976l3.552,2.846a8.856,8.856,0,0,0,11.139,0l3.552-2.846a5.443,5.443,0,0,1,4.92-.975L81.9,122.5a8.857,8.857,0,0,0,10.308-4.273l2.183-3.976a5.439,5.439,0,0,1,4.167-2.793l4.52-.5a8.855,8.855,0,0,0,7.879-7.879l.5-4.52a5.436,5.436,0,0,1,2.792-4.167l3.977-2.183A8.858,8.858,0,0,0,122.5,81.9l-1.271-4.355a5.448,5.448,0,0,1,.976-4.922Zm-5.556,1.382a8.923,8.923,0,0,0-1.6,8.065l1.272,4.355a5.4,5.4,0,0,1-2.608,6.29l-3.978,2.183a8.91,8.91,0,0,0-4.574,6.837l-.5,4.52a5.408,5.408,0,0,1-4.808,4.808l-4.521.5a8.914,8.914,0,0,0-6.836,4.575l-2.183,3.977a5.408,5.408,0,0,1-6.289,2.608L78.517,117.9a8.914,8.914,0,0,0-8.064,1.6L66.9,122.34a5.4,5.4,0,0,1-6.8,0l-3.552-2.846a8.921,8.921,0,0,0-8.065-1.6l-4.354,1.271a5.411,5.411,0,0,1-6.29-2.608l-2.183-3.978a8.91,8.91,0,0,0-6.837-4.574l-4.52-.5a5.408,5.408,0,0,1-4.808-4.808L19,98.182a8.914,8.914,0,0,0-4.575-6.836l-3.977-2.183a5.469,5.469,0,0,1-2.607-6.289L9.11,78.518a8.918,8.918,0,0,0-1.6-8.064L4.663,66.9a5.406,5.406,0,0,1,0-6.8l2.846-3.552a8.923,8.923,0,0,0,1.6-8.065l-1.27-4.355a5.4,5.4,0,0,1,2.608-6.29l3.978-2.183A8.91,8.91,0,0,0,19,28.821l.5-4.52A5.408,5.408,0,0,1,24.309,19.5L28.83,19a8.914,8.914,0,0,0,6.836-4.575l2.183-3.977a5.473,5.473,0,0,1,6.282-2.61L48.487,9.11a8.916,8.916,0,0,0,8.064-1.6L60.1,4.663a5.4,5.4,0,0,1,6.8,0l3.552,2.846a8.93,8.93,0,0,0,8.065,1.6l4.355-1.27a5.412,5.412,0,0,1,6.29,2.608l2.183,3.978A8.91,8.91,0,0,0,98.184,19l4.52.5a5.408,5.408,0,0,1,4.808,4.808l.5,4.521a8.914,8.914,0,0,0,4.575,6.836l3.977,2.183a5.47,5.47,0,0,1,2.608,6.289L117.9,48.487a8.918,8.918,0,0,0,1.6,8.064L122.34,60.1a5.406,5.406,0,0,1,0,6.8Z" transform="translate(0.013 0.014)" fill="#fff" stroke="#fff" stroke-width="1"/>
    </g>
  </g>
</svg>
